%TF.GenerationSoftware,KiCad,Pcbnew,8.0.4*%
%TF.CreationDate,2024-09-23T00:25:40+08:00*%
%TF.ProjectId,MacroKeypad,4d616372-6f4b-4657-9970-61642e6b6963,rev?*%
%TF.SameCoordinates,Original*%
%TF.FileFunction,Legend,Bot*%
%TF.FilePolarity,Positive*%
%FSLAX46Y46*%
G04 Gerber Fmt 4.6, Leading zero omitted, Abs format (unit mm)*
G04 Created by KiCad (PCBNEW 8.0.4) date 2024-09-23 00:25:40*
%MOMM*%
%LPD*%
G01*
G04 APERTURE LIST*
G04 Aperture macros list*
%AMRoundRect*
0 Rectangle with rounded corners*
0 $1 Rounding radius*
0 $2 $3 $4 $5 $6 $7 $8 $9 X,Y pos of 4 corners*
0 Add a 4 corners polygon primitive as box body*
4,1,4,$2,$3,$4,$5,$6,$7,$8,$9,$2,$3,0*
0 Add four circle primitives for the rounded corners*
1,1,$1+$1,$2,$3*
1,1,$1+$1,$4,$5*
1,1,$1+$1,$6,$7*
1,1,$1+$1,$8,$9*
0 Add four rect primitives between the rounded corners*
20,1,$1+$1,$2,$3,$4,$5,0*
20,1,$1+$1,$4,$5,$6,$7,0*
20,1,$1+$1,$6,$7,$8,$9,0*
20,1,$1+$1,$8,$9,$2,$3,0*%
G04 Aperture macros list end*
%ADD10C,0.400000*%
%ADD11C,0.100000*%
%ADD12C,0.150000*%
%ADD13C,0.120000*%
%ADD14C,1.000000*%
%ADD15C,1.700000*%
%ADD16C,4.000000*%
%ADD17C,2.200000*%
%ADD18C,5.700000*%
%ADD19R,2.000000X2.000000*%
%ADD20C,2.000000*%
%ADD21R,3.200000X2.000000*%
%ADD22RoundRect,0.250000X0.600000X-0.600000X0.600000X0.600000X-0.600000X0.600000X-0.600000X-0.600000X0*%
%ADD23O,1.800000X1.800000*%
%ADD24O,1.500000X1.500000*%
%ADD25O,1.700000X1.700000*%
%ADD26R,3.500000X1.700000*%
%ADD27R,1.700000X1.700000*%
%ADD28R,1.700000X3.500000*%
G04 APERTURE END LIST*
D10*
X162554914Y-26834585D02*
X162554914Y-28263157D01*
X163412057Y-26548871D02*
X160412057Y-27548871D01*
X160412057Y-27548871D02*
X163412057Y-28548871D01*
X161412057Y-30834586D02*
X163412057Y-30834586D01*
X161412057Y-29548871D02*
X162983485Y-29548871D01*
X162983485Y-29548871D02*
X163269200Y-29691728D01*
X163269200Y-29691728D02*
X163412057Y-29977443D01*
X163412057Y-29977443D02*
X163412057Y-30406014D01*
X163412057Y-30406014D02*
X163269200Y-30691728D01*
X163269200Y-30691728D02*
X163126342Y-30834586D01*
X161412057Y-32263157D02*
X163412057Y-32263157D01*
X161697771Y-32263157D02*
X161554914Y-32406014D01*
X161554914Y-32406014D02*
X161412057Y-32691729D01*
X161412057Y-32691729D02*
X161412057Y-33120300D01*
X161412057Y-33120300D02*
X161554914Y-33406014D01*
X161554914Y-33406014D02*
X161840628Y-33548872D01*
X161840628Y-33548872D02*
X163412057Y-33548872D01*
X161412057Y-36263158D02*
X163840628Y-36263158D01*
X163840628Y-36263158D02*
X164126342Y-36120300D01*
X164126342Y-36120300D02*
X164269200Y-35977443D01*
X164269200Y-35977443D02*
X164412057Y-35691729D01*
X164412057Y-35691729D02*
X164412057Y-35263158D01*
X164412057Y-35263158D02*
X164269200Y-34977443D01*
X163269200Y-36263158D02*
X163412057Y-35977443D01*
X163412057Y-35977443D02*
X163412057Y-35406015D01*
X163412057Y-35406015D02*
X163269200Y-35120300D01*
X163269200Y-35120300D02*
X163126342Y-34977443D01*
X163126342Y-34977443D02*
X162840628Y-34834586D01*
X162840628Y-34834586D02*
X161983485Y-34834586D01*
X161983485Y-34834586D02*
X161697771Y-34977443D01*
X161697771Y-34977443D02*
X161554914Y-35120300D01*
X161554914Y-35120300D02*
X161412057Y-35406015D01*
X161412057Y-35406015D02*
X161412057Y-35977443D01*
X161412057Y-35977443D02*
X161554914Y-36263158D01*
X160412057Y-39548872D02*
X160412057Y-41263158D01*
X163412057Y-40406015D02*
X160412057Y-40406015D01*
X161412057Y-43548872D02*
X163412057Y-43548872D01*
X161412057Y-42263157D02*
X162983485Y-42263157D01*
X162983485Y-42263157D02*
X163269200Y-42406014D01*
X163269200Y-42406014D02*
X163412057Y-42691729D01*
X163412057Y-42691729D02*
X163412057Y-43120300D01*
X163412057Y-43120300D02*
X163269200Y-43406014D01*
X163269200Y-43406014D02*
X163126342Y-43548872D01*
X161412057Y-44977443D02*
X163412057Y-44977443D01*
X161697771Y-44977443D02*
X161554914Y-45120300D01*
X161554914Y-45120300D02*
X161412057Y-45406015D01*
X161412057Y-45406015D02*
X161412057Y-45834586D01*
X161412057Y-45834586D02*
X161554914Y-46120300D01*
X161554914Y-46120300D02*
X161840628Y-46263158D01*
X161840628Y-46263158D02*
X163412057Y-46263158D01*
X163412057Y-51406015D02*
X163412057Y-49977443D01*
X163412057Y-49977443D02*
X160412057Y-49977443D01*
X163412057Y-52406014D02*
X161412057Y-52406014D01*
X160412057Y-52406014D02*
X160554914Y-52263157D01*
X160554914Y-52263157D02*
X160697771Y-52406014D01*
X160697771Y-52406014D02*
X160554914Y-52548871D01*
X160554914Y-52548871D02*
X160412057Y-52406014D01*
X160412057Y-52406014D02*
X160697771Y-52406014D01*
X161412057Y-53834585D02*
X163412057Y-53834585D01*
X161697771Y-53834585D02*
X161554914Y-53977442D01*
X161554914Y-53977442D02*
X161412057Y-54263157D01*
X161412057Y-54263157D02*
X161412057Y-54691728D01*
X161412057Y-54691728D02*
X161554914Y-54977442D01*
X161554914Y-54977442D02*
X161840628Y-55120300D01*
X161840628Y-55120300D02*
X163412057Y-55120300D01*
X161412057Y-56548871D02*
X163412057Y-56548871D01*
X161697771Y-56548871D02*
X161554914Y-56691728D01*
X161554914Y-56691728D02*
X161412057Y-56977443D01*
X161412057Y-56977443D02*
X161412057Y-57406014D01*
X161412057Y-57406014D02*
X161554914Y-57691728D01*
X161554914Y-57691728D02*
X161840628Y-57834586D01*
X161840628Y-57834586D02*
X163412057Y-57834586D01*
D11*
G36*
X151199441Y-26956140D02*
G01*
X150833077Y-26956140D01*
X150885896Y-27101819D01*
X150930375Y-27252166D01*
X150960160Y-27400724D01*
X150968632Y-27514480D01*
X150946380Y-27670721D01*
X150879625Y-27809992D01*
X150780321Y-27921877D01*
X150650576Y-28010362D01*
X150497648Y-28066075D01*
X150340190Y-28088197D01*
X150283531Y-28089672D01*
X150124941Y-28075704D01*
X149972036Y-28026599D01*
X149846140Y-27942138D01*
X149777215Y-27866189D01*
X149695749Y-27722745D01*
X149645718Y-27565460D01*
X149619221Y-27404845D01*
X149609346Y-27250096D01*
X149608688Y-27195010D01*
X149608688Y-27046072D01*
X149608688Y-27014026D01*
X148201849Y-27014026D01*
X148201849Y-28444312D01*
X148577006Y-28444312D01*
X148577006Y-27356210D01*
X149327320Y-27356210D01*
X149334261Y-27526698D01*
X149355083Y-27684164D01*
X149389788Y-27828605D01*
X149449757Y-27984745D01*
X149529716Y-28122132D01*
X149611618Y-28222295D01*
X149723391Y-28324391D01*
X149846034Y-28405363D01*
X150002858Y-28473133D01*
X150149054Y-28508339D01*
X150306121Y-28522421D01*
X150333356Y-28522714D01*
X150486542Y-28512410D01*
X150651715Y-28474343D01*
X150802302Y-28408225D01*
X150938304Y-28314058D01*
X151026517Y-28229623D01*
X151131869Y-28095966D01*
X151211345Y-27950808D01*
X151264945Y-27794150D01*
X151292669Y-27625992D01*
X151296894Y-27524738D01*
X151287377Y-27365627D01*
X151262538Y-27207989D01*
X151227516Y-27056383D01*
X151199441Y-26956140D01*
G37*
G36*
X151250000Y-29121353D02*
G01*
X150112072Y-29953733D01*
X148999057Y-29125017D01*
X148999057Y-29634263D01*
X149827773Y-30252686D01*
X148999057Y-30819085D01*
X148999057Y-31221353D01*
X150109874Y-30460781D01*
X151250000Y-31307815D01*
X151250000Y-30800767D01*
X150390509Y-30159630D01*
X151250000Y-29530949D01*
X151250000Y-29121353D01*
G37*
G36*
X151199441Y-32014898D02*
G01*
X150833077Y-32014898D01*
X150885896Y-32160577D01*
X150930375Y-32310924D01*
X150960160Y-32459481D01*
X150968632Y-32573237D01*
X150946380Y-32729479D01*
X150879625Y-32868750D01*
X150780321Y-32980635D01*
X150650576Y-33069120D01*
X150497648Y-33124833D01*
X150340190Y-33146955D01*
X150283531Y-33148429D01*
X150124941Y-33134462D01*
X149972036Y-33085357D01*
X149846140Y-33000896D01*
X149777215Y-32924947D01*
X149695749Y-32781503D01*
X149645718Y-32624218D01*
X149619221Y-32463603D01*
X149609346Y-32308854D01*
X149608688Y-32253768D01*
X149608688Y-32104830D01*
X149608688Y-32072784D01*
X148201849Y-32072784D01*
X148201849Y-33503070D01*
X148577006Y-33503070D01*
X148577006Y-32414968D01*
X149327320Y-32414968D01*
X149334261Y-32585456D01*
X149355083Y-32742921D01*
X149389788Y-32887363D01*
X149449757Y-33043503D01*
X149529716Y-33180890D01*
X149611618Y-33281053D01*
X149723391Y-33383149D01*
X149846034Y-33464121D01*
X150002858Y-33531891D01*
X150149054Y-33567096D01*
X150306121Y-33581179D01*
X150333356Y-33581472D01*
X150486542Y-33571168D01*
X150651715Y-33533100D01*
X150802302Y-33466983D01*
X150938304Y-33372816D01*
X151026517Y-33288381D01*
X151131869Y-33154723D01*
X151211345Y-33009566D01*
X151264945Y-32852908D01*
X151292669Y-32684750D01*
X151296894Y-32583496D01*
X151287377Y-32424385D01*
X151262538Y-32266747D01*
X151227516Y-32115140D01*
X151199441Y-32014898D01*
G37*
G36*
X151250000Y-36710956D02*
G01*
X148201849Y-36710956D01*
X148201849Y-37199685D01*
X149936950Y-37780739D01*
X149936950Y-37785136D01*
X148201849Y-38355931D01*
X148201849Y-38864445D01*
X151250000Y-38864445D01*
X151250000Y-38533251D01*
X148563817Y-38533251D01*
X148577739Y-38528855D01*
X150452791Y-37933147D01*
X150452791Y-37590963D01*
X148631960Y-36997452D01*
X148620237Y-36993789D01*
X151250000Y-36993789D01*
X151250000Y-36710956D01*
G37*
G36*
X150725526Y-39328325D02*
G01*
X150879514Y-39356174D01*
X151014038Y-39423809D01*
X151129099Y-39531228D01*
X151168426Y-39583778D01*
X151243803Y-39727776D01*
X151283621Y-39872792D01*
X151296894Y-40032414D01*
X151295141Y-40087175D01*
X151271579Y-40240888D01*
X151225087Y-40384124D01*
X151220444Y-40395234D01*
X151147767Y-40532913D01*
X151063274Y-40653784D01*
X150968632Y-40767341D01*
X150994589Y-40776010D01*
X151133871Y-40839759D01*
X151239009Y-40942463D01*
X151274283Y-41025410D01*
X151296894Y-41173272D01*
X151296619Y-41187017D01*
X151272096Y-41333890D01*
X151226552Y-41482484D01*
X150968632Y-41445115D01*
X150968632Y-41317620D01*
X150949581Y-41223098D01*
X150895359Y-41157152D01*
X150795708Y-41117585D01*
X150772266Y-41115593D01*
X150624249Y-41111723D01*
X149696615Y-41111723D01*
X149684813Y-41111694D01*
X149531901Y-41105122D01*
X149377145Y-41081681D01*
X149260871Y-41038383D01*
X149141939Y-40952721D01*
X149118959Y-40929606D01*
X149033893Y-40799801D01*
X148983483Y-40648996D01*
X148958835Y-40489694D01*
X148952163Y-40332833D01*
X148953296Y-40260885D01*
X148963529Y-40109064D01*
X148984403Y-39962805D01*
X148986439Y-39951726D01*
X149021370Y-39805048D01*
X149065276Y-39663454D01*
X149116294Y-39520969D01*
X149486322Y-39520969D01*
X149427520Y-39633855D01*
X149365213Y-39777259D01*
X149319260Y-39929099D01*
X149314557Y-39950875D01*
X149290134Y-40096894D01*
X149280425Y-40250034D01*
X149281198Y-40287464D01*
X149302407Y-40438346D01*
X149310031Y-40465394D01*
X149385205Y-40596615D01*
X149392080Y-40603894D01*
X149518562Y-40679413D01*
X149586465Y-40694148D01*
X149737648Y-40703593D01*
X149936950Y-40703593D01*
X149936950Y-40581960D01*
X150171423Y-40581960D01*
X150171423Y-40703593D01*
X150726099Y-40703593D01*
X150748239Y-40675899D01*
X150837598Y-40548193D01*
X150907815Y-40414166D01*
X150949389Y-40291829D01*
X150968632Y-40138660D01*
X150968529Y-40126527D01*
X150945609Y-39976662D01*
X150863852Y-39844836D01*
X150764656Y-39778217D01*
X150616922Y-39747383D01*
X150519973Y-39759931D01*
X150384895Y-39833846D01*
X150292323Y-39948150D01*
X150277683Y-39974154D01*
X150223490Y-40113625D01*
X150191376Y-40268448D01*
X150175673Y-40427735D01*
X150171423Y-40581960D01*
X149936950Y-40581960D01*
X149936950Y-40452267D01*
X149937780Y-40388437D01*
X149947118Y-40236149D01*
X149972019Y-40067146D01*
X150011861Y-39913136D01*
X150066644Y-39774118D01*
X150149441Y-39630879D01*
X150162837Y-39612216D01*
X150263060Y-39498163D01*
X150391425Y-39403367D01*
X150534536Y-39346489D01*
X150692393Y-39327529D01*
X150725526Y-39328325D01*
G37*
G36*
X151163538Y-43849197D02*
G01*
X151215500Y-43691547D01*
X151254699Y-43534038D01*
X151281136Y-43376669D01*
X151294810Y-43219440D01*
X151296894Y-43129658D01*
X151291914Y-42981520D01*
X151271682Y-42809905D01*
X151235886Y-42653353D01*
X151184527Y-42511862D01*
X151102353Y-42361956D01*
X150997767Y-42233740D01*
X150978157Y-42214480D01*
X150850783Y-42111637D01*
X150708261Y-42030072D01*
X150550593Y-41969785D01*
X150407632Y-41935800D01*
X150254153Y-41916591D01*
X150123796Y-41911863D01*
X149963554Y-41919287D01*
X149813474Y-41941558D01*
X149646789Y-41987883D01*
X149494737Y-42055589D01*
X149357316Y-42144676D01*
X149273831Y-42215945D01*
X149164514Y-42339430D01*
X149077814Y-42481822D01*
X149013732Y-42643123D01*
X148977607Y-42791983D01*
X148957189Y-42953974D01*
X148952163Y-43093021D01*
X148957668Y-43248457D01*
X148974182Y-43404454D01*
X149001706Y-43561011D01*
X149040239Y-43718130D01*
X149067201Y-43808164D01*
X149418911Y-43808164D01*
X149371847Y-43663110D01*
X149329247Y-43504363D01*
X149299900Y-43356906D01*
X149282589Y-43202209D01*
X149280425Y-43130390D01*
X149291330Y-42975716D01*
X149330496Y-42818179D01*
X149398148Y-42681159D01*
X149494284Y-42564655D01*
X149508304Y-42551535D01*
X149631952Y-42461134D01*
X149775750Y-42396563D01*
X149918102Y-42361250D01*
X150075882Y-42345712D01*
X150123796Y-42344905D01*
X150288984Y-42355634D01*
X150437693Y-42387821D01*
X150587467Y-42450882D01*
X150715717Y-42541969D01*
X150744417Y-42569120D01*
X150842511Y-42691990D01*
X150912578Y-42835650D01*
X150950896Y-42978409D01*
X150967756Y-43137085D01*
X150968632Y-43185345D01*
X150960205Y-43337569D01*
X150934926Y-43498953D01*
X150898982Y-43647677D01*
X150850136Y-43803413D01*
X150833810Y-43849197D01*
X151163538Y-43849197D01*
G37*
G36*
X151250000Y-44740195D02*
G01*
X148999057Y-44740195D01*
X148999057Y-45146127D01*
X149421109Y-45121946D01*
X149421109Y-45146859D01*
X149296917Y-45239838D01*
X149189040Y-45343837D01*
X149097478Y-45458856D01*
X149081123Y-45483182D01*
X149013117Y-45616318D01*
X148970298Y-45769346D01*
X148953296Y-45924080D01*
X148952163Y-45979239D01*
X148960870Y-46134874D01*
X148981838Y-46279978D01*
X149004919Y-46393230D01*
X149655582Y-46393230D01*
X149655582Y-46088415D01*
X149347103Y-46088415D01*
X149327803Y-45941429D01*
X149327320Y-45916957D01*
X149344115Y-45763050D01*
X149394502Y-45613470D01*
X149446755Y-45516154D01*
X149533279Y-45397215D01*
X149643561Y-45281281D01*
X149763126Y-45179509D01*
X149807257Y-45146127D01*
X151250000Y-45146127D01*
X151250000Y-44740195D01*
G37*
G36*
X150220020Y-46853594D02*
G01*
X150372694Y-46868313D01*
X150543200Y-46903639D01*
X150699846Y-46958233D01*
X150842634Y-47032095D01*
X150971563Y-47125226D01*
X151029703Y-47178657D01*
X151128827Y-47297805D01*
X151205077Y-47433337D01*
X151258452Y-47585252D01*
X151288951Y-47753551D01*
X151296894Y-47906315D01*
X151294035Y-47999339D01*
X151276561Y-48145276D01*
X151234624Y-48305383D01*
X151169812Y-48449106D01*
X151082125Y-48576447D01*
X150971563Y-48687404D01*
X150887150Y-48751632D01*
X150748982Y-48831917D01*
X150596955Y-48892934D01*
X150431069Y-48934682D01*
X150282245Y-48954754D01*
X150123796Y-48961444D01*
X150027453Y-48959035D01*
X149874668Y-48944316D01*
X149704171Y-48908991D01*
X149547688Y-48854397D01*
X149405218Y-48780534D01*
X149276762Y-48687404D01*
X149218752Y-48633973D01*
X149119851Y-48514825D01*
X149043773Y-48379293D01*
X148990519Y-48227377D01*
X148960088Y-48059079D01*
X148952163Y-47906315D01*
X149280425Y-47906315D01*
X149283929Y-47977584D01*
X149317429Y-48123289D01*
X149396255Y-48261391D01*
X149504640Y-48364270D01*
X149518820Y-48374413D01*
X149661447Y-48451210D01*
X149810901Y-48497578D01*
X149959179Y-48521245D01*
X150123796Y-48529134D01*
X150148403Y-48528974D01*
X150311237Y-48518876D01*
X150457592Y-48493070D01*
X150604675Y-48444344D01*
X150744417Y-48365003D01*
X150784486Y-48333207D01*
X150889587Y-48210475D01*
X150950896Y-48061983D01*
X150968632Y-47906315D01*
X150965128Y-47834714D01*
X150931628Y-47688513D01*
X150852802Y-47550268D01*
X150744417Y-47447627D01*
X150730235Y-47437574D01*
X150587467Y-47361460D01*
X150437693Y-47315504D01*
X150288984Y-47292047D01*
X150123796Y-47284228D01*
X150099279Y-47284389D01*
X149936996Y-47294532D01*
X149791052Y-47320453D01*
X149644266Y-47369397D01*
X149504640Y-47449092D01*
X149464570Y-47481125D01*
X149359470Y-47604086D01*
X149298161Y-47751948D01*
X149280425Y-47906315D01*
X148952163Y-47906315D01*
X148955016Y-47813291D01*
X148972450Y-47667354D01*
X149014293Y-47507247D01*
X149078959Y-47363523D01*
X149166449Y-47236183D01*
X149276762Y-47125226D01*
X149360842Y-47060998D01*
X149498641Y-46980713D01*
X149650453Y-46919696D01*
X149816279Y-46877948D01*
X149965171Y-46857876D01*
X150123796Y-46851186D01*
X150220020Y-46853594D01*
G37*
G36*
X151250000Y-52044033D02*
G01*
X148201849Y-52044033D01*
X148201849Y-52449965D01*
X149702477Y-52449965D01*
X148201849Y-53557117D01*
X148201849Y-53966713D01*
X149647522Y-52899127D01*
X151250000Y-54171144D01*
X151250000Y-53684612D01*
X149702477Y-52449965D01*
X151250000Y-52449965D01*
X151250000Y-52044033D01*
G37*
G36*
X150239879Y-54516547D02*
G01*
X150386296Y-54531738D01*
X150550851Y-54568197D01*
X150703247Y-54624543D01*
X150843484Y-54700775D01*
X150971563Y-54796894D01*
X150991578Y-54814956D01*
X151098328Y-54937574D01*
X151182202Y-55084612D01*
X151234624Y-55225798D01*
X151271160Y-55383943D01*
X151291811Y-55559046D01*
X151296894Y-55711339D01*
X151291215Y-55865029D01*
X151274180Y-56016887D01*
X151272736Y-56026372D01*
X151243014Y-56179489D01*
X151203838Y-56325366D01*
X151198088Y-56343387D01*
X151150348Y-56485833D01*
X150814026Y-56485833D01*
X150858566Y-56365098D01*
X150902049Y-56224277D01*
X150939039Y-56065585D01*
X150961234Y-55912924D01*
X150968632Y-55766294D01*
X150962913Y-55647463D01*
X150937497Y-55498880D01*
X150884598Y-55345189D01*
X150805966Y-55205757D01*
X150784608Y-55177266D01*
X150663137Y-55069319D01*
X150520324Y-55001198D01*
X150368464Y-54963080D01*
X150218318Y-54946371D01*
X150218318Y-56471179D01*
X150089357Y-56471179D01*
X149971450Y-56469002D01*
X149790679Y-56455700D01*
X149629586Y-56430305D01*
X149462249Y-56383868D01*
X149323248Y-56320018D01*
X149196894Y-56223517D01*
X149126390Y-56142469D01*
X149047761Y-56015960D01*
X148992553Y-55874233D01*
X148960767Y-55717290D01*
X148952163Y-55570655D01*
X148953016Y-55534019D01*
X149280425Y-55534019D01*
X149284959Y-55613248D01*
X149325889Y-55766707D01*
X149409385Y-55895254D01*
X149529667Y-55982769D01*
X149682288Y-56027509D01*
X149837299Y-56038869D01*
X149890055Y-56038869D01*
X149890055Y-54958827D01*
X149853946Y-54962900D01*
X149704486Y-54993625D01*
X149563436Y-55051557D01*
X149438695Y-55144207D01*
X149362187Y-55238437D01*
X149299127Y-55382831D01*
X149280425Y-55534019D01*
X148953016Y-55534019D01*
X148953537Y-55511674D01*
X148974145Y-55343555D01*
X149019482Y-55188678D01*
X149089549Y-55047041D01*
X149184346Y-54918644D01*
X149303872Y-54803489D01*
X149370930Y-54751765D01*
X149512541Y-54663580D01*
X149664147Y-54595745D01*
X149825748Y-54548261D01*
X149997344Y-54521127D01*
X150147976Y-54514061D01*
X150239879Y-54516547D01*
G37*
G36*
X152047208Y-57044905D02*
G01*
X151718946Y-57044905D01*
X151718946Y-57209769D01*
X151708989Y-57361689D01*
X151667515Y-57510714D01*
X151634682Y-57566608D01*
X151526455Y-57670310D01*
X151522575Y-57672854D01*
X151391860Y-57747048D01*
X151353314Y-57766643D01*
X151154012Y-57867759D01*
X148999057Y-56927669D01*
X148999057Y-57348255D01*
X150668213Y-58079518D01*
X148999057Y-58817376D01*
X148999057Y-59182274D01*
X151520376Y-58055338D01*
X151665515Y-57979655D01*
X151788512Y-57891917D01*
X151899208Y-57780290D01*
X151935833Y-57731472D01*
X152004298Y-57600382D01*
X152026692Y-57514584D01*
X152043281Y-57362987D01*
X152047208Y-57217829D01*
X152047208Y-57044905D01*
G37*
G36*
X152047208Y-60057152D02*
G01*
X151277110Y-60057152D01*
X150968632Y-60032240D01*
X150968632Y-60057152D01*
X151037935Y-60114228D01*
X151148874Y-60227915D01*
X151231681Y-60359769D01*
X151239578Y-60378580D01*
X151282565Y-60521848D01*
X151296894Y-60668981D01*
X151292546Y-60755479D01*
X151261403Y-60910724D01*
X151206036Y-61047801D01*
X151155432Y-61134446D01*
X151060120Y-61252736D01*
X150941521Y-61357013D01*
X150831053Y-61429416D01*
X150684324Y-61500102D01*
X150522140Y-61553116D01*
X150375179Y-61583795D01*
X150217485Y-61602203D01*
X150049057Y-61608339D01*
X149987640Y-61607486D01*
X149840858Y-61597890D01*
X149677471Y-61572302D01*
X149527994Y-61531361D01*
X149392428Y-61475066D01*
X149251849Y-61389986D01*
X149181610Y-61332821D01*
X149081227Y-61220387D01*
X149009525Y-61092174D01*
X148966503Y-60948184D01*
X148952163Y-60788415D01*
X148957937Y-60704152D01*
X149327320Y-60704152D01*
X149335665Y-60789939D01*
X149395441Y-60931584D01*
X149501709Y-61041939D01*
X149512849Y-61050189D01*
X149650694Y-61118281D01*
X149795591Y-61153899D01*
X149947620Y-61171315D01*
X150096685Y-61176029D01*
X150154957Y-61175368D01*
X150316824Y-61165450D01*
X150481120Y-61138838D01*
X150636516Y-61088589D01*
X150770062Y-61006769D01*
X150874777Y-60895929D01*
X150945168Y-60761278D01*
X150968632Y-60613293D01*
X150950130Y-60476823D01*
X150894626Y-60338520D01*
X150864247Y-60286210D01*
X150772925Y-60163352D01*
X150671877Y-60057152D01*
X149744242Y-60057152D01*
X149629862Y-60148401D01*
X149516352Y-60262603D01*
X149425505Y-60390544D01*
X149413616Y-60412119D01*
X149351866Y-60555774D01*
X149327320Y-60704152D01*
X148957937Y-60704152D01*
X148959490Y-60681483D01*
X148997958Y-60529499D01*
X149069399Y-60387613D01*
X149084512Y-60364941D01*
X149184003Y-60245056D01*
X149298492Y-60143133D01*
X149421109Y-60057152D01*
X149421109Y-60032240D01*
X148999057Y-60057152D01*
X148999057Y-59650488D01*
X152047208Y-59650488D01*
X152047208Y-60057152D01*
G37*
G36*
X150725526Y-62092735D02*
G01*
X150879514Y-62120585D01*
X151014038Y-62188219D01*
X151129099Y-62295638D01*
X151168426Y-62348188D01*
X151243803Y-62492187D01*
X151283621Y-62637203D01*
X151296894Y-62796824D01*
X151295141Y-62851586D01*
X151271579Y-63005298D01*
X151225087Y-63148534D01*
X151220444Y-63159644D01*
X151147767Y-63297323D01*
X151063274Y-63418195D01*
X150968632Y-63531751D01*
X150994589Y-63540421D01*
X151133871Y-63604169D01*
X151239009Y-63706873D01*
X151274283Y-63789820D01*
X151296894Y-63937683D01*
X151296619Y-63951427D01*
X151272096Y-64098300D01*
X151226552Y-64246894D01*
X150968632Y-64209525D01*
X150968632Y-64082030D01*
X150949581Y-63987508D01*
X150895359Y-63921563D01*
X150795708Y-63881995D01*
X150772266Y-63880003D01*
X150624249Y-63876133D01*
X149696615Y-63876133D01*
X149684813Y-63876104D01*
X149531901Y-63869532D01*
X149377145Y-63846092D01*
X149260871Y-63802793D01*
X149141939Y-63717131D01*
X149118959Y-63694016D01*
X149033893Y-63564212D01*
X148983483Y-63413407D01*
X148958835Y-63254104D01*
X148952163Y-63097243D01*
X148953296Y-63025295D01*
X148963529Y-62873474D01*
X148984403Y-62727215D01*
X148986439Y-62716136D01*
X149021370Y-62569459D01*
X149065276Y-62427865D01*
X149116294Y-62285380D01*
X149486322Y-62285380D01*
X149427520Y-62398266D01*
X149365213Y-62541670D01*
X149319260Y-62693510D01*
X149314557Y-62715285D01*
X149290134Y-62861304D01*
X149280425Y-63014445D01*
X149281198Y-63051874D01*
X149302407Y-63202756D01*
X149310031Y-63229804D01*
X149385205Y-63361025D01*
X149392080Y-63368304D01*
X149518562Y-63443824D01*
X149586465Y-63458558D01*
X149737648Y-63468004D01*
X149936950Y-63468004D01*
X149936950Y-63346371D01*
X150171423Y-63346371D01*
X150171423Y-63468004D01*
X150726099Y-63468004D01*
X150748239Y-63440310D01*
X150837598Y-63312603D01*
X150907815Y-63178576D01*
X150949389Y-63056239D01*
X150968632Y-62903070D01*
X150968529Y-62890938D01*
X150945609Y-62741072D01*
X150863852Y-62609246D01*
X150764656Y-62542628D01*
X150616922Y-62511793D01*
X150519973Y-62524341D01*
X150384895Y-62598256D01*
X150292323Y-62712561D01*
X150277683Y-62738564D01*
X150223490Y-62878035D01*
X150191376Y-63032858D01*
X150175673Y-63192146D01*
X150171423Y-63346371D01*
X149936950Y-63346371D01*
X149936950Y-63216678D01*
X149937780Y-63152847D01*
X149947118Y-63000559D01*
X149972019Y-62831557D01*
X150011861Y-62677546D01*
X150066644Y-62538528D01*
X150149441Y-62395289D01*
X150162837Y-62376626D01*
X150263060Y-62262574D01*
X150391425Y-62167777D01*
X150534536Y-62110899D01*
X150692393Y-62091939D01*
X150725526Y-62092735D01*
G37*
G36*
X150259485Y-64603120D02*
G01*
X150406857Y-64612716D01*
X150570811Y-64638304D01*
X150720700Y-64679245D01*
X150856524Y-64735540D01*
X150997208Y-64820621D01*
X151067447Y-64877762D01*
X151167830Y-64990046D01*
X151239532Y-65117968D01*
X151282554Y-65261528D01*
X151296894Y-65420725D01*
X151289567Y-65527704D01*
X151251099Y-65679928D01*
X151179658Y-65822260D01*
X151164459Y-65845110D01*
X151064701Y-65965766D01*
X150950269Y-66068090D01*
X150827948Y-66154187D01*
X150827948Y-66179099D01*
X151250000Y-66154187D01*
X151250000Y-66560118D01*
X148014270Y-66560118D01*
X148014270Y-66154187D01*
X148977076Y-66154187D01*
X149280425Y-66179099D01*
X149280425Y-66154187D01*
X149209731Y-66096390D01*
X149097555Y-65981878D01*
X149015910Y-65850104D01*
X149008191Y-65831385D01*
X148966170Y-65688804D01*
X148957489Y-65598046D01*
X149280425Y-65598046D01*
X149299110Y-65734516D01*
X149355163Y-65872819D01*
X149380097Y-65916396D01*
X149469135Y-66039174D01*
X149577180Y-66154187D01*
X150504082Y-66154187D01*
X150617870Y-66062880D01*
X150731285Y-65948450D01*
X150822819Y-65820062D01*
X150834797Y-65798576D01*
X150897008Y-65655382D01*
X150921737Y-65507187D01*
X150913392Y-65421400D01*
X150853616Y-65279755D01*
X150747348Y-65169399D01*
X150736209Y-65161150D01*
X150598450Y-65093057D01*
X150453725Y-65057440D01*
X150301920Y-65040024D01*
X150153105Y-65035310D01*
X150094309Y-65035974D01*
X149931180Y-65045935D01*
X149765997Y-65072662D01*
X149610361Y-65123129D01*
X149477529Y-65205303D01*
X149373588Y-65316701D01*
X149303716Y-65451139D01*
X149280425Y-65598046D01*
X148957489Y-65598046D01*
X148952163Y-65542358D01*
X148956475Y-65455825D01*
X148987368Y-65300329D01*
X149042288Y-65162805D01*
X149092251Y-65076160D01*
X149186945Y-64957870D01*
X149305338Y-64853593D01*
X149416385Y-64781190D01*
X149563526Y-64710504D01*
X149725814Y-64657490D01*
X149872624Y-64626811D01*
X150029954Y-64608403D01*
X150197801Y-64602267D01*
X150259485Y-64603120D01*
G37*
G36*
X156188150Y-26737787D02*
G01*
X155778555Y-26737787D01*
X155844837Y-26901521D01*
X155899885Y-27057955D01*
X155943698Y-27207091D01*
X155981445Y-27376420D01*
X156003015Y-27535239D01*
X156008632Y-27659560D01*
X155996851Y-27806661D01*
X155958082Y-27954931D01*
X155947083Y-27983426D01*
X155870696Y-28116966D01*
X155764633Y-28214235D01*
X155631627Y-28276554D01*
X155506713Y-28294103D01*
X155358625Y-28265413D01*
X155225955Y-28179342D01*
X155120968Y-28054664D01*
X155050223Y-27931402D01*
X154759330Y-27340090D01*
X154684397Y-27206939D01*
X154597385Y-27078036D01*
X154497745Y-26962689D01*
X154407620Y-26886531D01*
X154275330Y-26813527D01*
X154128322Y-26770826D01*
X153981905Y-26758304D01*
X153829634Y-26772226D01*
X153687165Y-26813991D01*
X153554495Y-26883600D01*
X153431625Y-26981053D01*
X153328082Y-27108640D01*
X153261749Y-27246875D01*
X153218067Y-27409934D01*
X153198652Y-27569457D01*
X153194954Y-27685938D01*
X153201090Y-27843728D01*
X153219498Y-28010634D01*
X153245043Y-28160952D01*
X153279604Y-28317968D01*
X153323182Y-28481681D01*
X153687348Y-28481681D01*
X153631569Y-28317968D01*
X153587330Y-28160952D01*
X153554632Y-28010634D01*
X153531070Y-27843728D01*
X153523217Y-27685938D01*
X153534940Y-27531699D01*
X153570111Y-27394312D01*
X153643785Y-27264162D01*
X153715924Y-27201605D01*
X153852396Y-27145390D01*
X153928415Y-27137857D01*
X154078320Y-27169113D01*
X154173147Y-27226517D01*
X154279256Y-27339775D01*
X154357479Y-27463761D01*
X154400293Y-27545987D01*
X154675066Y-28098464D01*
X154753139Y-28241789D01*
X154842796Y-28378969D01*
X154944206Y-28499358D01*
X155034836Y-28576203D01*
X155166433Y-28647956D01*
X155311363Y-28689925D01*
X155454689Y-28702233D01*
X155613000Y-28688804D01*
X155759670Y-28648517D01*
X155894700Y-28581373D01*
X156018089Y-28487371D01*
X156083370Y-28421598D01*
X156182155Y-28287184D01*
X156247517Y-28152940D01*
X156295053Y-28001128D01*
X156324763Y-27831747D01*
X156335904Y-27677177D01*
X156336894Y-27611933D01*
X156331311Y-27457821D01*
X156317110Y-27306385D01*
X156289702Y-27147428D01*
X156252646Y-26985475D01*
X156214048Y-26834187D01*
X156188150Y-26737787D01*
G37*
G36*
X155279879Y-29222757D02*
G01*
X155426296Y-29237949D01*
X155590851Y-29274408D01*
X155743247Y-29330753D01*
X155883484Y-29406986D01*
X156011563Y-29503105D01*
X156031578Y-29521167D01*
X156138328Y-29643784D01*
X156222202Y-29790822D01*
X156274624Y-29932009D01*
X156311160Y-30090154D01*
X156331811Y-30265257D01*
X156336894Y-30417550D01*
X156331215Y-30571240D01*
X156314180Y-30723098D01*
X156312736Y-30732583D01*
X156283014Y-30885700D01*
X156243838Y-31031577D01*
X156238088Y-31049598D01*
X156190348Y-31192044D01*
X155854026Y-31192044D01*
X155898566Y-31071309D01*
X155942049Y-30930487D01*
X155979039Y-30771796D01*
X156001234Y-30619135D01*
X156008632Y-30472505D01*
X156002913Y-30353674D01*
X155977497Y-30205090D01*
X155924598Y-30051400D01*
X155845966Y-29911967D01*
X155824608Y-29883477D01*
X155703137Y-29775530D01*
X155560324Y-29707409D01*
X155408464Y-29669291D01*
X155258318Y-29652581D01*
X155258318Y-31177390D01*
X155129357Y-31177390D01*
X155011450Y-31175213D01*
X154830679Y-31161911D01*
X154669586Y-31136516D01*
X154502249Y-31090079D01*
X154363248Y-31026229D01*
X154236894Y-30929727D01*
X154166390Y-30848680D01*
X154087761Y-30722171D01*
X154032553Y-30580444D01*
X154000767Y-30423501D01*
X153992163Y-30276866D01*
X153993016Y-30240230D01*
X154320425Y-30240230D01*
X154324959Y-30319459D01*
X154365889Y-30472918D01*
X154449385Y-30601465D01*
X154569667Y-30688980D01*
X154722288Y-30733720D01*
X154877299Y-30745080D01*
X154930055Y-30745080D01*
X154930055Y-29665038D01*
X154893946Y-29669111D01*
X154744486Y-29699836D01*
X154603436Y-29757767D01*
X154478695Y-29850418D01*
X154402187Y-29944648D01*
X154339127Y-30089042D01*
X154320425Y-30240230D01*
X153993016Y-30240230D01*
X153993537Y-30217884D01*
X154014145Y-30049766D01*
X154059482Y-29894889D01*
X154129549Y-29753252D01*
X154224346Y-29624855D01*
X154343872Y-29509699D01*
X154410930Y-29457976D01*
X154552541Y-29369790D01*
X154704147Y-29301956D01*
X154865748Y-29254472D01*
X155037344Y-29227338D01*
X155187976Y-29220272D01*
X155279879Y-29222757D01*
G37*
G36*
X157087208Y-32233984D02*
G01*
X156317110Y-32233984D01*
X156008632Y-32209071D01*
X156008632Y-32233984D01*
X156077935Y-32291060D01*
X156188874Y-32404747D01*
X156271681Y-32536601D01*
X156279578Y-32555412D01*
X156322565Y-32698680D01*
X156336894Y-32845812D01*
X156332546Y-32932311D01*
X156301403Y-33087556D01*
X156246036Y-33224633D01*
X156195432Y-33311278D01*
X156100120Y-33429568D01*
X155981521Y-33533845D01*
X155871053Y-33606248D01*
X155724324Y-33676933D01*
X155562140Y-33729947D01*
X155415179Y-33760627D01*
X155257485Y-33779035D01*
X155089057Y-33785170D01*
X155027640Y-33784318D01*
X154880858Y-33774722D01*
X154717471Y-33749134D01*
X154567994Y-33708192D01*
X154432428Y-33651898D01*
X154291849Y-33566817D01*
X154221610Y-33509653D01*
X154121227Y-33397219D01*
X154049525Y-33269006D01*
X154006503Y-33125016D01*
X153992163Y-32965247D01*
X153997937Y-32880983D01*
X154367320Y-32880983D01*
X154375665Y-32966771D01*
X154435441Y-33108416D01*
X154541709Y-33218771D01*
X154552849Y-33227021D01*
X154690694Y-33295113D01*
X154835591Y-33330731D01*
X154987620Y-33348147D01*
X155136685Y-33352861D01*
X155194957Y-33352199D01*
X155356824Y-33342282D01*
X155521120Y-33315670D01*
X155676516Y-33265420D01*
X155810062Y-33183600D01*
X155914777Y-33072761D01*
X155985168Y-32938110D01*
X156008632Y-32790125D01*
X155990130Y-32653654D01*
X155934626Y-32515352D01*
X155904247Y-32463042D01*
X155812925Y-32340184D01*
X155711877Y-32233984D01*
X154784242Y-32233984D01*
X154669862Y-32325232D01*
X154556352Y-32439434D01*
X154465505Y-32567376D01*
X154453616Y-32588951D01*
X154391866Y-32732606D01*
X154367320Y-32880983D01*
X153997937Y-32880983D01*
X153999490Y-32858315D01*
X154037958Y-32706331D01*
X154109399Y-32564445D01*
X154124512Y-32541773D01*
X154224003Y-32421888D01*
X154338492Y-32319965D01*
X154461109Y-32233984D01*
X154461109Y-32209071D01*
X154039057Y-32233984D01*
X154039057Y-31827320D01*
X157087208Y-31827320D01*
X157087208Y-32233984D01*
G37*
G36*
X156290000Y-36258862D02*
G01*
X156310516Y-36107737D01*
X156325170Y-35959176D01*
X156334650Y-35795111D01*
X156336894Y-35669748D01*
X156330480Y-35496641D01*
X156311237Y-35344966D01*
X156272574Y-35195100D01*
X156207006Y-35059546D01*
X156154445Y-34994173D01*
X156034094Y-34903497D01*
X155894314Y-34852095D01*
X155884068Y-34849825D01*
X155735846Y-34827053D01*
X155588137Y-34816852D01*
X155467878Y-34814654D01*
X154367320Y-34814654D01*
X154367320Y-34256315D01*
X154039057Y-34256315D01*
X154039057Y-34814654D01*
X153570111Y-34814654D01*
X153570111Y-35222784D01*
X154039057Y-35222784D01*
X154039057Y-36214166D01*
X154367320Y-36214166D01*
X154367320Y-35222784D01*
X155522833Y-35222784D01*
X155677307Y-35226711D01*
X155791011Y-35243300D01*
X155889930Y-35315840D01*
X155962564Y-35445304D01*
X155982986Y-35515143D01*
X156005025Y-35664264D01*
X156008632Y-35756210D01*
X156004052Y-35914233D01*
X155990314Y-36071398D01*
X155967416Y-36227704D01*
X155961737Y-36258862D01*
X156290000Y-36258862D01*
G37*
G36*
X156290000Y-39393475D02*
G01*
X155940488Y-39393475D01*
X155791227Y-39478043D01*
X155641572Y-39574668D01*
X155521565Y-39660649D01*
X155401306Y-39754346D01*
X155280795Y-39855761D01*
X155160032Y-39964891D01*
X155039017Y-40081739D01*
X154978415Y-40143056D01*
X154798164Y-40326971D01*
X154682598Y-40436104D01*
X154566711Y-40526740D01*
X154427220Y-40611086D01*
X154287266Y-40668797D01*
X154123401Y-40702462D01*
X154052979Y-40705792D01*
X153902830Y-40688995D01*
X153761940Y-40632357D01*
X153671960Y-40563642D01*
X153581320Y-40441986D01*
X153532513Y-40290243D01*
X153523217Y-40172365D01*
X153533521Y-40020690D01*
X153541535Y-39970132D01*
X153577413Y-39821749D01*
X153597222Y-39762037D01*
X153654042Y-39626246D01*
X153719539Y-39492545D01*
X153731311Y-39469678D01*
X153361284Y-39469678D01*
X153304758Y-39611170D01*
X153259927Y-39751527D01*
X153222405Y-39913845D01*
X153200802Y-40074620D01*
X153194954Y-40211200D01*
X153201732Y-40359715D01*
X153225560Y-40509606D01*
X153272157Y-40654806D01*
X153303398Y-40718981D01*
X153386784Y-40844360D01*
X153497896Y-40958030D01*
X153595024Y-41027459D01*
X153738662Y-41095328D01*
X153882278Y-41130024D01*
X154008283Y-41138834D01*
X154158180Y-41126280D01*
X154304614Y-41088616D01*
X154434731Y-41032588D01*
X154570185Y-40947008D01*
X154688956Y-40850929D01*
X154800469Y-40746724D01*
X154919064Y-40623726D01*
X155078799Y-40450802D01*
X155187049Y-40338236D01*
X155297476Y-40235102D01*
X155349176Y-40190683D01*
X155469089Y-40096616D01*
X155594765Y-40010460D01*
X155619553Y-39995045D01*
X155758954Y-39924886D01*
X155904616Y-39878078D01*
X155914842Y-39875610D01*
X155914842Y-41121981D01*
X156290000Y-41121981D01*
X156290000Y-39393475D01*
G37*
G36*
X154925430Y-41809052D02*
G01*
X155080814Y-41821554D01*
X155229879Y-41842391D01*
X155407322Y-41880158D01*
X155574891Y-41930948D01*
X155732585Y-41994761D01*
X155880404Y-42071598D01*
X155987394Y-42142065D01*
X156101071Y-42240808D01*
X156208061Y-42374932D01*
X156282953Y-42526109D01*
X156325749Y-42694339D01*
X156336894Y-42847557D01*
X156329761Y-42971079D01*
X156292315Y-43142151D01*
X156222772Y-43296170D01*
X156121131Y-43433136D01*
X156011913Y-43534248D01*
X155880404Y-43623517D01*
X155732585Y-43700353D01*
X155574891Y-43764166D01*
X155407322Y-43814956D01*
X155229879Y-43852723D01*
X155080814Y-43873560D01*
X154925430Y-43886062D01*
X154763726Y-43890230D01*
X154604060Y-43886108D01*
X154450393Y-43873743D01*
X154302725Y-43853135D01*
X154126577Y-43815783D01*
X153959803Y-43765551D01*
X153802402Y-43702439D01*
X153654375Y-43626448D01*
X153546698Y-43556575D01*
X153432292Y-43458190D01*
X153324615Y-43323929D01*
X153249241Y-43171996D01*
X153206170Y-43002392D01*
X153195007Y-42848290D01*
X153523217Y-42848290D01*
X153533392Y-42949904D01*
X153586811Y-43086677D01*
X153686020Y-43204671D01*
X153812644Y-43293789D01*
X153831097Y-43303887D01*
X153980622Y-43365596D01*
X154137140Y-43405988D01*
X154287564Y-43430832D01*
X154456163Y-43447662D01*
X154604129Y-43455355D01*
X154763726Y-43457920D01*
X154923861Y-43455355D01*
X155107641Y-43444937D01*
X155273210Y-43426504D01*
X155420568Y-43400057D01*
X155573359Y-43357742D01*
X155718471Y-43293789D01*
X155802062Y-43239829D01*
X155916823Y-43128095D01*
X155985680Y-42997582D01*
X156008632Y-42848290D01*
X155998431Y-42745705D01*
X155944876Y-42607960D01*
X155845416Y-42489573D01*
X155718471Y-42400593D01*
X155699926Y-42390585D01*
X155549715Y-42329426D01*
X155392553Y-42289395D01*
X155241553Y-42264773D01*
X155072342Y-42248094D01*
X154923861Y-42240469D01*
X154763726Y-42237927D01*
X154604129Y-42240469D01*
X154420989Y-42250794D01*
X154256025Y-42269062D01*
X154109236Y-42295273D01*
X153957081Y-42337210D01*
X153812644Y-42400593D01*
X153729264Y-42454413D01*
X153614793Y-42566347D01*
X153546111Y-42697639D01*
X153523217Y-42848290D01*
X153195007Y-42848290D01*
X153194954Y-42847557D01*
X153206170Y-42692106D01*
X153239819Y-42549070D01*
X153309809Y-42393815D01*
X153412102Y-42256437D01*
X153522022Y-42155612D01*
X153654375Y-42067201D01*
X153802402Y-41991631D01*
X153959803Y-41928870D01*
X154126577Y-41878917D01*
X154302725Y-41841773D01*
X154450393Y-41821279D01*
X154604060Y-41808983D01*
X154763726Y-41804884D01*
X154925430Y-41809052D01*
G37*
G36*
X156290000Y-44452233D02*
G01*
X155940488Y-44452233D01*
X155791227Y-44536800D01*
X155641572Y-44633425D01*
X155521565Y-44719407D01*
X155401306Y-44813104D01*
X155280795Y-44914518D01*
X155160032Y-45023649D01*
X155039017Y-45140497D01*
X154978415Y-45201814D01*
X154798164Y-45385729D01*
X154682598Y-45494862D01*
X154566711Y-45585497D01*
X154427220Y-45669844D01*
X154287266Y-45727555D01*
X154123401Y-45761220D01*
X154052979Y-45764549D01*
X153902830Y-45747752D01*
X153761940Y-45691115D01*
X153671960Y-45622400D01*
X153581320Y-45500744D01*
X153532513Y-45349001D01*
X153523217Y-45231123D01*
X153533521Y-45079448D01*
X153541535Y-45028890D01*
X153577413Y-44880507D01*
X153597222Y-44820795D01*
X153654042Y-44685003D01*
X153719539Y-44551303D01*
X153731311Y-44528436D01*
X153361284Y-44528436D01*
X153304758Y-44669927D01*
X153259927Y-44810285D01*
X153222405Y-44972603D01*
X153200802Y-45133378D01*
X153194954Y-45269958D01*
X153201732Y-45418473D01*
X153225560Y-45568363D01*
X153272157Y-45713564D01*
X153303398Y-45777739D01*
X153386784Y-45903117D01*
X153497896Y-46016788D01*
X153595024Y-46086217D01*
X153738662Y-46154086D01*
X153882278Y-46188782D01*
X154008283Y-46197592D01*
X154158180Y-46185038D01*
X154304614Y-46147374D01*
X154434731Y-46091346D01*
X154570185Y-46005766D01*
X154688956Y-45909687D01*
X154800469Y-45805482D01*
X154919064Y-45682484D01*
X155078799Y-45509560D01*
X155187049Y-45396994D01*
X155297476Y-45293860D01*
X155349176Y-45249441D01*
X155469089Y-45155374D01*
X155594765Y-45069218D01*
X155619553Y-45053803D01*
X155758954Y-44983644D01*
X155904616Y-44936836D01*
X155914842Y-44934368D01*
X155914842Y-46180739D01*
X156290000Y-46180739D01*
X156290000Y-44452233D01*
G37*
G36*
X155492791Y-48135659D02*
G01*
X156290000Y-48135659D01*
X156290000Y-48516678D01*
X155492791Y-48516678D01*
X155492791Y-48922609D01*
X155164528Y-48922609D01*
X155164528Y-48516678D01*
X153241849Y-48516678D01*
X153241849Y-48135659D01*
X153811179Y-48135659D01*
X155164528Y-48135659D01*
X155164528Y-47205826D01*
X153811179Y-48135659D01*
X153241849Y-48135659D01*
X155117634Y-46863642D01*
X155492791Y-46863642D01*
X155492791Y-48135659D01*
G37*
D12*
X30211904Y-108504819D02*
X29640476Y-108504819D01*
X29926190Y-109504819D02*
X29926190Y-108504819D01*
X29307142Y-109504819D02*
X29307142Y-108504819D01*
X29307142Y-108504819D02*
X28926190Y-108504819D01*
X28926190Y-108504819D02*
X28830952Y-108552438D01*
X28830952Y-108552438D02*
X28783333Y-108600057D01*
X28783333Y-108600057D02*
X28735714Y-108695295D01*
X28735714Y-108695295D02*
X28735714Y-108838152D01*
X28735714Y-108838152D02*
X28783333Y-108933390D01*
X28783333Y-108933390D02*
X28830952Y-108981009D01*
X28830952Y-108981009D02*
X28926190Y-109028628D01*
X28926190Y-109028628D02*
X29307142Y-109028628D01*
X28164285Y-108933390D02*
X28259523Y-108885771D01*
X28259523Y-108885771D02*
X28307142Y-108838152D01*
X28307142Y-108838152D02*
X28354761Y-108742914D01*
X28354761Y-108742914D02*
X28354761Y-108695295D01*
X28354761Y-108695295D02*
X28307142Y-108600057D01*
X28307142Y-108600057D02*
X28259523Y-108552438D01*
X28259523Y-108552438D02*
X28164285Y-108504819D01*
X28164285Y-108504819D02*
X27973809Y-108504819D01*
X27973809Y-108504819D02*
X27878571Y-108552438D01*
X27878571Y-108552438D02*
X27830952Y-108600057D01*
X27830952Y-108600057D02*
X27783333Y-108695295D01*
X27783333Y-108695295D02*
X27783333Y-108742914D01*
X27783333Y-108742914D02*
X27830952Y-108838152D01*
X27830952Y-108838152D02*
X27878571Y-108885771D01*
X27878571Y-108885771D02*
X27973809Y-108933390D01*
X27973809Y-108933390D02*
X28164285Y-108933390D01*
X28164285Y-108933390D02*
X28259523Y-108981009D01*
X28259523Y-108981009D02*
X28307142Y-109028628D01*
X28307142Y-109028628D02*
X28354761Y-109123866D01*
X28354761Y-109123866D02*
X28354761Y-109314342D01*
X28354761Y-109314342D02*
X28307142Y-109409580D01*
X28307142Y-109409580D02*
X28259523Y-109457200D01*
X28259523Y-109457200D02*
X28164285Y-109504819D01*
X28164285Y-109504819D02*
X27973809Y-109504819D01*
X27973809Y-109504819D02*
X27878571Y-109457200D01*
X27878571Y-109457200D02*
X27830952Y-109409580D01*
X27830952Y-109409580D02*
X27783333Y-109314342D01*
X27783333Y-109314342D02*
X27783333Y-109123866D01*
X27783333Y-109123866D02*
X27830952Y-109028628D01*
X27830952Y-109028628D02*
X27878571Y-108981009D01*
X27878571Y-108981009D02*
X27973809Y-108933390D01*
X63538094Y-100056819D02*
X62966666Y-100056819D01*
X63252380Y-101056819D02*
X63252380Y-100056819D01*
X62633332Y-101056819D02*
X62633332Y-100056819D01*
X62633332Y-100056819D02*
X62252380Y-100056819D01*
X62252380Y-100056819D02*
X62157142Y-100104438D01*
X62157142Y-100104438D02*
X62109523Y-100152057D01*
X62109523Y-100152057D02*
X62061904Y-100247295D01*
X62061904Y-100247295D02*
X62061904Y-100390152D01*
X62061904Y-100390152D02*
X62109523Y-100485390D01*
X62109523Y-100485390D02*
X62157142Y-100533009D01*
X62157142Y-100533009D02*
X62252380Y-100580628D01*
X62252380Y-100580628D02*
X62633332Y-100580628D01*
X61109523Y-101056819D02*
X61680951Y-101056819D01*
X61395237Y-101056819D02*
X61395237Y-100056819D01*
X61395237Y-100056819D02*
X61490475Y-100199676D01*
X61490475Y-100199676D02*
X61585713Y-100294914D01*
X61585713Y-100294914D02*
X61680951Y-100342533D01*
X60490475Y-100056819D02*
X60395237Y-100056819D01*
X60395237Y-100056819D02*
X60299999Y-100104438D01*
X60299999Y-100104438D02*
X60252380Y-100152057D01*
X60252380Y-100152057D02*
X60204761Y-100247295D01*
X60204761Y-100247295D02*
X60157142Y-100437771D01*
X60157142Y-100437771D02*
X60157142Y-100675866D01*
X60157142Y-100675866D02*
X60204761Y-100866342D01*
X60204761Y-100866342D02*
X60252380Y-100961580D01*
X60252380Y-100961580D02*
X60299999Y-101009200D01*
X60299999Y-101009200D02*
X60395237Y-101056819D01*
X60395237Y-101056819D02*
X60490475Y-101056819D01*
X60490475Y-101056819D02*
X60585713Y-101009200D01*
X60585713Y-101009200D02*
X60633332Y-100961580D01*
X60633332Y-100961580D02*
X60680951Y-100866342D01*
X60680951Y-100866342D02*
X60728570Y-100675866D01*
X60728570Y-100675866D02*
X60728570Y-100437771D01*
X60728570Y-100437771D02*
X60680951Y-100247295D01*
X60680951Y-100247295D02*
X60633332Y-100152057D01*
X60633332Y-100152057D02*
X60585713Y-100104438D01*
X60585713Y-100104438D02*
X60490475Y-100056819D01*
X103538094Y-100156819D02*
X102966666Y-100156819D01*
X103252380Y-101156819D02*
X103252380Y-100156819D01*
X102633332Y-101156819D02*
X102633332Y-100156819D01*
X102633332Y-100156819D02*
X102252380Y-100156819D01*
X102252380Y-100156819D02*
X102157142Y-100204438D01*
X102157142Y-100204438D02*
X102109523Y-100252057D01*
X102109523Y-100252057D02*
X102061904Y-100347295D01*
X102061904Y-100347295D02*
X102061904Y-100490152D01*
X102061904Y-100490152D02*
X102109523Y-100585390D01*
X102109523Y-100585390D02*
X102157142Y-100633009D01*
X102157142Y-100633009D02*
X102252380Y-100680628D01*
X102252380Y-100680628D02*
X102633332Y-100680628D01*
X101109523Y-101156819D02*
X101680951Y-101156819D01*
X101395237Y-101156819D02*
X101395237Y-100156819D01*
X101395237Y-100156819D02*
X101490475Y-100299676D01*
X101490475Y-100299676D02*
X101585713Y-100394914D01*
X101585713Y-100394914D02*
X101680951Y-100442533D01*
X100728570Y-100252057D02*
X100680951Y-100204438D01*
X100680951Y-100204438D02*
X100585713Y-100156819D01*
X100585713Y-100156819D02*
X100347618Y-100156819D01*
X100347618Y-100156819D02*
X100252380Y-100204438D01*
X100252380Y-100204438D02*
X100204761Y-100252057D01*
X100204761Y-100252057D02*
X100157142Y-100347295D01*
X100157142Y-100347295D02*
X100157142Y-100442533D01*
X100157142Y-100442533D02*
X100204761Y-100585390D01*
X100204761Y-100585390D02*
X100776189Y-101156819D01*
X100776189Y-101156819D02*
X100157142Y-101156819D01*
X30011904Y-28304819D02*
X29440476Y-28304819D01*
X29726190Y-29304819D02*
X29726190Y-28304819D01*
X29107142Y-29304819D02*
X29107142Y-28304819D01*
X29107142Y-28304819D02*
X28726190Y-28304819D01*
X28726190Y-28304819D02*
X28630952Y-28352438D01*
X28630952Y-28352438D02*
X28583333Y-28400057D01*
X28583333Y-28400057D02*
X28535714Y-28495295D01*
X28535714Y-28495295D02*
X28535714Y-28638152D01*
X28535714Y-28638152D02*
X28583333Y-28733390D01*
X28583333Y-28733390D02*
X28630952Y-28781009D01*
X28630952Y-28781009D02*
X28726190Y-28828628D01*
X28726190Y-28828628D02*
X29107142Y-28828628D01*
X27630952Y-28304819D02*
X28107142Y-28304819D01*
X28107142Y-28304819D02*
X28154761Y-28781009D01*
X28154761Y-28781009D02*
X28107142Y-28733390D01*
X28107142Y-28733390D02*
X28011904Y-28685771D01*
X28011904Y-28685771D02*
X27773809Y-28685771D01*
X27773809Y-28685771D02*
X27678571Y-28733390D01*
X27678571Y-28733390D02*
X27630952Y-28781009D01*
X27630952Y-28781009D02*
X27583333Y-28876247D01*
X27583333Y-28876247D02*
X27583333Y-29114342D01*
X27583333Y-29114342D02*
X27630952Y-29209580D01*
X27630952Y-29209580D02*
X27678571Y-29257200D01*
X27678571Y-29257200D02*
X27773809Y-29304819D01*
X27773809Y-29304819D02*
X28011904Y-29304819D01*
X28011904Y-29304819D02*
X28107142Y-29257200D01*
X28107142Y-29257200D02*
X28154761Y-29209580D01*
X43161904Y-100056819D02*
X42590476Y-100056819D01*
X42876190Y-101056819D02*
X42876190Y-100056819D01*
X42257142Y-101056819D02*
X42257142Y-100056819D01*
X42257142Y-100056819D02*
X41876190Y-100056819D01*
X41876190Y-100056819D02*
X41780952Y-100104438D01*
X41780952Y-100104438D02*
X41733333Y-100152057D01*
X41733333Y-100152057D02*
X41685714Y-100247295D01*
X41685714Y-100247295D02*
X41685714Y-100390152D01*
X41685714Y-100390152D02*
X41733333Y-100485390D01*
X41733333Y-100485390D02*
X41780952Y-100533009D01*
X41780952Y-100533009D02*
X41876190Y-100580628D01*
X41876190Y-100580628D02*
X42257142Y-100580628D01*
X41209523Y-101056819D02*
X41019047Y-101056819D01*
X41019047Y-101056819D02*
X40923809Y-101009200D01*
X40923809Y-101009200D02*
X40876190Y-100961580D01*
X40876190Y-100961580D02*
X40780952Y-100818723D01*
X40780952Y-100818723D02*
X40733333Y-100628247D01*
X40733333Y-100628247D02*
X40733333Y-100247295D01*
X40733333Y-100247295D02*
X40780952Y-100152057D01*
X40780952Y-100152057D02*
X40828571Y-100104438D01*
X40828571Y-100104438D02*
X40923809Y-100056819D01*
X40923809Y-100056819D02*
X41114285Y-100056819D01*
X41114285Y-100056819D02*
X41209523Y-100104438D01*
X41209523Y-100104438D02*
X41257142Y-100152057D01*
X41257142Y-100152057D02*
X41304761Y-100247295D01*
X41304761Y-100247295D02*
X41304761Y-100485390D01*
X41304761Y-100485390D02*
X41257142Y-100580628D01*
X41257142Y-100580628D02*
X41209523Y-100628247D01*
X41209523Y-100628247D02*
X41114285Y-100675866D01*
X41114285Y-100675866D02*
X40923809Y-100675866D01*
X40923809Y-100675866D02*
X40828571Y-100628247D01*
X40828571Y-100628247D02*
X40780952Y-100580628D01*
X40780952Y-100580628D02*
X40733333Y-100485390D01*
X30111904Y-48506819D02*
X29540476Y-48506819D01*
X29826190Y-49506819D02*
X29826190Y-48506819D01*
X29207142Y-49506819D02*
X29207142Y-48506819D01*
X29207142Y-48506819D02*
X28826190Y-48506819D01*
X28826190Y-48506819D02*
X28730952Y-48554438D01*
X28730952Y-48554438D02*
X28683333Y-48602057D01*
X28683333Y-48602057D02*
X28635714Y-48697295D01*
X28635714Y-48697295D02*
X28635714Y-48840152D01*
X28635714Y-48840152D02*
X28683333Y-48935390D01*
X28683333Y-48935390D02*
X28730952Y-48983009D01*
X28730952Y-48983009D02*
X28826190Y-49030628D01*
X28826190Y-49030628D02*
X29207142Y-49030628D01*
X27778571Y-48506819D02*
X27969047Y-48506819D01*
X27969047Y-48506819D02*
X28064285Y-48554438D01*
X28064285Y-48554438D02*
X28111904Y-48602057D01*
X28111904Y-48602057D02*
X28207142Y-48744914D01*
X28207142Y-48744914D02*
X28254761Y-48935390D01*
X28254761Y-48935390D02*
X28254761Y-49316342D01*
X28254761Y-49316342D02*
X28207142Y-49411580D01*
X28207142Y-49411580D02*
X28159523Y-49459200D01*
X28159523Y-49459200D02*
X28064285Y-49506819D01*
X28064285Y-49506819D02*
X27873809Y-49506819D01*
X27873809Y-49506819D02*
X27778571Y-49459200D01*
X27778571Y-49459200D02*
X27730952Y-49411580D01*
X27730952Y-49411580D02*
X27683333Y-49316342D01*
X27683333Y-49316342D02*
X27683333Y-49078247D01*
X27683333Y-49078247D02*
X27730952Y-48983009D01*
X27730952Y-48983009D02*
X27778571Y-48935390D01*
X27778571Y-48935390D02*
X27873809Y-48887771D01*
X27873809Y-48887771D02*
X28064285Y-48887771D01*
X28064285Y-48887771D02*
X28159523Y-48935390D01*
X28159523Y-48935390D02*
X28207142Y-48983009D01*
X28207142Y-48983009D02*
X28254761Y-49078247D01*
X130061904Y-45309819D02*
X130061904Y-46119342D01*
X130061904Y-46119342D02*
X130014285Y-46214580D01*
X130014285Y-46214580D02*
X129966666Y-46262200D01*
X129966666Y-46262200D02*
X129871428Y-46309819D01*
X129871428Y-46309819D02*
X129680952Y-46309819D01*
X129680952Y-46309819D02*
X129585714Y-46262200D01*
X129585714Y-46262200D02*
X129538095Y-46214580D01*
X129538095Y-46214580D02*
X129490476Y-46119342D01*
X129490476Y-46119342D02*
X129490476Y-45309819D01*
X129061904Y-45405057D02*
X129014285Y-45357438D01*
X129014285Y-45357438D02*
X128919047Y-45309819D01*
X128919047Y-45309819D02*
X128680952Y-45309819D01*
X128680952Y-45309819D02*
X128585714Y-45357438D01*
X128585714Y-45357438D02*
X128538095Y-45405057D01*
X128538095Y-45405057D02*
X128490476Y-45500295D01*
X128490476Y-45500295D02*
X128490476Y-45595533D01*
X128490476Y-45595533D02*
X128538095Y-45738390D01*
X128538095Y-45738390D02*
X129109523Y-46309819D01*
X129109523Y-46309819D02*
X128490476Y-46309819D01*
X117202001Y-37101868D02*
X117282814Y-37128805D01*
X117282814Y-37128805D02*
X117363626Y-37209618D01*
X117363626Y-37209618D02*
X117417501Y-37317367D01*
X117417501Y-37317367D02*
X117417501Y-37425117D01*
X117417501Y-37425117D02*
X117390563Y-37505929D01*
X117390563Y-37505929D02*
X117309751Y-37640616D01*
X117309751Y-37640616D02*
X117228939Y-37721428D01*
X117228939Y-37721428D02*
X117094252Y-37802241D01*
X117094252Y-37802241D02*
X117013439Y-37829178D01*
X117013439Y-37829178D02*
X116905690Y-37829178D01*
X116905690Y-37829178D02*
X116797940Y-37775303D01*
X116797940Y-37775303D02*
X116744065Y-37721428D01*
X116744065Y-37721428D02*
X116690191Y-37613679D01*
X116690191Y-37613679D02*
X116690191Y-37559804D01*
X116690191Y-37559804D02*
X116878752Y-37371242D01*
X116878752Y-37371242D02*
X116986502Y-37478992D01*
X116393879Y-37371242D02*
X116959565Y-36805557D01*
X116959565Y-36805557D02*
X116744065Y-36590057D01*
X116744065Y-36590057D02*
X116663253Y-36563120D01*
X116663253Y-36563120D02*
X116609378Y-36563120D01*
X116609378Y-36563120D02*
X116528566Y-36590057D01*
X116528566Y-36590057D02*
X116447754Y-36670870D01*
X116447754Y-36670870D02*
X116420817Y-36751682D01*
X116420817Y-36751682D02*
X116420817Y-36805557D01*
X116420817Y-36805557D02*
X116447754Y-36886369D01*
X116447754Y-36886369D02*
X116663253Y-37101868D01*
X116366942Y-36320683D02*
X116366942Y-36266809D01*
X116366942Y-36266809D02*
X116340004Y-36185996D01*
X116340004Y-36185996D02*
X116205317Y-36051309D01*
X116205317Y-36051309D02*
X116124505Y-36024372D01*
X116124505Y-36024372D02*
X116070630Y-36024372D01*
X116070630Y-36024372D02*
X115989818Y-36051309D01*
X115989818Y-36051309D02*
X115935943Y-36105184D01*
X115935943Y-36105184D02*
X115882069Y-36212934D01*
X115882069Y-36212934D02*
X115882069Y-36859431D01*
X115882069Y-36859431D02*
X115531882Y-36509245D01*
X115531882Y-35862747D02*
X115612694Y-35889685D01*
X115612694Y-35889685D02*
X115666569Y-35889685D01*
X115666569Y-35889685D02*
X115747381Y-35862747D01*
X115747381Y-35862747D02*
X115774319Y-35835810D01*
X115774319Y-35835810D02*
X115801256Y-35754998D01*
X115801256Y-35754998D02*
X115801256Y-35701123D01*
X115801256Y-35701123D02*
X115774319Y-35620311D01*
X115774319Y-35620311D02*
X115666569Y-35512561D01*
X115666569Y-35512561D02*
X115585757Y-35485624D01*
X115585757Y-35485624D02*
X115531882Y-35485624D01*
X115531882Y-35485624D02*
X115451070Y-35512561D01*
X115451070Y-35512561D02*
X115424133Y-35539499D01*
X115424133Y-35539499D02*
X115397195Y-35620311D01*
X115397195Y-35620311D02*
X115397195Y-35674186D01*
X115397195Y-35674186D02*
X115424133Y-35754998D01*
X115424133Y-35754998D02*
X115531882Y-35862747D01*
X115531882Y-35862747D02*
X115558820Y-35943560D01*
X115558820Y-35943560D02*
X115558820Y-35997434D01*
X115558820Y-35997434D02*
X115531882Y-36078247D01*
X115531882Y-36078247D02*
X115424133Y-36185996D01*
X115424133Y-36185996D02*
X115343320Y-36212934D01*
X115343320Y-36212934D02*
X115289446Y-36212934D01*
X115289446Y-36212934D02*
X115208633Y-36185996D01*
X115208633Y-36185996D02*
X115100884Y-36078247D01*
X115100884Y-36078247D02*
X115073946Y-35997434D01*
X115073946Y-35997434D02*
X115073946Y-35943560D01*
X115073946Y-35943560D02*
X115100884Y-35862747D01*
X115100884Y-35862747D02*
X115208633Y-35754998D01*
X115208633Y-35754998D02*
X115289446Y-35728060D01*
X115289446Y-35728060D02*
X115343320Y-35728060D01*
X115343320Y-35728060D02*
X115424133Y-35754998D01*
X125395238Y-72379200D02*
X125280952Y-72417295D01*
X125280952Y-72417295D02*
X125090476Y-72417295D01*
X125090476Y-72417295D02*
X125014285Y-72379200D01*
X125014285Y-72379200D02*
X124976190Y-72341104D01*
X124976190Y-72341104D02*
X124938095Y-72264914D01*
X124938095Y-72264914D02*
X124938095Y-72188723D01*
X124938095Y-72188723D02*
X124976190Y-72112533D01*
X124976190Y-72112533D02*
X125014285Y-72074438D01*
X125014285Y-72074438D02*
X125090476Y-72036342D01*
X125090476Y-72036342D02*
X125242857Y-71998247D01*
X125242857Y-71998247D02*
X125319047Y-71960152D01*
X125319047Y-71960152D02*
X125357142Y-71922057D01*
X125357142Y-71922057D02*
X125395238Y-71845866D01*
X125395238Y-71845866D02*
X125395238Y-71769676D01*
X125395238Y-71769676D02*
X125357142Y-71693485D01*
X125357142Y-71693485D02*
X125319047Y-71655390D01*
X125319047Y-71655390D02*
X125242857Y-71617295D01*
X125242857Y-71617295D02*
X125052380Y-71617295D01*
X125052380Y-71617295D02*
X124938095Y-71655390D01*
X124671428Y-71617295D02*
X124480952Y-72417295D01*
X124480952Y-72417295D02*
X124328571Y-71845866D01*
X124328571Y-71845866D02*
X124176190Y-72417295D01*
X124176190Y-72417295D02*
X123985714Y-71617295D01*
X123680951Y-72417295D02*
X123680951Y-71617295D01*
X123680951Y-71617295D02*
X123490475Y-71617295D01*
X123490475Y-71617295D02*
X123376189Y-71655390D01*
X123376189Y-71655390D02*
X123299999Y-71731580D01*
X123299999Y-71731580D02*
X123261904Y-71807771D01*
X123261904Y-71807771D02*
X123223808Y-71960152D01*
X123223808Y-71960152D02*
X123223808Y-72074438D01*
X123223808Y-72074438D02*
X123261904Y-72226819D01*
X123261904Y-72226819D02*
X123299999Y-72303009D01*
X123299999Y-72303009D02*
X123376189Y-72379200D01*
X123376189Y-72379200D02*
X123490475Y-72417295D01*
X123490475Y-72417295D02*
X123680951Y-72417295D01*
X122880951Y-72417295D02*
X122880951Y-71617295D01*
X122347618Y-71617295D02*
X122195237Y-71617295D01*
X122195237Y-71617295D02*
X122119047Y-71655390D01*
X122119047Y-71655390D02*
X122042856Y-71731580D01*
X122042856Y-71731580D02*
X122004761Y-71883961D01*
X122004761Y-71883961D02*
X122004761Y-72150628D01*
X122004761Y-72150628D02*
X122042856Y-72303009D01*
X122042856Y-72303009D02*
X122119047Y-72379200D01*
X122119047Y-72379200D02*
X122195237Y-72417295D01*
X122195237Y-72417295D02*
X122347618Y-72417295D01*
X122347618Y-72417295D02*
X122423809Y-72379200D01*
X122423809Y-72379200D02*
X122499999Y-72303009D01*
X122499999Y-72303009D02*
X122538095Y-72150628D01*
X122538095Y-72150628D02*
X122538095Y-71883961D01*
X122538095Y-71883961D02*
X122499999Y-71731580D01*
X122499999Y-71731580D02*
X122423809Y-71655390D01*
X122423809Y-71655390D02*
X122347618Y-71617295D01*
X143456001Y-60215868D02*
X143536814Y-60242805D01*
X143536814Y-60242805D02*
X143617626Y-60323618D01*
X143617626Y-60323618D02*
X143671501Y-60431367D01*
X143671501Y-60431367D02*
X143671501Y-60539117D01*
X143671501Y-60539117D02*
X143644563Y-60619929D01*
X143644563Y-60619929D02*
X143563751Y-60754616D01*
X143563751Y-60754616D02*
X143482939Y-60835428D01*
X143482939Y-60835428D02*
X143348252Y-60916241D01*
X143348252Y-60916241D02*
X143267439Y-60943178D01*
X143267439Y-60943178D02*
X143159690Y-60943178D01*
X143159690Y-60943178D02*
X143051940Y-60889303D01*
X143051940Y-60889303D02*
X142998065Y-60835428D01*
X142998065Y-60835428D02*
X142944191Y-60727679D01*
X142944191Y-60727679D02*
X142944191Y-60673804D01*
X142944191Y-60673804D02*
X143132752Y-60485242D01*
X143132752Y-60485242D02*
X143240502Y-60592992D01*
X142647879Y-60485242D02*
X143213565Y-59919557D01*
X143213565Y-59919557D02*
X142998065Y-59704057D01*
X142998065Y-59704057D02*
X142917253Y-59677120D01*
X142917253Y-59677120D02*
X142863378Y-59677120D01*
X142863378Y-59677120D02*
X142782566Y-59704057D01*
X142782566Y-59704057D02*
X142701754Y-59784870D01*
X142701754Y-59784870D02*
X142674817Y-59865682D01*
X142674817Y-59865682D02*
X142674817Y-59919557D01*
X142674817Y-59919557D02*
X142701754Y-60000369D01*
X142701754Y-60000369D02*
X142917253Y-60215868D01*
X141785882Y-59623245D02*
X142109131Y-59946494D01*
X141947507Y-59784870D02*
X142513192Y-59219184D01*
X142513192Y-59219184D02*
X142486255Y-59353871D01*
X142486255Y-59353871D02*
X142486255Y-59461621D01*
X142486255Y-59461621D02*
X142513192Y-59542433D01*
X142082194Y-58895935D02*
X142082194Y-58842060D01*
X142082194Y-58842060D02*
X142055256Y-58761248D01*
X142055256Y-58761248D02*
X141920569Y-58626561D01*
X141920569Y-58626561D02*
X141839757Y-58599624D01*
X141839757Y-58599624D02*
X141785882Y-58599624D01*
X141785882Y-58599624D02*
X141705070Y-58626561D01*
X141705070Y-58626561D02*
X141651195Y-58680436D01*
X141651195Y-58680436D02*
X141597320Y-58788186D01*
X141597320Y-58788186D02*
X141597320Y-59434683D01*
X141597320Y-59434683D02*
X141247134Y-59084497D01*
X117148126Y-40596240D02*
X116878752Y-40326866D01*
X117040376Y-40811739D02*
X117417500Y-40057492D01*
X117417500Y-40057492D02*
X116663253Y-40434615D01*
X116717128Y-39410994D02*
X116797940Y-39437932D01*
X116797940Y-39437932D02*
X116878752Y-39518744D01*
X116878752Y-39518744D02*
X116932627Y-39626494D01*
X116932627Y-39626494D02*
X116932627Y-39734243D01*
X116932627Y-39734243D02*
X116905689Y-39815055D01*
X116905689Y-39815055D02*
X116824877Y-39949742D01*
X116824877Y-39949742D02*
X116744065Y-40030555D01*
X116744065Y-40030555D02*
X116609378Y-40111367D01*
X116609378Y-40111367D02*
X116528566Y-40138304D01*
X116528566Y-40138304D02*
X116420816Y-40138304D01*
X116420816Y-40138304D02*
X116313067Y-40084429D01*
X116313067Y-40084429D02*
X116259192Y-40030555D01*
X116259192Y-40030555D02*
X116205317Y-39922805D01*
X116205317Y-39922805D02*
X116205317Y-39868930D01*
X116205317Y-39868930D02*
X116393879Y-39680368D01*
X116393879Y-39680368D02*
X116501628Y-39788118D01*
X115909006Y-39680368D02*
X116474691Y-39114683D01*
X116474691Y-39114683D02*
X115585757Y-39357120D01*
X115585757Y-39357120D02*
X116151442Y-38791434D01*
X115316383Y-39087746D02*
X115882068Y-38522060D01*
X115882068Y-38522060D02*
X115747381Y-38387373D01*
X115747381Y-38387373D02*
X115639632Y-38333498D01*
X115639632Y-38333498D02*
X115531882Y-38333498D01*
X115531882Y-38333498D02*
X115451070Y-38360436D01*
X115451070Y-38360436D02*
X115316383Y-38441248D01*
X115316383Y-38441248D02*
X115235571Y-38522060D01*
X115235571Y-38522060D02*
X115154758Y-38656747D01*
X115154758Y-38656747D02*
X115127821Y-38737560D01*
X115127821Y-38737560D02*
X115127821Y-38845309D01*
X115127821Y-38845309D02*
X115181696Y-38953059D01*
X115181696Y-38953059D02*
X115316383Y-39087746D01*
X117202001Y-57675868D02*
X117282814Y-57702805D01*
X117282814Y-57702805D02*
X117363626Y-57783618D01*
X117363626Y-57783618D02*
X117417501Y-57891367D01*
X117417501Y-57891367D02*
X117417501Y-57999117D01*
X117417501Y-57999117D02*
X117390563Y-58079929D01*
X117390563Y-58079929D02*
X117309751Y-58214616D01*
X117309751Y-58214616D02*
X117228939Y-58295428D01*
X117228939Y-58295428D02*
X117094252Y-58376241D01*
X117094252Y-58376241D02*
X117013439Y-58403178D01*
X117013439Y-58403178D02*
X116905690Y-58403178D01*
X116905690Y-58403178D02*
X116797940Y-58349303D01*
X116797940Y-58349303D02*
X116744065Y-58295428D01*
X116744065Y-58295428D02*
X116690191Y-58187679D01*
X116690191Y-58187679D02*
X116690191Y-58133804D01*
X116690191Y-58133804D02*
X116878752Y-57945242D01*
X116878752Y-57945242D02*
X116986502Y-58052992D01*
X116393879Y-57945242D02*
X116959565Y-57379557D01*
X116959565Y-57379557D02*
X116744065Y-57164057D01*
X116744065Y-57164057D02*
X116663253Y-57137120D01*
X116663253Y-57137120D02*
X116609378Y-57137120D01*
X116609378Y-57137120D02*
X116528566Y-57164057D01*
X116528566Y-57164057D02*
X116447754Y-57244870D01*
X116447754Y-57244870D02*
X116420817Y-57325682D01*
X116420817Y-57325682D02*
X116420817Y-57379557D01*
X116420817Y-57379557D02*
X116447754Y-57460369D01*
X116447754Y-57460369D02*
X116663253Y-57675868D01*
X116366942Y-56894683D02*
X116366942Y-56840809D01*
X116366942Y-56840809D02*
X116340004Y-56759996D01*
X116340004Y-56759996D02*
X116205317Y-56625309D01*
X116205317Y-56625309D02*
X116124505Y-56598372D01*
X116124505Y-56598372D02*
X116070630Y-56598372D01*
X116070630Y-56598372D02*
X115989818Y-56625309D01*
X115989818Y-56625309D02*
X115935943Y-56679184D01*
X115935943Y-56679184D02*
X115882069Y-56786934D01*
X115882069Y-56786934D02*
X115882069Y-57433431D01*
X115882069Y-57433431D02*
X115531882Y-57083245D01*
X115747381Y-56167373D02*
X115693507Y-56113499D01*
X115693507Y-56113499D02*
X115612694Y-56086561D01*
X115612694Y-56086561D02*
X115558820Y-56086561D01*
X115558820Y-56086561D02*
X115478007Y-56113499D01*
X115478007Y-56113499D02*
X115343320Y-56194311D01*
X115343320Y-56194311D02*
X115208633Y-56328998D01*
X115208633Y-56328998D02*
X115127821Y-56463685D01*
X115127821Y-56463685D02*
X115100884Y-56544497D01*
X115100884Y-56544497D02*
X115100884Y-56598372D01*
X115100884Y-56598372D02*
X115127821Y-56679184D01*
X115127821Y-56679184D02*
X115181696Y-56733059D01*
X115181696Y-56733059D02*
X115262508Y-56759996D01*
X115262508Y-56759996D02*
X115316383Y-56759996D01*
X115316383Y-56759996D02*
X115397195Y-56733059D01*
X115397195Y-56733059D02*
X115531882Y-56652247D01*
X115531882Y-56652247D02*
X115666569Y-56517560D01*
X115666569Y-56517560D02*
X115747381Y-56382873D01*
X115747381Y-56382873D02*
X115774319Y-56302060D01*
X115774319Y-56302060D02*
X115774319Y-56248186D01*
X115774319Y-56248186D02*
X115747381Y-56167373D01*
X117202001Y-62755868D02*
X117282814Y-62782805D01*
X117282814Y-62782805D02*
X117363626Y-62863618D01*
X117363626Y-62863618D02*
X117417501Y-62971367D01*
X117417501Y-62971367D02*
X117417501Y-63079117D01*
X117417501Y-63079117D02*
X117390563Y-63159929D01*
X117390563Y-63159929D02*
X117309751Y-63294616D01*
X117309751Y-63294616D02*
X117228939Y-63375428D01*
X117228939Y-63375428D02*
X117094252Y-63456241D01*
X117094252Y-63456241D02*
X117013439Y-63483178D01*
X117013439Y-63483178D02*
X116905690Y-63483178D01*
X116905690Y-63483178D02*
X116797940Y-63429303D01*
X116797940Y-63429303D02*
X116744065Y-63375428D01*
X116744065Y-63375428D02*
X116690191Y-63267679D01*
X116690191Y-63267679D02*
X116690191Y-63213804D01*
X116690191Y-63213804D02*
X116878752Y-63025242D01*
X116878752Y-63025242D02*
X116986502Y-63132992D01*
X116393879Y-63025242D02*
X116959565Y-62459557D01*
X116959565Y-62459557D02*
X116744065Y-62244057D01*
X116744065Y-62244057D02*
X116663253Y-62217120D01*
X116663253Y-62217120D02*
X116609378Y-62217120D01*
X116609378Y-62217120D02*
X116528566Y-62244057D01*
X116528566Y-62244057D02*
X116447754Y-62324870D01*
X116447754Y-62324870D02*
X116420817Y-62405682D01*
X116420817Y-62405682D02*
X116420817Y-62459557D01*
X116420817Y-62459557D02*
X116447754Y-62540369D01*
X116447754Y-62540369D02*
X116663253Y-62755868D01*
X115531882Y-62163245D02*
X115855131Y-62486494D01*
X115693507Y-62324870D02*
X116259192Y-61759184D01*
X116259192Y-61759184D02*
X116232255Y-61893871D01*
X116232255Y-61893871D02*
X116232255Y-62001621D01*
X116232255Y-62001621D02*
X116259192Y-62082433D01*
X115531882Y-61516747D02*
X115612694Y-61543685D01*
X115612694Y-61543685D02*
X115666569Y-61543685D01*
X115666569Y-61543685D02*
X115747381Y-61516747D01*
X115747381Y-61516747D02*
X115774319Y-61489810D01*
X115774319Y-61489810D02*
X115801256Y-61408998D01*
X115801256Y-61408998D02*
X115801256Y-61355123D01*
X115801256Y-61355123D02*
X115774319Y-61274311D01*
X115774319Y-61274311D02*
X115666569Y-61166561D01*
X115666569Y-61166561D02*
X115585757Y-61139624D01*
X115585757Y-61139624D02*
X115531882Y-61139624D01*
X115531882Y-61139624D02*
X115451070Y-61166561D01*
X115451070Y-61166561D02*
X115424133Y-61193499D01*
X115424133Y-61193499D02*
X115397195Y-61274311D01*
X115397195Y-61274311D02*
X115397195Y-61328186D01*
X115397195Y-61328186D02*
X115424133Y-61408998D01*
X115424133Y-61408998D02*
X115531882Y-61516747D01*
X115531882Y-61516747D02*
X115558820Y-61597560D01*
X115558820Y-61597560D02*
X115558820Y-61651434D01*
X115558820Y-61651434D02*
X115531882Y-61732247D01*
X115531882Y-61732247D02*
X115424133Y-61839996D01*
X115424133Y-61839996D02*
X115343320Y-61866934D01*
X115343320Y-61866934D02*
X115289446Y-61866934D01*
X115289446Y-61866934D02*
X115208633Y-61839996D01*
X115208633Y-61839996D02*
X115100884Y-61732247D01*
X115100884Y-61732247D02*
X115073946Y-61651434D01*
X115073946Y-61651434D02*
X115073946Y-61597560D01*
X115073946Y-61597560D02*
X115100884Y-61516747D01*
X115100884Y-61516747D02*
X115208633Y-61408998D01*
X115208633Y-61408998D02*
X115289446Y-61382060D01*
X115289446Y-61382060D02*
X115343320Y-61382060D01*
X115343320Y-61382060D02*
X115424133Y-61408998D01*
X117202001Y-50055868D02*
X117282814Y-50082805D01*
X117282814Y-50082805D02*
X117363626Y-50163618D01*
X117363626Y-50163618D02*
X117417501Y-50271367D01*
X117417501Y-50271367D02*
X117417501Y-50379117D01*
X117417501Y-50379117D02*
X117390563Y-50459929D01*
X117390563Y-50459929D02*
X117309751Y-50594616D01*
X117309751Y-50594616D02*
X117228939Y-50675428D01*
X117228939Y-50675428D02*
X117094252Y-50756241D01*
X117094252Y-50756241D02*
X117013439Y-50783178D01*
X117013439Y-50783178D02*
X116905690Y-50783178D01*
X116905690Y-50783178D02*
X116797940Y-50729303D01*
X116797940Y-50729303D02*
X116744065Y-50675428D01*
X116744065Y-50675428D02*
X116690191Y-50567679D01*
X116690191Y-50567679D02*
X116690191Y-50513804D01*
X116690191Y-50513804D02*
X116878752Y-50325242D01*
X116878752Y-50325242D02*
X116986502Y-50432992D01*
X116393879Y-50325242D02*
X116959565Y-49759557D01*
X116959565Y-49759557D02*
X116744065Y-49544057D01*
X116744065Y-49544057D02*
X116663253Y-49517120D01*
X116663253Y-49517120D02*
X116609378Y-49517120D01*
X116609378Y-49517120D02*
X116528566Y-49544057D01*
X116528566Y-49544057D02*
X116447754Y-49624870D01*
X116447754Y-49624870D02*
X116420817Y-49705682D01*
X116420817Y-49705682D02*
X116420817Y-49759557D01*
X116420817Y-49759557D02*
X116447754Y-49840369D01*
X116447754Y-49840369D02*
X116663253Y-50055868D01*
X116366942Y-49274683D02*
X116366942Y-49220809D01*
X116366942Y-49220809D02*
X116340004Y-49139996D01*
X116340004Y-49139996D02*
X116205317Y-49005309D01*
X116205317Y-49005309D02*
X116124505Y-48978372D01*
X116124505Y-48978372D02*
X116070630Y-48978372D01*
X116070630Y-48978372D02*
X115989818Y-49005309D01*
X115989818Y-49005309D02*
X115935943Y-49059184D01*
X115935943Y-49059184D02*
X115882069Y-49166934D01*
X115882069Y-49166934D02*
X115882069Y-49813431D01*
X115882069Y-49813431D02*
X115531882Y-49463245D01*
X115828194Y-48735935D02*
X115828194Y-48682060D01*
X115828194Y-48682060D02*
X115801256Y-48601248D01*
X115801256Y-48601248D02*
X115666569Y-48466561D01*
X115666569Y-48466561D02*
X115585757Y-48439624D01*
X115585757Y-48439624D02*
X115531882Y-48439624D01*
X115531882Y-48439624D02*
X115451070Y-48466561D01*
X115451070Y-48466561D02*
X115397195Y-48520436D01*
X115397195Y-48520436D02*
X115343320Y-48628186D01*
X115343320Y-48628186D02*
X115343320Y-49274683D01*
X115343320Y-49274683D02*
X114993134Y-48924497D01*
X142786627Y-42166494D02*
X142867439Y-42193431D01*
X142867439Y-42193431D02*
X142948251Y-42274243D01*
X142948251Y-42274243D02*
X143002126Y-42381993D01*
X143002126Y-42381993D02*
X143002126Y-42489742D01*
X143002126Y-42489742D02*
X142975189Y-42570555D01*
X142975189Y-42570555D02*
X142894376Y-42705242D01*
X142894376Y-42705242D02*
X142813564Y-42786054D01*
X142813564Y-42786054D02*
X142678877Y-42866866D01*
X142678877Y-42866866D02*
X142598065Y-42893803D01*
X142598065Y-42893803D02*
X142490315Y-42893803D01*
X142490315Y-42893803D02*
X142382566Y-42839929D01*
X142382566Y-42839929D02*
X142328691Y-42786054D01*
X142328691Y-42786054D02*
X142274816Y-42678304D01*
X142274816Y-42678304D02*
X142274816Y-42624429D01*
X142274816Y-42624429D02*
X142463378Y-42435868D01*
X142463378Y-42435868D02*
X142571128Y-42543617D01*
X141978505Y-42435868D02*
X142544190Y-41870182D01*
X142544190Y-41870182D02*
X142328691Y-41654683D01*
X142328691Y-41654683D02*
X142247879Y-41627746D01*
X142247879Y-41627746D02*
X142194004Y-41627746D01*
X142194004Y-41627746D02*
X142113192Y-41654683D01*
X142113192Y-41654683D02*
X142032380Y-41735495D01*
X142032380Y-41735495D02*
X142005442Y-41816307D01*
X142005442Y-41816307D02*
X142005442Y-41870182D01*
X142005442Y-41870182D02*
X142032380Y-41950994D01*
X142032380Y-41950994D02*
X142247879Y-42166494D01*
X141736068Y-41062060D02*
X141843818Y-41169810D01*
X141843818Y-41169810D02*
X141870755Y-41250622D01*
X141870755Y-41250622D02*
X141870755Y-41304497D01*
X141870755Y-41304497D02*
X141843818Y-41439184D01*
X141843818Y-41439184D02*
X141763006Y-41573871D01*
X141763006Y-41573871D02*
X141547506Y-41789370D01*
X141547506Y-41789370D02*
X141466694Y-41816307D01*
X141466694Y-41816307D02*
X141412819Y-41816307D01*
X141412819Y-41816307D02*
X141332007Y-41789370D01*
X141332007Y-41789370D02*
X141224258Y-41681620D01*
X141224258Y-41681620D02*
X141197320Y-41600808D01*
X141197320Y-41600808D02*
X141197320Y-41546933D01*
X141197320Y-41546933D02*
X141224258Y-41466121D01*
X141224258Y-41466121D02*
X141358945Y-41331434D01*
X141358945Y-41331434D02*
X141439757Y-41304497D01*
X141439757Y-41304497D02*
X141493632Y-41304497D01*
X141493632Y-41304497D02*
X141574444Y-41331434D01*
X141574444Y-41331434D02*
X141682193Y-41439184D01*
X141682193Y-41439184D02*
X141709131Y-41519996D01*
X141709131Y-41519996D02*
X141709131Y-41573871D01*
X141709131Y-41573871D02*
X141682193Y-41654683D01*
X142786627Y-37086494D02*
X142867439Y-37113431D01*
X142867439Y-37113431D02*
X142948251Y-37194243D01*
X142948251Y-37194243D02*
X143002126Y-37301993D01*
X143002126Y-37301993D02*
X143002126Y-37409742D01*
X143002126Y-37409742D02*
X142975189Y-37490555D01*
X142975189Y-37490555D02*
X142894376Y-37625242D01*
X142894376Y-37625242D02*
X142813564Y-37706054D01*
X142813564Y-37706054D02*
X142678877Y-37786866D01*
X142678877Y-37786866D02*
X142598065Y-37813803D01*
X142598065Y-37813803D02*
X142490315Y-37813803D01*
X142490315Y-37813803D02*
X142382566Y-37759929D01*
X142382566Y-37759929D02*
X142328691Y-37706054D01*
X142328691Y-37706054D02*
X142274816Y-37598304D01*
X142274816Y-37598304D02*
X142274816Y-37544429D01*
X142274816Y-37544429D02*
X142463378Y-37355868D01*
X142463378Y-37355868D02*
X142571128Y-37463617D01*
X141978505Y-37355868D02*
X142544190Y-36790182D01*
X142544190Y-36790182D02*
X142328691Y-36574683D01*
X142328691Y-36574683D02*
X142247879Y-36547746D01*
X142247879Y-36547746D02*
X142194004Y-36547746D01*
X142194004Y-36547746D02*
X142113192Y-36574683D01*
X142113192Y-36574683D02*
X142032380Y-36655495D01*
X142032380Y-36655495D02*
X142005442Y-36736307D01*
X142005442Y-36736307D02*
X142005442Y-36790182D01*
X142005442Y-36790182D02*
X142032380Y-36870994D01*
X142032380Y-36870994D02*
X142247879Y-37086494D01*
X141709131Y-35955123D02*
X141978505Y-36224497D01*
X141978505Y-36224497D02*
X141736068Y-36520808D01*
X141736068Y-36520808D02*
X141736068Y-36466933D01*
X141736068Y-36466933D02*
X141709131Y-36386121D01*
X141709131Y-36386121D02*
X141574444Y-36251434D01*
X141574444Y-36251434D02*
X141493632Y-36224497D01*
X141493632Y-36224497D02*
X141439757Y-36224497D01*
X141439757Y-36224497D02*
X141358945Y-36251434D01*
X141358945Y-36251434D02*
X141224258Y-36386121D01*
X141224258Y-36386121D02*
X141197320Y-36466933D01*
X141197320Y-36466933D02*
X141197320Y-36520808D01*
X141197320Y-36520808D02*
X141224258Y-36601620D01*
X141224258Y-36601620D02*
X141358945Y-36736307D01*
X141358945Y-36736307D02*
X141439757Y-36763245D01*
X141439757Y-36763245D02*
X141493632Y-36763245D01*
X142686627Y-44676494D02*
X142767439Y-44703431D01*
X142767439Y-44703431D02*
X142848251Y-44784243D01*
X142848251Y-44784243D02*
X142902126Y-44891993D01*
X142902126Y-44891993D02*
X142902126Y-44999742D01*
X142902126Y-44999742D02*
X142875189Y-45080555D01*
X142875189Y-45080555D02*
X142794376Y-45215242D01*
X142794376Y-45215242D02*
X142713564Y-45296054D01*
X142713564Y-45296054D02*
X142578877Y-45376866D01*
X142578877Y-45376866D02*
X142498065Y-45403803D01*
X142498065Y-45403803D02*
X142390315Y-45403803D01*
X142390315Y-45403803D02*
X142282566Y-45349929D01*
X142282566Y-45349929D02*
X142228691Y-45296054D01*
X142228691Y-45296054D02*
X142174816Y-45188304D01*
X142174816Y-45188304D02*
X142174816Y-45134429D01*
X142174816Y-45134429D02*
X142363378Y-44945868D01*
X142363378Y-44945868D02*
X142471128Y-45053617D01*
X141878505Y-44945868D02*
X142444190Y-44380182D01*
X142444190Y-44380182D02*
X142228691Y-44164683D01*
X142228691Y-44164683D02*
X142147879Y-44137746D01*
X142147879Y-44137746D02*
X142094004Y-44137746D01*
X142094004Y-44137746D02*
X142013192Y-44164683D01*
X142013192Y-44164683D02*
X141932380Y-44245495D01*
X141932380Y-44245495D02*
X141905442Y-44326307D01*
X141905442Y-44326307D02*
X141905442Y-44380182D01*
X141905442Y-44380182D02*
X141932380Y-44460994D01*
X141932380Y-44460994D02*
X142147879Y-44676494D01*
X141932380Y-43868372D02*
X141555256Y-43491248D01*
X141555256Y-43491248D02*
X141232007Y-44299370D01*
X143310001Y-62755868D02*
X143390814Y-62782805D01*
X143390814Y-62782805D02*
X143471626Y-62863618D01*
X143471626Y-62863618D02*
X143525501Y-62971367D01*
X143525501Y-62971367D02*
X143525501Y-63079117D01*
X143525501Y-63079117D02*
X143498563Y-63159929D01*
X143498563Y-63159929D02*
X143417751Y-63294616D01*
X143417751Y-63294616D02*
X143336939Y-63375428D01*
X143336939Y-63375428D02*
X143202252Y-63456241D01*
X143202252Y-63456241D02*
X143121439Y-63483178D01*
X143121439Y-63483178D02*
X143013690Y-63483178D01*
X143013690Y-63483178D02*
X142905940Y-63429303D01*
X142905940Y-63429303D02*
X142852065Y-63375428D01*
X142852065Y-63375428D02*
X142798191Y-63267679D01*
X142798191Y-63267679D02*
X142798191Y-63213804D01*
X142798191Y-63213804D02*
X142986752Y-63025242D01*
X142986752Y-63025242D02*
X143094502Y-63132992D01*
X142501879Y-63025242D02*
X143067565Y-62459557D01*
X143067565Y-62459557D02*
X142852065Y-62244057D01*
X142852065Y-62244057D02*
X142771253Y-62217120D01*
X142771253Y-62217120D02*
X142717378Y-62217120D01*
X142717378Y-62217120D02*
X142636566Y-62244057D01*
X142636566Y-62244057D02*
X142555754Y-62324870D01*
X142555754Y-62324870D02*
X142528817Y-62405682D01*
X142528817Y-62405682D02*
X142528817Y-62459557D01*
X142528817Y-62459557D02*
X142555754Y-62540369D01*
X142555754Y-62540369D02*
X142771253Y-62755868D01*
X141639882Y-62163245D02*
X141963131Y-62486494D01*
X141801507Y-62324870D02*
X142367192Y-61759184D01*
X142367192Y-61759184D02*
X142340255Y-61893871D01*
X142340255Y-61893871D02*
X142340255Y-62001621D01*
X142340255Y-62001621D02*
X142367192Y-62082433D01*
X142017006Y-61408998D02*
X141666820Y-61058812D01*
X141666820Y-61058812D02*
X141639882Y-61462873D01*
X141639882Y-61462873D02*
X141559070Y-61382060D01*
X141559070Y-61382060D02*
X141478258Y-61355123D01*
X141478258Y-61355123D02*
X141424383Y-61355123D01*
X141424383Y-61355123D02*
X141343571Y-61382060D01*
X141343571Y-61382060D02*
X141208884Y-61516747D01*
X141208884Y-61516747D02*
X141181946Y-61597560D01*
X141181946Y-61597560D02*
X141181946Y-61651434D01*
X141181946Y-61651434D02*
X141208884Y-61732247D01*
X141208884Y-61732247D02*
X141370508Y-61893871D01*
X141370508Y-61893871D02*
X141451320Y-61920808D01*
X141451320Y-61920808D02*
X141505195Y-61920808D01*
X142786627Y-21846494D02*
X142867439Y-21873431D01*
X142867439Y-21873431D02*
X142948251Y-21954243D01*
X142948251Y-21954243D02*
X143002126Y-22061993D01*
X143002126Y-22061993D02*
X143002126Y-22169742D01*
X143002126Y-22169742D02*
X142975189Y-22250555D01*
X142975189Y-22250555D02*
X142894376Y-22385242D01*
X142894376Y-22385242D02*
X142813564Y-22466054D01*
X142813564Y-22466054D02*
X142678877Y-22546866D01*
X142678877Y-22546866D02*
X142598065Y-22573803D01*
X142598065Y-22573803D02*
X142490315Y-22573803D01*
X142490315Y-22573803D02*
X142382566Y-22519929D01*
X142382566Y-22519929D02*
X142328691Y-22466054D01*
X142328691Y-22466054D02*
X142274816Y-22358304D01*
X142274816Y-22358304D02*
X142274816Y-22304429D01*
X142274816Y-22304429D02*
X142463378Y-22115868D01*
X142463378Y-22115868D02*
X142571128Y-22223617D01*
X141978505Y-22115868D02*
X142544190Y-21550182D01*
X142544190Y-21550182D02*
X142328691Y-21334683D01*
X142328691Y-21334683D02*
X142247879Y-21307746D01*
X142247879Y-21307746D02*
X142194004Y-21307746D01*
X142194004Y-21307746D02*
X142113192Y-21334683D01*
X142113192Y-21334683D02*
X142032380Y-21415495D01*
X142032380Y-21415495D02*
X142005442Y-21496307D01*
X142005442Y-21496307D02*
X142005442Y-21550182D01*
X142005442Y-21550182D02*
X142032380Y-21630994D01*
X142032380Y-21630994D02*
X142247879Y-21846494D01*
X141870755Y-20876747D02*
X141816880Y-20822872D01*
X141816880Y-20822872D02*
X141736068Y-20795935D01*
X141736068Y-20795935D02*
X141682193Y-20795935D01*
X141682193Y-20795935D02*
X141601381Y-20822872D01*
X141601381Y-20822872D02*
X141466694Y-20903685D01*
X141466694Y-20903685D02*
X141332007Y-21038372D01*
X141332007Y-21038372D02*
X141251195Y-21173059D01*
X141251195Y-21173059D02*
X141224258Y-21253871D01*
X141224258Y-21253871D02*
X141224258Y-21307746D01*
X141224258Y-21307746D02*
X141251195Y-21388558D01*
X141251195Y-21388558D02*
X141305070Y-21442433D01*
X141305070Y-21442433D02*
X141385882Y-21469370D01*
X141385882Y-21469370D02*
X141439757Y-21469370D01*
X141439757Y-21469370D02*
X141520569Y-21442433D01*
X141520569Y-21442433D02*
X141655256Y-21361620D01*
X141655256Y-21361620D02*
X141789943Y-21226933D01*
X141789943Y-21226933D02*
X141870755Y-21092246D01*
X141870755Y-21092246D02*
X141897693Y-21011434D01*
X141897693Y-21011434D02*
X141897693Y-20957559D01*
X141897693Y-20957559D02*
X141870755Y-20876747D01*
X142886627Y-24376494D02*
X142967439Y-24403431D01*
X142967439Y-24403431D02*
X143048251Y-24484243D01*
X143048251Y-24484243D02*
X143102126Y-24591993D01*
X143102126Y-24591993D02*
X143102126Y-24699742D01*
X143102126Y-24699742D02*
X143075189Y-24780555D01*
X143075189Y-24780555D02*
X142994376Y-24915242D01*
X142994376Y-24915242D02*
X142913564Y-24996054D01*
X142913564Y-24996054D02*
X142778877Y-25076866D01*
X142778877Y-25076866D02*
X142698065Y-25103803D01*
X142698065Y-25103803D02*
X142590315Y-25103803D01*
X142590315Y-25103803D02*
X142482566Y-25049929D01*
X142482566Y-25049929D02*
X142428691Y-24996054D01*
X142428691Y-24996054D02*
X142374816Y-24888304D01*
X142374816Y-24888304D02*
X142374816Y-24834429D01*
X142374816Y-24834429D02*
X142563378Y-24645868D01*
X142563378Y-24645868D02*
X142671128Y-24753617D01*
X142078505Y-24645868D02*
X142644190Y-24080182D01*
X142644190Y-24080182D02*
X142428691Y-23864683D01*
X142428691Y-23864683D02*
X142347879Y-23837746D01*
X142347879Y-23837746D02*
X142294004Y-23837746D01*
X142294004Y-23837746D02*
X142213192Y-23864683D01*
X142213192Y-23864683D02*
X142132380Y-23945495D01*
X142132380Y-23945495D02*
X142105442Y-24026307D01*
X142105442Y-24026307D02*
X142105442Y-24080182D01*
X142105442Y-24080182D02*
X142132380Y-24160994D01*
X142132380Y-24160994D02*
X142347879Y-24376494D01*
X141216508Y-23783871D02*
X141539757Y-24107120D01*
X141378132Y-23945495D02*
X141943818Y-23379810D01*
X141943818Y-23379810D02*
X141916880Y-23514497D01*
X141916880Y-23514497D02*
X141916880Y-23622246D01*
X141916880Y-23622246D02*
X141943818Y-23703059D01*
X117346593Y-22382585D02*
X116592346Y-22759709D01*
X116592346Y-22759709D02*
X116969470Y-22005462D01*
X116322972Y-21897712D02*
X116215223Y-21843838D01*
X116215223Y-21843838D02*
X116161348Y-21843838D01*
X116161348Y-21843838D02*
X116080536Y-21870775D01*
X116080536Y-21870775D02*
X115999723Y-21951587D01*
X115999723Y-21951587D02*
X115972786Y-22032399D01*
X115972786Y-22032399D02*
X115972786Y-22086274D01*
X115972786Y-22086274D02*
X115999723Y-22167086D01*
X115999723Y-22167086D02*
X116215223Y-22382586D01*
X116215223Y-22382586D02*
X116780908Y-21816900D01*
X116780908Y-21816900D02*
X116592346Y-21628338D01*
X116592346Y-21628338D02*
X116511534Y-21601401D01*
X116511534Y-21601401D02*
X116457659Y-21601401D01*
X116457659Y-21601401D02*
X116376847Y-21628338D01*
X116376847Y-21628338D02*
X116322972Y-21682213D01*
X116322972Y-21682213D02*
X116296035Y-21763025D01*
X116296035Y-21763025D02*
X116296035Y-21816900D01*
X116296035Y-21816900D02*
X116322972Y-21897712D01*
X116322972Y-21897712D02*
X116511534Y-22086274D01*
X116215223Y-21251215D02*
X115757287Y-21709151D01*
X115757287Y-21709151D02*
X115676475Y-21736088D01*
X115676475Y-21736088D02*
X115622600Y-21736088D01*
X115622600Y-21736088D02*
X115541788Y-21709151D01*
X115541788Y-21709151D02*
X115434038Y-21601401D01*
X115434038Y-21601401D02*
X115407101Y-21520589D01*
X115407101Y-21520589D02*
X115407101Y-21466714D01*
X115407101Y-21466714D02*
X115434038Y-21385902D01*
X115434038Y-21385902D02*
X115891974Y-20927966D01*
X115110789Y-21224277D02*
X115003040Y-21170403D01*
X115003040Y-21170403D02*
X114868353Y-21035716D01*
X114868353Y-21035716D02*
X114841415Y-20954903D01*
X114841415Y-20954903D02*
X114841415Y-20901029D01*
X114841415Y-20901029D02*
X114868353Y-20820216D01*
X114868353Y-20820216D02*
X114922228Y-20766342D01*
X114922228Y-20766342D02*
X115003040Y-20739404D01*
X115003040Y-20739404D02*
X115056915Y-20739404D01*
X115056915Y-20739404D02*
X115137727Y-20766342D01*
X115137727Y-20766342D02*
X115272414Y-20847154D01*
X115272414Y-20847154D02*
X115353226Y-20874091D01*
X115353226Y-20874091D02*
X115407101Y-20874091D01*
X115407101Y-20874091D02*
X115487913Y-20847154D01*
X115487913Y-20847154D02*
X115541788Y-20793279D01*
X115541788Y-20793279D02*
X115568725Y-20712467D01*
X115568725Y-20712467D02*
X115568725Y-20658592D01*
X115568725Y-20658592D02*
X115541788Y-20577780D01*
X115541788Y-20577780D02*
X115407101Y-20443093D01*
X115407101Y-20443093D02*
X115299351Y-20389218D01*
X142786627Y-32006494D02*
X142867439Y-32033431D01*
X142867439Y-32033431D02*
X142948251Y-32114243D01*
X142948251Y-32114243D02*
X143002126Y-32221993D01*
X143002126Y-32221993D02*
X143002126Y-32329742D01*
X143002126Y-32329742D02*
X142975189Y-32410555D01*
X142975189Y-32410555D02*
X142894376Y-32545242D01*
X142894376Y-32545242D02*
X142813564Y-32626054D01*
X142813564Y-32626054D02*
X142678877Y-32706866D01*
X142678877Y-32706866D02*
X142598065Y-32733803D01*
X142598065Y-32733803D02*
X142490315Y-32733803D01*
X142490315Y-32733803D02*
X142382566Y-32679929D01*
X142382566Y-32679929D02*
X142328691Y-32626054D01*
X142328691Y-32626054D02*
X142274816Y-32518304D01*
X142274816Y-32518304D02*
X142274816Y-32464429D01*
X142274816Y-32464429D02*
X142463378Y-32275868D01*
X142463378Y-32275868D02*
X142571128Y-32383617D01*
X141978505Y-32275868D02*
X142544190Y-31710182D01*
X142544190Y-31710182D02*
X142328691Y-31494683D01*
X142328691Y-31494683D02*
X142247879Y-31467746D01*
X142247879Y-31467746D02*
X142194004Y-31467746D01*
X142194004Y-31467746D02*
X142113192Y-31494683D01*
X142113192Y-31494683D02*
X142032380Y-31575495D01*
X142032380Y-31575495D02*
X142005442Y-31656307D01*
X142005442Y-31656307D02*
X142005442Y-31710182D01*
X142005442Y-31710182D02*
X142032380Y-31790994D01*
X142032380Y-31790994D02*
X142247879Y-32006494D01*
X142032380Y-31198372D02*
X141682193Y-30848185D01*
X141682193Y-30848185D02*
X141655256Y-31252246D01*
X141655256Y-31252246D02*
X141574444Y-31171434D01*
X141574444Y-31171434D02*
X141493632Y-31144497D01*
X141493632Y-31144497D02*
X141439757Y-31144497D01*
X141439757Y-31144497D02*
X141358945Y-31171434D01*
X141358945Y-31171434D02*
X141224258Y-31306121D01*
X141224258Y-31306121D02*
X141197320Y-31386933D01*
X141197320Y-31386933D02*
X141197320Y-31440808D01*
X141197320Y-31440808D02*
X141224258Y-31521620D01*
X141224258Y-31521620D02*
X141385882Y-31683245D01*
X141385882Y-31683245D02*
X141466694Y-31710182D01*
X141466694Y-31710182D02*
X141520569Y-31710182D01*
X117409876Y-32345868D02*
X117059690Y-31995682D01*
X117059690Y-31995682D02*
X117032752Y-32399743D01*
X117032752Y-32399743D02*
X116951940Y-32318931D01*
X116951940Y-32318931D02*
X116871128Y-32291993D01*
X116871128Y-32291993D02*
X116817253Y-32291993D01*
X116817253Y-32291993D02*
X116736441Y-32318931D01*
X116736441Y-32318931D02*
X116601754Y-32453618D01*
X116601754Y-32453618D02*
X116574817Y-32534430D01*
X116574817Y-32534430D02*
X116574817Y-32588305D01*
X116574817Y-32588305D02*
X116601754Y-32669117D01*
X116601754Y-32669117D02*
X116763378Y-32830741D01*
X116763378Y-32830741D02*
X116844191Y-32857679D01*
X116844191Y-32857679D02*
X116898065Y-32857679D01*
X116898065Y-31834057D02*
X116143818Y-32211181D01*
X116143818Y-32211181D02*
X116520942Y-31456934D01*
X116386255Y-31322247D02*
X116036069Y-30972061D01*
X116036069Y-30972061D02*
X116009131Y-31376122D01*
X116009131Y-31376122D02*
X115928319Y-31295309D01*
X115928319Y-31295309D02*
X115847507Y-31268372D01*
X115847507Y-31268372D02*
X115793632Y-31268372D01*
X115793632Y-31268372D02*
X115712820Y-31295309D01*
X115712820Y-31295309D02*
X115578133Y-31429996D01*
X115578133Y-31429996D02*
X115551195Y-31510809D01*
X115551195Y-31510809D02*
X115551195Y-31564683D01*
X115551195Y-31564683D02*
X115578133Y-31645496D01*
X115578133Y-31645496D02*
X115739757Y-31807120D01*
X115739757Y-31807120D02*
X115820569Y-31834057D01*
X115820569Y-31834057D02*
X115874444Y-31834057D01*
X143456001Y-57675868D02*
X143536814Y-57702805D01*
X143536814Y-57702805D02*
X143617626Y-57783618D01*
X143617626Y-57783618D02*
X143671501Y-57891367D01*
X143671501Y-57891367D02*
X143671501Y-57999117D01*
X143671501Y-57999117D02*
X143644563Y-58079929D01*
X143644563Y-58079929D02*
X143563751Y-58214616D01*
X143563751Y-58214616D02*
X143482939Y-58295428D01*
X143482939Y-58295428D02*
X143348252Y-58376241D01*
X143348252Y-58376241D02*
X143267439Y-58403178D01*
X143267439Y-58403178D02*
X143159690Y-58403178D01*
X143159690Y-58403178D02*
X143051940Y-58349303D01*
X143051940Y-58349303D02*
X142998065Y-58295428D01*
X142998065Y-58295428D02*
X142944191Y-58187679D01*
X142944191Y-58187679D02*
X142944191Y-58133804D01*
X142944191Y-58133804D02*
X143132752Y-57945242D01*
X143132752Y-57945242D02*
X143240502Y-58052992D01*
X142647879Y-57945242D02*
X143213565Y-57379557D01*
X143213565Y-57379557D02*
X142998065Y-57164057D01*
X142998065Y-57164057D02*
X142917253Y-57137120D01*
X142917253Y-57137120D02*
X142863378Y-57137120D01*
X142863378Y-57137120D02*
X142782566Y-57164057D01*
X142782566Y-57164057D02*
X142701754Y-57244870D01*
X142701754Y-57244870D02*
X142674817Y-57325682D01*
X142674817Y-57325682D02*
X142674817Y-57379557D01*
X142674817Y-57379557D02*
X142701754Y-57460369D01*
X142701754Y-57460369D02*
X142917253Y-57675868D01*
X141785882Y-57083245D02*
X142109131Y-57406494D01*
X141947507Y-57244870D02*
X142513192Y-56679184D01*
X142513192Y-56679184D02*
X142486255Y-56813871D01*
X142486255Y-56813871D02*
X142486255Y-56921621D01*
X142486255Y-56921621D02*
X142513192Y-57002433D01*
X141247134Y-56544497D02*
X141570383Y-56867746D01*
X141408759Y-56706121D02*
X141974444Y-56140436D01*
X141974444Y-56140436D02*
X141947507Y-56275123D01*
X141947507Y-56275123D02*
X141947507Y-56382873D01*
X141947507Y-56382873D02*
X141974444Y-56463685D01*
X117379250Y-24925242D02*
X116625003Y-25302366D01*
X116625003Y-25302366D02*
X117002126Y-24548118D01*
X116301754Y-24925242D02*
X116194004Y-24871367D01*
X116194004Y-24871367D02*
X116059317Y-24736680D01*
X116059317Y-24736680D02*
X116032380Y-24655868D01*
X116032380Y-24655868D02*
X116032380Y-24601993D01*
X116032380Y-24601993D02*
X116059317Y-24521181D01*
X116059317Y-24521181D02*
X116113192Y-24467306D01*
X116113192Y-24467306D02*
X116194004Y-24440369D01*
X116194004Y-24440369D02*
X116247879Y-24440369D01*
X116247879Y-24440369D02*
X116328691Y-24467306D01*
X116328691Y-24467306D02*
X116463378Y-24548118D01*
X116463378Y-24548118D02*
X116544191Y-24575056D01*
X116544191Y-24575056D02*
X116598065Y-24575056D01*
X116598065Y-24575056D02*
X116678878Y-24548118D01*
X116678878Y-24548118D02*
X116732752Y-24494244D01*
X116732752Y-24494244D02*
X116759690Y-24413431D01*
X116759690Y-24413431D02*
X116759690Y-24359557D01*
X116759690Y-24359557D02*
X116732752Y-24278744D01*
X116732752Y-24278744D02*
X116598065Y-24144057D01*
X116598065Y-24144057D02*
X116490316Y-24090183D01*
X115870755Y-24009370D02*
X115601381Y-24278744D01*
X116355629Y-23901621D02*
X115870755Y-24009370D01*
X115870755Y-24009370D02*
X115978505Y-23524497D01*
X115278133Y-23901621D02*
X115170383Y-23847746D01*
X115170383Y-23847746D02*
X115035696Y-23713059D01*
X115035696Y-23713059D02*
X115008759Y-23632247D01*
X115008759Y-23632247D02*
X115008759Y-23578372D01*
X115008759Y-23578372D02*
X115035696Y-23497560D01*
X115035696Y-23497560D02*
X115089571Y-23443685D01*
X115089571Y-23443685D02*
X115170383Y-23416748D01*
X115170383Y-23416748D02*
X115224258Y-23416748D01*
X115224258Y-23416748D02*
X115305070Y-23443685D01*
X115305070Y-23443685D02*
X115439757Y-23524497D01*
X115439757Y-23524497D02*
X115520569Y-23551435D01*
X115520569Y-23551435D02*
X115574444Y-23551435D01*
X115574444Y-23551435D02*
X115655256Y-23524497D01*
X115655256Y-23524497D02*
X115709131Y-23470622D01*
X115709131Y-23470622D02*
X115736069Y-23389810D01*
X115736069Y-23389810D02*
X115736069Y-23335935D01*
X115736069Y-23335935D02*
X115709131Y-23255123D01*
X115709131Y-23255123D02*
X115574444Y-23120436D01*
X115574444Y-23120436D02*
X115466695Y-23066561D01*
X117213564Y-52353431D02*
X117294376Y-52380368D01*
X117294376Y-52380368D02*
X117375188Y-52461180D01*
X117375188Y-52461180D02*
X117429063Y-52568930D01*
X117429063Y-52568930D02*
X117429063Y-52676680D01*
X117429063Y-52676680D02*
X117402126Y-52757492D01*
X117402126Y-52757492D02*
X117321314Y-52892179D01*
X117321314Y-52892179D02*
X117240501Y-52972991D01*
X117240501Y-52972991D02*
X117105814Y-53053803D01*
X117105814Y-53053803D02*
X117025002Y-53080741D01*
X117025002Y-53080741D02*
X116917253Y-53080741D01*
X116917253Y-53080741D02*
X116809503Y-53026866D01*
X116809503Y-53026866D02*
X116755628Y-52972991D01*
X116755628Y-52972991D02*
X116701753Y-52865241D01*
X116701753Y-52865241D02*
X116701753Y-52811367D01*
X116701753Y-52811367D02*
X116890315Y-52622805D01*
X116890315Y-52622805D02*
X116998065Y-52730554D01*
X116405442Y-52622805D02*
X116971127Y-52057119D01*
X116971127Y-52057119D02*
X116082193Y-52299556D01*
X116082193Y-52299556D02*
X116647879Y-51733871D01*
X115812819Y-52030182D02*
X116378505Y-51464497D01*
X116378505Y-51464497D02*
X116243818Y-51329810D01*
X116243818Y-51329810D02*
X116136068Y-51275935D01*
X116136068Y-51275935D02*
X116028319Y-51275935D01*
X116028319Y-51275935D02*
X115947506Y-51302872D01*
X115947506Y-51302872D02*
X115812819Y-51383685D01*
X115812819Y-51383685D02*
X115732007Y-51464497D01*
X115732007Y-51464497D02*
X115651195Y-51599184D01*
X115651195Y-51599184D02*
X115624258Y-51679996D01*
X115624258Y-51679996D02*
X115624258Y-51787746D01*
X115624258Y-51787746D02*
X115678132Y-51895495D01*
X115678132Y-51895495D02*
X115812819Y-52030182D01*
X143310001Y-55135868D02*
X143390814Y-55162805D01*
X143390814Y-55162805D02*
X143471626Y-55243618D01*
X143471626Y-55243618D02*
X143525501Y-55351367D01*
X143525501Y-55351367D02*
X143525501Y-55459117D01*
X143525501Y-55459117D02*
X143498563Y-55539929D01*
X143498563Y-55539929D02*
X143417751Y-55674616D01*
X143417751Y-55674616D02*
X143336939Y-55755428D01*
X143336939Y-55755428D02*
X143202252Y-55836241D01*
X143202252Y-55836241D02*
X143121439Y-55863178D01*
X143121439Y-55863178D02*
X143013690Y-55863178D01*
X143013690Y-55863178D02*
X142905940Y-55809303D01*
X142905940Y-55809303D02*
X142852065Y-55755428D01*
X142852065Y-55755428D02*
X142798191Y-55647679D01*
X142798191Y-55647679D02*
X142798191Y-55593804D01*
X142798191Y-55593804D02*
X142986752Y-55405242D01*
X142986752Y-55405242D02*
X143094502Y-55512992D01*
X142501879Y-55405242D02*
X143067565Y-54839557D01*
X143067565Y-54839557D02*
X142852065Y-54624057D01*
X142852065Y-54624057D02*
X142771253Y-54597120D01*
X142771253Y-54597120D02*
X142717378Y-54597120D01*
X142717378Y-54597120D02*
X142636566Y-54624057D01*
X142636566Y-54624057D02*
X142555754Y-54704870D01*
X142555754Y-54704870D02*
X142528817Y-54785682D01*
X142528817Y-54785682D02*
X142528817Y-54839557D01*
X142528817Y-54839557D02*
X142555754Y-54920369D01*
X142555754Y-54920369D02*
X142771253Y-55135868D01*
X141639882Y-54543245D02*
X141963131Y-54866494D01*
X141801507Y-54704870D02*
X142367192Y-54139184D01*
X142367192Y-54139184D02*
X142340255Y-54273871D01*
X142340255Y-54273871D02*
X142340255Y-54381621D01*
X142340255Y-54381621D02*
X142367192Y-54462433D01*
X141855381Y-53627373D02*
X141801507Y-53573499D01*
X141801507Y-53573499D02*
X141720694Y-53546561D01*
X141720694Y-53546561D02*
X141666820Y-53546561D01*
X141666820Y-53546561D02*
X141586007Y-53573499D01*
X141586007Y-53573499D02*
X141451320Y-53654311D01*
X141451320Y-53654311D02*
X141316633Y-53788998D01*
X141316633Y-53788998D02*
X141235821Y-53923685D01*
X141235821Y-53923685D02*
X141208884Y-54004497D01*
X141208884Y-54004497D02*
X141208884Y-54058372D01*
X141208884Y-54058372D02*
X141235821Y-54139184D01*
X141235821Y-54139184D02*
X141289696Y-54193059D01*
X141289696Y-54193059D02*
X141370508Y-54219996D01*
X141370508Y-54219996D02*
X141424383Y-54219996D01*
X141424383Y-54219996D02*
X141505195Y-54193059D01*
X141505195Y-54193059D02*
X141639882Y-54112247D01*
X141639882Y-54112247D02*
X141774569Y-53977560D01*
X141774569Y-53977560D02*
X141855381Y-53842873D01*
X141855381Y-53842873D02*
X141882319Y-53762060D01*
X141882319Y-53762060D02*
X141882319Y-53708186D01*
X141882319Y-53708186D02*
X141855381Y-53627373D01*
X143356001Y-67835868D02*
X143436814Y-67862805D01*
X143436814Y-67862805D02*
X143517626Y-67943618D01*
X143517626Y-67943618D02*
X143571501Y-68051367D01*
X143571501Y-68051367D02*
X143571501Y-68159117D01*
X143571501Y-68159117D02*
X143544563Y-68239929D01*
X143544563Y-68239929D02*
X143463751Y-68374616D01*
X143463751Y-68374616D02*
X143382939Y-68455428D01*
X143382939Y-68455428D02*
X143248252Y-68536241D01*
X143248252Y-68536241D02*
X143167439Y-68563178D01*
X143167439Y-68563178D02*
X143059690Y-68563178D01*
X143059690Y-68563178D02*
X142951940Y-68509303D01*
X142951940Y-68509303D02*
X142898065Y-68455428D01*
X142898065Y-68455428D02*
X142844191Y-68347679D01*
X142844191Y-68347679D02*
X142844191Y-68293804D01*
X142844191Y-68293804D02*
X143032752Y-68105242D01*
X143032752Y-68105242D02*
X143140502Y-68212992D01*
X142547879Y-68105242D02*
X143113565Y-67539557D01*
X143113565Y-67539557D02*
X142898065Y-67324057D01*
X142898065Y-67324057D02*
X142817253Y-67297120D01*
X142817253Y-67297120D02*
X142763378Y-67297120D01*
X142763378Y-67297120D02*
X142682566Y-67324057D01*
X142682566Y-67324057D02*
X142601754Y-67404870D01*
X142601754Y-67404870D02*
X142574817Y-67485682D01*
X142574817Y-67485682D02*
X142574817Y-67539557D01*
X142574817Y-67539557D02*
X142601754Y-67620369D01*
X142601754Y-67620369D02*
X142817253Y-67835868D01*
X141685882Y-67243245D02*
X142009131Y-67566494D01*
X141847507Y-67404870D02*
X142413192Y-66839184D01*
X142413192Y-66839184D02*
X142386255Y-66973871D01*
X142386255Y-66973871D02*
X142386255Y-67081621D01*
X142386255Y-67081621D02*
X142413192Y-67162433D01*
X141578133Y-66381248D02*
X141201009Y-66758372D01*
X141928319Y-66300436D02*
X141658945Y-66839184D01*
X141658945Y-66839184D02*
X141308759Y-66488998D01*
X117377592Y-29813584D02*
X117027406Y-29463398D01*
X117027406Y-29463398D02*
X117000468Y-29867459D01*
X117000468Y-29867459D02*
X116919656Y-29786646D01*
X116919656Y-29786646D02*
X116838844Y-29759709D01*
X116838844Y-29759709D02*
X116784969Y-29759709D01*
X116784969Y-29759709D02*
X116704157Y-29786646D01*
X116704157Y-29786646D02*
X116569470Y-29921333D01*
X116569470Y-29921333D02*
X116542532Y-30002146D01*
X116542532Y-30002146D02*
X116542532Y-30056020D01*
X116542532Y-30056020D02*
X116569470Y-30136833D01*
X116569470Y-30136833D02*
X116731094Y-30298457D01*
X116731094Y-30298457D02*
X116811906Y-30325394D01*
X116811906Y-30325394D02*
X116865781Y-30325394D01*
X116865781Y-29301773D02*
X116111534Y-29678897D01*
X116111534Y-29678897D02*
X116488657Y-28924649D01*
X116353971Y-28789963D02*
X116003784Y-28439776D01*
X116003784Y-28439776D02*
X115976847Y-28843837D01*
X115976847Y-28843837D02*
X115896035Y-28763025D01*
X115896035Y-28763025D02*
X115815223Y-28736088D01*
X115815223Y-28736088D02*
X115761348Y-28736088D01*
X115761348Y-28736088D02*
X115680535Y-28763025D01*
X115680535Y-28763025D02*
X115545848Y-28897712D01*
X115545848Y-28897712D02*
X115518911Y-28978524D01*
X115518911Y-28978524D02*
X115518911Y-29032399D01*
X115518911Y-29032399D02*
X115545848Y-29113211D01*
X115545848Y-29113211D02*
X115707473Y-29274836D01*
X115707473Y-29274836D02*
X115788285Y-29301773D01*
X115788285Y-29301773D02*
X115842160Y-29301773D01*
X115276474Y-28951587D02*
X114845476Y-28520588D01*
X115060975Y-28035715D02*
X114872413Y-27847153D01*
X114495290Y-28062652D02*
X114764664Y-28332026D01*
X114764664Y-28332026D02*
X115330349Y-27766341D01*
X115330349Y-27766341D02*
X115060975Y-27496967D01*
X114252853Y-27820215D02*
X114818538Y-27254530D01*
X114818538Y-27254530D02*
X113929604Y-27496967D01*
X113929604Y-27496967D02*
X114495289Y-26931281D01*
X117202001Y-42445868D02*
X117282814Y-42472805D01*
X117282814Y-42472805D02*
X117363626Y-42553618D01*
X117363626Y-42553618D02*
X117417501Y-42661367D01*
X117417501Y-42661367D02*
X117417501Y-42769117D01*
X117417501Y-42769117D02*
X117390563Y-42849929D01*
X117390563Y-42849929D02*
X117309751Y-42984616D01*
X117309751Y-42984616D02*
X117228939Y-43065428D01*
X117228939Y-43065428D02*
X117094252Y-43146241D01*
X117094252Y-43146241D02*
X117013439Y-43173178D01*
X117013439Y-43173178D02*
X116905690Y-43173178D01*
X116905690Y-43173178D02*
X116797940Y-43119303D01*
X116797940Y-43119303D02*
X116744065Y-43065428D01*
X116744065Y-43065428D02*
X116690191Y-42957679D01*
X116690191Y-42957679D02*
X116690191Y-42903804D01*
X116690191Y-42903804D02*
X116878752Y-42715242D01*
X116878752Y-42715242D02*
X116986502Y-42822992D01*
X116393879Y-42715242D02*
X116959565Y-42149557D01*
X116959565Y-42149557D02*
X116744065Y-41934057D01*
X116744065Y-41934057D02*
X116663253Y-41907120D01*
X116663253Y-41907120D02*
X116609378Y-41907120D01*
X116609378Y-41907120D02*
X116528566Y-41934057D01*
X116528566Y-41934057D02*
X116447754Y-42014870D01*
X116447754Y-42014870D02*
X116420817Y-42095682D01*
X116420817Y-42095682D02*
X116420817Y-42149557D01*
X116420817Y-42149557D02*
X116447754Y-42230369D01*
X116447754Y-42230369D02*
X116663253Y-42445868D01*
X116366942Y-41664683D02*
X116366942Y-41610809D01*
X116366942Y-41610809D02*
X116340004Y-41529996D01*
X116340004Y-41529996D02*
X116205317Y-41395309D01*
X116205317Y-41395309D02*
X116124505Y-41368372D01*
X116124505Y-41368372D02*
X116070630Y-41368372D01*
X116070630Y-41368372D02*
X115989818Y-41395309D01*
X115989818Y-41395309D02*
X115935943Y-41449184D01*
X115935943Y-41449184D02*
X115882069Y-41556934D01*
X115882069Y-41556934D02*
X115882069Y-42203431D01*
X115882069Y-42203431D02*
X115531882Y-41853245D01*
X115909006Y-41098998D02*
X115531882Y-40721874D01*
X115531882Y-40721874D02*
X115208633Y-41529996D01*
X142813564Y-52353431D02*
X142894376Y-52380368D01*
X142894376Y-52380368D02*
X142975188Y-52461180D01*
X142975188Y-52461180D02*
X143029063Y-52568930D01*
X143029063Y-52568930D02*
X143029063Y-52676680D01*
X143029063Y-52676680D02*
X143002126Y-52757492D01*
X143002126Y-52757492D02*
X142921314Y-52892179D01*
X142921314Y-52892179D02*
X142840501Y-52972991D01*
X142840501Y-52972991D02*
X142705814Y-53053803D01*
X142705814Y-53053803D02*
X142625002Y-53080741D01*
X142625002Y-53080741D02*
X142517253Y-53080741D01*
X142517253Y-53080741D02*
X142409503Y-53026866D01*
X142409503Y-53026866D02*
X142355628Y-52972991D01*
X142355628Y-52972991D02*
X142301753Y-52865241D01*
X142301753Y-52865241D02*
X142301753Y-52811367D01*
X142301753Y-52811367D02*
X142490315Y-52622805D01*
X142490315Y-52622805D02*
X142598065Y-52730554D01*
X142005442Y-52622805D02*
X142571127Y-52057119D01*
X142571127Y-52057119D02*
X141682193Y-52299556D01*
X141682193Y-52299556D02*
X142247879Y-51733871D01*
X141412819Y-52030182D02*
X141978505Y-51464497D01*
X141978505Y-51464497D02*
X141843818Y-51329810D01*
X141843818Y-51329810D02*
X141736068Y-51275935D01*
X141736068Y-51275935D02*
X141628319Y-51275935D01*
X141628319Y-51275935D02*
X141547506Y-51302872D01*
X141547506Y-51302872D02*
X141412819Y-51383685D01*
X141412819Y-51383685D02*
X141332007Y-51464497D01*
X141332007Y-51464497D02*
X141251195Y-51599184D01*
X141251195Y-51599184D02*
X141224258Y-51679996D01*
X141224258Y-51679996D02*
X141224258Y-51787746D01*
X141224258Y-51787746D02*
X141278132Y-51895495D01*
X141278132Y-51895495D02*
X141412819Y-52030182D01*
X117202001Y-67835868D02*
X117282814Y-67862805D01*
X117282814Y-67862805D02*
X117363626Y-67943618D01*
X117363626Y-67943618D02*
X117417501Y-68051367D01*
X117417501Y-68051367D02*
X117417501Y-68159117D01*
X117417501Y-68159117D02*
X117390563Y-68239929D01*
X117390563Y-68239929D02*
X117309751Y-68374616D01*
X117309751Y-68374616D02*
X117228939Y-68455428D01*
X117228939Y-68455428D02*
X117094252Y-68536241D01*
X117094252Y-68536241D02*
X117013439Y-68563178D01*
X117013439Y-68563178D02*
X116905690Y-68563178D01*
X116905690Y-68563178D02*
X116797940Y-68509303D01*
X116797940Y-68509303D02*
X116744065Y-68455428D01*
X116744065Y-68455428D02*
X116690191Y-68347679D01*
X116690191Y-68347679D02*
X116690191Y-68293804D01*
X116690191Y-68293804D02*
X116878752Y-68105242D01*
X116878752Y-68105242D02*
X116986502Y-68212992D01*
X116393879Y-68105242D02*
X116959565Y-67539557D01*
X116959565Y-67539557D02*
X116744065Y-67324057D01*
X116744065Y-67324057D02*
X116663253Y-67297120D01*
X116663253Y-67297120D02*
X116609378Y-67297120D01*
X116609378Y-67297120D02*
X116528566Y-67324057D01*
X116528566Y-67324057D02*
X116447754Y-67404870D01*
X116447754Y-67404870D02*
X116420817Y-67485682D01*
X116420817Y-67485682D02*
X116420817Y-67539557D01*
X116420817Y-67539557D02*
X116447754Y-67620369D01*
X116447754Y-67620369D02*
X116663253Y-67835868D01*
X115531882Y-67243245D02*
X115855131Y-67566494D01*
X115693507Y-67404870D02*
X116259192Y-66839184D01*
X116259192Y-66839184D02*
X116232255Y-66973871D01*
X116232255Y-66973871D02*
X116232255Y-67081621D01*
X116232255Y-67081621D02*
X116259192Y-67162433D01*
X115909006Y-66488998D02*
X115531882Y-66111874D01*
X115531882Y-66111874D02*
X115208633Y-66919996D01*
X142813564Y-26953431D02*
X142894376Y-26980368D01*
X142894376Y-26980368D02*
X142975188Y-27061180D01*
X142975188Y-27061180D02*
X143029063Y-27168930D01*
X143029063Y-27168930D02*
X143029063Y-27276680D01*
X143029063Y-27276680D02*
X143002126Y-27357492D01*
X143002126Y-27357492D02*
X142921314Y-27492179D01*
X142921314Y-27492179D02*
X142840501Y-27572991D01*
X142840501Y-27572991D02*
X142705814Y-27653803D01*
X142705814Y-27653803D02*
X142625002Y-27680741D01*
X142625002Y-27680741D02*
X142517253Y-27680741D01*
X142517253Y-27680741D02*
X142409503Y-27626866D01*
X142409503Y-27626866D02*
X142355628Y-27572991D01*
X142355628Y-27572991D02*
X142301753Y-27465241D01*
X142301753Y-27465241D02*
X142301753Y-27411367D01*
X142301753Y-27411367D02*
X142490315Y-27222805D01*
X142490315Y-27222805D02*
X142598065Y-27330554D01*
X142005442Y-27222805D02*
X142571127Y-26657119D01*
X142571127Y-26657119D02*
X141682193Y-26899556D01*
X141682193Y-26899556D02*
X142247879Y-26333871D01*
X141412819Y-26630182D02*
X141978505Y-26064497D01*
X141978505Y-26064497D02*
X141843818Y-25929810D01*
X141843818Y-25929810D02*
X141736068Y-25875935D01*
X141736068Y-25875935D02*
X141628319Y-25875935D01*
X141628319Y-25875935D02*
X141547506Y-25902872D01*
X141547506Y-25902872D02*
X141412819Y-25983685D01*
X141412819Y-25983685D02*
X141332007Y-26064497D01*
X141332007Y-26064497D02*
X141251195Y-26199184D01*
X141251195Y-26199184D02*
X141224258Y-26279996D01*
X141224258Y-26279996D02*
X141224258Y-26387746D01*
X141224258Y-26387746D02*
X141278132Y-26495495D01*
X141278132Y-26495495D02*
X141412819Y-26630182D01*
X117213564Y-26953431D02*
X117294376Y-26980368D01*
X117294376Y-26980368D02*
X117375188Y-27061180D01*
X117375188Y-27061180D02*
X117429063Y-27168930D01*
X117429063Y-27168930D02*
X117429063Y-27276680D01*
X117429063Y-27276680D02*
X117402126Y-27357492D01*
X117402126Y-27357492D02*
X117321314Y-27492179D01*
X117321314Y-27492179D02*
X117240501Y-27572991D01*
X117240501Y-27572991D02*
X117105814Y-27653803D01*
X117105814Y-27653803D02*
X117025002Y-27680741D01*
X117025002Y-27680741D02*
X116917253Y-27680741D01*
X116917253Y-27680741D02*
X116809503Y-27626866D01*
X116809503Y-27626866D02*
X116755628Y-27572991D01*
X116755628Y-27572991D02*
X116701753Y-27465241D01*
X116701753Y-27465241D02*
X116701753Y-27411367D01*
X116701753Y-27411367D02*
X116890315Y-27222805D01*
X116890315Y-27222805D02*
X116998065Y-27330554D01*
X116405442Y-27222805D02*
X116971127Y-26657119D01*
X116971127Y-26657119D02*
X116082193Y-26899556D01*
X116082193Y-26899556D02*
X116647879Y-26333871D01*
X115812819Y-26630182D02*
X116378505Y-26064497D01*
X116378505Y-26064497D02*
X116243818Y-25929810D01*
X116243818Y-25929810D02*
X116136068Y-25875935D01*
X116136068Y-25875935D02*
X116028319Y-25875935D01*
X116028319Y-25875935D02*
X115947506Y-25902872D01*
X115947506Y-25902872D02*
X115812819Y-25983685D01*
X115812819Y-25983685D02*
X115732007Y-26064497D01*
X115732007Y-26064497D02*
X115651195Y-26199184D01*
X115651195Y-26199184D02*
X115624258Y-26279996D01*
X115624258Y-26279996D02*
X115624258Y-26387746D01*
X115624258Y-26387746D02*
X115678132Y-26495495D01*
X115678132Y-26495495D02*
X115812819Y-26630182D01*
X117144935Y-35389049D02*
X116875561Y-35119675D01*
X117037186Y-35604549D02*
X117414309Y-34850301D01*
X117414309Y-34850301D02*
X116660062Y-35227425D01*
X116471500Y-35038863D02*
X117037186Y-34473178D01*
X117037186Y-34473178D02*
X116902499Y-34338491D01*
X116902499Y-34338491D02*
X116794749Y-34284616D01*
X116794749Y-34284616D02*
X116687000Y-34284616D01*
X116687000Y-34284616D02*
X116606187Y-34311553D01*
X116606187Y-34311553D02*
X116471500Y-34392366D01*
X116471500Y-34392366D02*
X116390688Y-34473178D01*
X116390688Y-34473178D02*
X116309876Y-34607865D01*
X116309876Y-34607865D02*
X116282939Y-34688677D01*
X116282939Y-34688677D02*
X116282939Y-34796427D01*
X116282939Y-34796427D02*
X116336813Y-34904176D01*
X116336813Y-34904176D02*
X116471500Y-35038863D01*
X115636441Y-34096054D02*
X115636441Y-34149929D01*
X115636441Y-34149929D02*
X115690316Y-34257679D01*
X115690316Y-34257679D02*
X115744191Y-34311553D01*
X115744191Y-34311553D02*
X115851940Y-34365428D01*
X115851940Y-34365428D02*
X115959690Y-34365428D01*
X115959690Y-34365428D02*
X116040502Y-34338491D01*
X116040502Y-34338491D02*
X116175189Y-34257679D01*
X116175189Y-34257679D02*
X116256001Y-34176866D01*
X116256001Y-34176866D02*
X116336813Y-34042179D01*
X116336813Y-34042179D02*
X116363751Y-33961367D01*
X116363751Y-33961367D02*
X116363751Y-33853618D01*
X116363751Y-33853618D02*
X116309876Y-33745868D01*
X116309876Y-33745868D02*
X116256001Y-33691993D01*
X116256001Y-33691993D02*
X116148252Y-33638118D01*
X116148252Y-33638118D02*
X116094377Y-33638118D01*
X115420942Y-34096054D02*
X114989943Y-33665056D01*
X115555629Y-32991621D02*
X114801381Y-33368744D01*
X114801381Y-33368744D02*
X115178505Y-32614497D01*
X114101009Y-32668372D02*
X114558945Y-32587560D01*
X114424258Y-32991621D02*
X114989943Y-32425935D01*
X114989943Y-32425935D02*
X114774444Y-32210436D01*
X114774444Y-32210436D02*
X114693632Y-32183499D01*
X114693632Y-32183499D02*
X114639757Y-32183499D01*
X114639757Y-32183499D02*
X114558945Y-32210436D01*
X114558945Y-32210436D02*
X114478133Y-32291248D01*
X114478133Y-32291248D02*
X114451195Y-32372061D01*
X114451195Y-32372061D02*
X114451195Y-32425935D01*
X114451195Y-32425935D02*
X114478133Y-32506748D01*
X114478133Y-32506748D02*
X114693632Y-32722247D01*
X114154884Y-32129624D02*
X113966322Y-31941062D01*
X113589199Y-32156561D02*
X113858573Y-32425935D01*
X113858573Y-32425935D02*
X114424258Y-31860250D01*
X114424258Y-31860250D02*
X114154884Y-31590876D01*
X113454511Y-31429251D02*
X113643073Y-31617813D01*
X113346762Y-31914125D02*
X113912447Y-31348439D01*
X113912447Y-31348439D02*
X113643073Y-31079065D01*
X117202001Y-70375868D02*
X117282814Y-70402805D01*
X117282814Y-70402805D02*
X117363626Y-70483618D01*
X117363626Y-70483618D02*
X117417501Y-70591367D01*
X117417501Y-70591367D02*
X117417501Y-70699117D01*
X117417501Y-70699117D02*
X117390563Y-70779929D01*
X117390563Y-70779929D02*
X117309751Y-70914616D01*
X117309751Y-70914616D02*
X117228939Y-70995428D01*
X117228939Y-70995428D02*
X117094252Y-71076241D01*
X117094252Y-71076241D02*
X117013439Y-71103178D01*
X117013439Y-71103178D02*
X116905690Y-71103178D01*
X116905690Y-71103178D02*
X116797940Y-71049303D01*
X116797940Y-71049303D02*
X116744065Y-70995428D01*
X116744065Y-70995428D02*
X116690191Y-70887679D01*
X116690191Y-70887679D02*
X116690191Y-70833804D01*
X116690191Y-70833804D02*
X116878752Y-70645242D01*
X116878752Y-70645242D02*
X116986502Y-70752992D01*
X116393879Y-70645242D02*
X116959565Y-70079557D01*
X116959565Y-70079557D02*
X116744065Y-69864057D01*
X116744065Y-69864057D02*
X116663253Y-69837120D01*
X116663253Y-69837120D02*
X116609378Y-69837120D01*
X116609378Y-69837120D02*
X116528566Y-69864057D01*
X116528566Y-69864057D02*
X116447754Y-69944870D01*
X116447754Y-69944870D02*
X116420817Y-70025682D01*
X116420817Y-70025682D02*
X116420817Y-70079557D01*
X116420817Y-70079557D02*
X116447754Y-70160369D01*
X116447754Y-70160369D02*
X116663253Y-70375868D01*
X115531882Y-69783245D02*
X115855131Y-70106494D01*
X115693507Y-69944870D02*
X116259192Y-69379184D01*
X116259192Y-69379184D02*
X116232255Y-69513871D01*
X116232255Y-69513871D02*
X116232255Y-69621621D01*
X116232255Y-69621621D02*
X116259192Y-69702433D01*
X115612694Y-68732686D02*
X115720444Y-68840436D01*
X115720444Y-68840436D02*
X115747381Y-68921248D01*
X115747381Y-68921248D02*
X115747381Y-68975123D01*
X115747381Y-68975123D02*
X115720444Y-69109810D01*
X115720444Y-69109810D02*
X115639632Y-69244497D01*
X115639632Y-69244497D02*
X115424133Y-69459996D01*
X115424133Y-69459996D02*
X115343320Y-69486934D01*
X115343320Y-69486934D02*
X115289446Y-69486934D01*
X115289446Y-69486934D02*
X115208633Y-69459996D01*
X115208633Y-69459996D02*
X115100884Y-69352247D01*
X115100884Y-69352247D02*
X115073946Y-69271434D01*
X115073946Y-69271434D02*
X115073946Y-69217560D01*
X115073946Y-69217560D02*
X115100884Y-69136747D01*
X115100884Y-69136747D02*
X115235571Y-69002060D01*
X115235571Y-69002060D02*
X115316383Y-68975123D01*
X115316383Y-68975123D02*
X115370258Y-68975123D01*
X115370258Y-68975123D02*
X115451070Y-69002060D01*
X115451070Y-69002060D02*
X115558820Y-69109810D01*
X115558820Y-69109810D02*
X115585757Y-69190622D01*
X115585757Y-69190622D02*
X115585757Y-69244497D01*
X115585757Y-69244497D02*
X115558820Y-69325309D01*
X136809524Y-72379200D02*
X136695238Y-72417295D01*
X136695238Y-72417295D02*
X136504762Y-72417295D01*
X136504762Y-72417295D02*
X136428571Y-72379200D01*
X136428571Y-72379200D02*
X136390476Y-72341104D01*
X136390476Y-72341104D02*
X136352381Y-72264914D01*
X136352381Y-72264914D02*
X136352381Y-72188723D01*
X136352381Y-72188723D02*
X136390476Y-72112533D01*
X136390476Y-72112533D02*
X136428571Y-72074438D01*
X136428571Y-72074438D02*
X136504762Y-72036342D01*
X136504762Y-72036342D02*
X136657143Y-71998247D01*
X136657143Y-71998247D02*
X136733333Y-71960152D01*
X136733333Y-71960152D02*
X136771428Y-71922057D01*
X136771428Y-71922057D02*
X136809524Y-71845866D01*
X136809524Y-71845866D02*
X136809524Y-71769676D01*
X136809524Y-71769676D02*
X136771428Y-71693485D01*
X136771428Y-71693485D02*
X136733333Y-71655390D01*
X136733333Y-71655390D02*
X136657143Y-71617295D01*
X136657143Y-71617295D02*
X136466666Y-71617295D01*
X136466666Y-71617295D02*
X136352381Y-71655390D01*
X136085714Y-71617295D02*
X135895238Y-72417295D01*
X135895238Y-72417295D02*
X135742857Y-71845866D01*
X135742857Y-71845866D02*
X135590476Y-72417295D01*
X135590476Y-72417295D02*
X135400000Y-71617295D01*
X134638094Y-72341104D02*
X134676190Y-72379200D01*
X134676190Y-72379200D02*
X134790475Y-72417295D01*
X134790475Y-72417295D02*
X134866666Y-72417295D01*
X134866666Y-72417295D02*
X134980952Y-72379200D01*
X134980952Y-72379200D02*
X135057142Y-72303009D01*
X135057142Y-72303009D02*
X135095237Y-72226819D01*
X135095237Y-72226819D02*
X135133333Y-72074438D01*
X135133333Y-72074438D02*
X135133333Y-71960152D01*
X135133333Y-71960152D02*
X135095237Y-71807771D01*
X135095237Y-71807771D02*
X135057142Y-71731580D01*
X135057142Y-71731580D02*
X134980952Y-71655390D01*
X134980952Y-71655390D02*
X134866666Y-71617295D01*
X134866666Y-71617295D02*
X134790475Y-71617295D01*
X134790475Y-71617295D02*
X134676190Y-71655390D01*
X134676190Y-71655390D02*
X134638094Y-71693485D01*
X133914285Y-72417295D02*
X134295237Y-72417295D01*
X134295237Y-72417295D02*
X134295237Y-71617295D01*
X133647618Y-72417295D02*
X133647618Y-71617295D01*
X133190475Y-72417295D02*
X133533333Y-71960152D01*
X133190475Y-71617295D02*
X133647618Y-72074438D01*
X142786627Y-47246494D02*
X142867439Y-47273431D01*
X142867439Y-47273431D02*
X142948251Y-47354243D01*
X142948251Y-47354243D02*
X143002126Y-47461993D01*
X143002126Y-47461993D02*
X143002126Y-47569742D01*
X143002126Y-47569742D02*
X142975189Y-47650555D01*
X142975189Y-47650555D02*
X142894376Y-47785242D01*
X142894376Y-47785242D02*
X142813564Y-47866054D01*
X142813564Y-47866054D02*
X142678877Y-47946866D01*
X142678877Y-47946866D02*
X142598065Y-47973803D01*
X142598065Y-47973803D02*
X142490315Y-47973803D01*
X142490315Y-47973803D02*
X142382566Y-47919929D01*
X142382566Y-47919929D02*
X142328691Y-47866054D01*
X142328691Y-47866054D02*
X142274816Y-47758304D01*
X142274816Y-47758304D02*
X142274816Y-47704429D01*
X142274816Y-47704429D02*
X142463378Y-47515868D01*
X142463378Y-47515868D02*
X142571128Y-47623617D01*
X141978505Y-47515868D02*
X142544190Y-46950182D01*
X142544190Y-46950182D02*
X142328691Y-46734683D01*
X142328691Y-46734683D02*
X142247879Y-46707746D01*
X142247879Y-46707746D02*
X142194004Y-46707746D01*
X142194004Y-46707746D02*
X142113192Y-46734683D01*
X142113192Y-46734683D02*
X142032380Y-46815495D01*
X142032380Y-46815495D02*
X142005442Y-46896307D01*
X142005442Y-46896307D02*
X142005442Y-46950182D01*
X142005442Y-46950182D02*
X142032380Y-47030994D01*
X142032380Y-47030994D02*
X142247879Y-47246494D01*
X141655256Y-46546121D02*
X141736068Y-46573059D01*
X141736068Y-46573059D02*
X141789943Y-46573059D01*
X141789943Y-46573059D02*
X141870755Y-46546121D01*
X141870755Y-46546121D02*
X141897693Y-46519184D01*
X141897693Y-46519184D02*
X141924630Y-46438372D01*
X141924630Y-46438372D02*
X141924630Y-46384497D01*
X141924630Y-46384497D02*
X141897693Y-46303685D01*
X141897693Y-46303685D02*
X141789943Y-46195935D01*
X141789943Y-46195935D02*
X141709131Y-46168998D01*
X141709131Y-46168998D02*
X141655256Y-46168998D01*
X141655256Y-46168998D02*
X141574444Y-46195935D01*
X141574444Y-46195935D02*
X141547506Y-46222872D01*
X141547506Y-46222872D02*
X141520569Y-46303685D01*
X141520569Y-46303685D02*
X141520569Y-46357559D01*
X141520569Y-46357559D02*
X141547506Y-46438372D01*
X141547506Y-46438372D02*
X141655256Y-46546121D01*
X141655256Y-46546121D02*
X141682193Y-46626933D01*
X141682193Y-46626933D02*
X141682193Y-46680808D01*
X141682193Y-46680808D02*
X141655256Y-46761620D01*
X141655256Y-46761620D02*
X141547506Y-46869370D01*
X141547506Y-46869370D02*
X141466694Y-46896307D01*
X141466694Y-46896307D02*
X141412819Y-46896307D01*
X141412819Y-46896307D02*
X141332007Y-46869370D01*
X141332007Y-46869370D02*
X141224258Y-46761620D01*
X141224258Y-46761620D02*
X141197320Y-46680808D01*
X141197320Y-46680808D02*
X141197320Y-46626933D01*
X141197320Y-46626933D02*
X141224258Y-46546121D01*
X141224258Y-46546121D02*
X141332007Y-46438372D01*
X141332007Y-46438372D02*
X141412819Y-46411434D01*
X141412819Y-46411434D02*
X141466694Y-46411434D01*
X141466694Y-46411434D02*
X141547506Y-46438372D01*
X142813564Y-39653431D02*
X142894376Y-39680368D01*
X142894376Y-39680368D02*
X142975188Y-39761180D01*
X142975188Y-39761180D02*
X143029063Y-39868930D01*
X143029063Y-39868930D02*
X143029063Y-39976680D01*
X143029063Y-39976680D02*
X143002126Y-40057492D01*
X143002126Y-40057492D02*
X142921314Y-40192179D01*
X142921314Y-40192179D02*
X142840501Y-40272991D01*
X142840501Y-40272991D02*
X142705814Y-40353803D01*
X142705814Y-40353803D02*
X142625002Y-40380741D01*
X142625002Y-40380741D02*
X142517253Y-40380741D01*
X142517253Y-40380741D02*
X142409503Y-40326866D01*
X142409503Y-40326866D02*
X142355628Y-40272991D01*
X142355628Y-40272991D02*
X142301753Y-40165241D01*
X142301753Y-40165241D02*
X142301753Y-40111367D01*
X142301753Y-40111367D02*
X142490315Y-39922805D01*
X142490315Y-39922805D02*
X142598065Y-40030554D01*
X142005442Y-39922805D02*
X142571127Y-39357119D01*
X142571127Y-39357119D02*
X141682193Y-39599556D01*
X141682193Y-39599556D02*
X142247879Y-39033871D01*
X141412819Y-39330182D02*
X141978505Y-38764497D01*
X141978505Y-38764497D02*
X141843818Y-38629810D01*
X141843818Y-38629810D02*
X141736068Y-38575935D01*
X141736068Y-38575935D02*
X141628319Y-38575935D01*
X141628319Y-38575935D02*
X141547506Y-38602872D01*
X141547506Y-38602872D02*
X141412819Y-38683685D01*
X141412819Y-38683685D02*
X141332007Y-38764497D01*
X141332007Y-38764497D02*
X141251195Y-38899184D01*
X141251195Y-38899184D02*
X141224258Y-38979996D01*
X141224258Y-38979996D02*
X141224258Y-39087746D01*
X141224258Y-39087746D02*
X141278132Y-39195495D01*
X141278132Y-39195495D02*
X141412819Y-39330182D01*
X142786627Y-49786494D02*
X142867439Y-49813431D01*
X142867439Y-49813431D02*
X142948251Y-49894243D01*
X142948251Y-49894243D02*
X143002126Y-50001993D01*
X143002126Y-50001993D02*
X143002126Y-50109742D01*
X143002126Y-50109742D02*
X142975189Y-50190555D01*
X142975189Y-50190555D02*
X142894376Y-50325242D01*
X142894376Y-50325242D02*
X142813564Y-50406054D01*
X142813564Y-50406054D02*
X142678877Y-50486866D01*
X142678877Y-50486866D02*
X142598065Y-50513803D01*
X142598065Y-50513803D02*
X142490315Y-50513803D01*
X142490315Y-50513803D02*
X142382566Y-50459929D01*
X142382566Y-50459929D02*
X142328691Y-50406054D01*
X142328691Y-50406054D02*
X142274816Y-50298304D01*
X142274816Y-50298304D02*
X142274816Y-50244429D01*
X142274816Y-50244429D02*
X142463378Y-50055868D01*
X142463378Y-50055868D02*
X142571128Y-50163617D01*
X141978505Y-50055868D02*
X142544190Y-49490182D01*
X142544190Y-49490182D02*
X142328691Y-49274683D01*
X142328691Y-49274683D02*
X142247879Y-49247746D01*
X142247879Y-49247746D02*
X142194004Y-49247746D01*
X142194004Y-49247746D02*
X142113192Y-49274683D01*
X142113192Y-49274683D02*
X142032380Y-49355495D01*
X142032380Y-49355495D02*
X142005442Y-49436307D01*
X142005442Y-49436307D02*
X142005442Y-49490182D01*
X142005442Y-49490182D02*
X142032380Y-49570994D01*
X142032380Y-49570994D02*
X142247879Y-49786494D01*
X141385882Y-49463245D02*
X141278132Y-49355495D01*
X141278132Y-49355495D02*
X141251195Y-49274683D01*
X141251195Y-49274683D02*
X141251195Y-49220808D01*
X141251195Y-49220808D02*
X141278132Y-49086121D01*
X141278132Y-49086121D02*
X141358945Y-48951434D01*
X141358945Y-48951434D02*
X141574444Y-48735935D01*
X141574444Y-48735935D02*
X141655256Y-48708998D01*
X141655256Y-48708998D02*
X141709131Y-48708998D01*
X141709131Y-48708998D02*
X141789943Y-48735935D01*
X141789943Y-48735935D02*
X141897693Y-48843685D01*
X141897693Y-48843685D02*
X141924630Y-48924497D01*
X141924630Y-48924497D02*
X141924630Y-48978372D01*
X141924630Y-48978372D02*
X141897693Y-49059184D01*
X141897693Y-49059184D02*
X141763006Y-49193871D01*
X141763006Y-49193871D02*
X141682193Y-49220808D01*
X141682193Y-49220808D02*
X141628319Y-49220808D01*
X141628319Y-49220808D02*
X141547506Y-49193871D01*
X141547506Y-49193871D02*
X141439757Y-49086121D01*
X141439757Y-49086121D02*
X141412819Y-49005309D01*
X141412819Y-49005309D02*
X141412819Y-48951434D01*
X141412819Y-48951434D02*
X141439757Y-48870622D01*
X143310001Y-70375868D02*
X143390814Y-70402805D01*
X143390814Y-70402805D02*
X143471626Y-70483618D01*
X143471626Y-70483618D02*
X143525501Y-70591367D01*
X143525501Y-70591367D02*
X143525501Y-70699117D01*
X143525501Y-70699117D02*
X143498563Y-70779929D01*
X143498563Y-70779929D02*
X143417751Y-70914616D01*
X143417751Y-70914616D02*
X143336939Y-70995428D01*
X143336939Y-70995428D02*
X143202252Y-71076241D01*
X143202252Y-71076241D02*
X143121439Y-71103178D01*
X143121439Y-71103178D02*
X143013690Y-71103178D01*
X143013690Y-71103178D02*
X142905940Y-71049303D01*
X142905940Y-71049303D02*
X142852065Y-70995428D01*
X142852065Y-70995428D02*
X142798191Y-70887679D01*
X142798191Y-70887679D02*
X142798191Y-70833804D01*
X142798191Y-70833804D02*
X142986752Y-70645242D01*
X142986752Y-70645242D02*
X143094502Y-70752992D01*
X142501879Y-70645242D02*
X143067565Y-70079557D01*
X143067565Y-70079557D02*
X142852065Y-69864057D01*
X142852065Y-69864057D02*
X142771253Y-69837120D01*
X142771253Y-69837120D02*
X142717378Y-69837120D01*
X142717378Y-69837120D02*
X142636566Y-69864057D01*
X142636566Y-69864057D02*
X142555754Y-69944870D01*
X142555754Y-69944870D02*
X142528817Y-70025682D01*
X142528817Y-70025682D02*
X142528817Y-70079557D01*
X142528817Y-70079557D02*
X142555754Y-70160369D01*
X142555754Y-70160369D02*
X142771253Y-70375868D01*
X141639882Y-69783245D02*
X141963131Y-70106494D01*
X141801507Y-69944870D02*
X142367192Y-69379184D01*
X142367192Y-69379184D02*
X142340255Y-69513871D01*
X142340255Y-69513871D02*
X142340255Y-69621621D01*
X142340255Y-69621621D02*
X142367192Y-69702433D01*
X141693757Y-68705749D02*
X141963131Y-68975123D01*
X141963131Y-68975123D02*
X141720694Y-69271434D01*
X141720694Y-69271434D02*
X141720694Y-69217560D01*
X141720694Y-69217560D02*
X141693757Y-69136747D01*
X141693757Y-69136747D02*
X141559070Y-69002060D01*
X141559070Y-69002060D02*
X141478258Y-68975123D01*
X141478258Y-68975123D02*
X141424383Y-68975123D01*
X141424383Y-68975123D02*
X141343571Y-69002060D01*
X141343571Y-69002060D02*
X141208884Y-69136747D01*
X141208884Y-69136747D02*
X141181946Y-69217560D01*
X141181946Y-69217560D02*
X141181946Y-69271434D01*
X141181946Y-69271434D02*
X141208884Y-69352247D01*
X141208884Y-69352247D02*
X141343571Y-69486934D01*
X141343571Y-69486934D02*
X141424383Y-69513871D01*
X141424383Y-69513871D02*
X141478258Y-69513871D01*
X116461348Y-47798710D02*
X116919283Y-47717898D01*
X116784596Y-48121959D02*
X117350282Y-47556274D01*
X117350282Y-47556274D02*
X117134783Y-47340775D01*
X117134783Y-47340775D02*
X117053970Y-47313837D01*
X117053970Y-47313837D02*
X117000096Y-47313837D01*
X117000096Y-47313837D02*
X116919283Y-47340775D01*
X116919283Y-47340775D02*
X116838471Y-47421587D01*
X116838471Y-47421587D02*
X116811534Y-47502399D01*
X116811534Y-47502399D02*
X116811534Y-47556274D01*
X116811534Y-47556274D02*
X116838471Y-47637086D01*
X116838471Y-47637086D02*
X117053970Y-47852585D01*
X116784596Y-46990588D02*
X116326661Y-47448524D01*
X116326661Y-47448524D02*
X116245848Y-47475462D01*
X116245848Y-47475462D02*
X116191974Y-47475462D01*
X116191974Y-47475462D02*
X116111161Y-47448524D01*
X116111161Y-47448524D02*
X116003412Y-47340775D01*
X116003412Y-47340775D02*
X115976474Y-47259962D01*
X115976474Y-47259962D02*
X115976474Y-47206088D01*
X115976474Y-47206088D02*
X116003412Y-47125275D01*
X116003412Y-47125275D02*
X116461348Y-46667340D01*
X115626288Y-46963651D02*
X116191974Y-46397966D01*
X116191974Y-46397966D02*
X115303040Y-46640402D01*
X115303040Y-46640402D02*
X115868725Y-46074717D01*
X117202001Y-55145868D02*
X117282814Y-55172805D01*
X117282814Y-55172805D02*
X117363626Y-55253618D01*
X117363626Y-55253618D02*
X117417501Y-55361367D01*
X117417501Y-55361367D02*
X117417501Y-55469117D01*
X117417501Y-55469117D02*
X117390563Y-55549929D01*
X117390563Y-55549929D02*
X117309751Y-55684616D01*
X117309751Y-55684616D02*
X117228939Y-55765428D01*
X117228939Y-55765428D02*
X117094252Y-55846241D01*
X117094252Y-55846241D02*
X117013439Y-55873178D01*
X117013439Y-55873178D02*
X116905690Y-55873178D01*
X116905690Y-55873178D02*
X116797940Y-55819303D01*
X116797940Y-55819303D02*
X116744065Y-55765428D01*
X116744065Y-55765428D02*
X116690191Y-55657679D01*
X116690191Y-55657679D02*
X116690191Y-55603804D01*
X116690191Y-55603804D02*
X116878752Y-55415242D01*
X116878752Y-55415242D02*
X116986502Y-55522992D01*
X116393879Y-55415242D02*
X116959565Y-54849557D01*
X116959565Y-54849557D02*
X116744065Y-54634057D01*
X116744065Y-54634057D02*
X116663253Y-54607120D01*
X116663253Y-54607120D02*
X116609378Y-54607120D01*
X116609378Y-54607120D02*
X116528566Y-54634057D01*
X116528566Y-54634057D02*
X116447754Y-54714870D01*
X116447754Y-54714870D02*
X116420817Y-54795682D01*
X116420817Y-54795682D02*
X116420817Y-54849557D01*
X116420817Y-54849557D02*
X116447754Y-54930369D01*
X116447754Y-54930369D02*
X116663253Y-55145868D01*
X116366942Y-54364683D02*
X116366942Y-54310809D01*
X116366942Y-54310809D02*
X116340004Y-54229996D01*
X116340004Y-54229996D02*
X116205317Y-54095309D01*
X116205317Y-54095309D02*
X116124505Y-54068372D01*
X116124505Y-54068372D02*
X116070630Y-54068372D01*
X116070630Y-54068372D02*
X115989818Y-54095309D01*
X115989818Y-54095309D02*
X115935943Y-54149184D01*
X115935943Y-54149184D02*
X115882069Y-54256934D01*
X115882069Y-54256934D02*
X115882069Y-54903431D01*
X115882069Y-54903431D02*
X115531882Y-54553245D01*
X114993134Y-54014497D02*
X115316383Y-54337746D01*
X115154759Y-54176121D02*
X115720444Y-53610436D01*
X115720444Y-53610436D02*
X115693507Y-53745123D01*
X115693507Y-53745123D02*
X115693507Y-53852873D01*
X115693507Y-53852873D02*
X115720444Y-53933685D01*
X142813564Y-65053431D02*
X142894376Y-65080368D01*
X142894376Y-65080368D02*
X142975188Y-65161180D01*
X142975188Y-65161180D02*
X143029063Y-65268930D01*
X143029063Y-65268930D02*
X143029063Y-65376680D01*
X143029063Y-65376680D02*
X143002126Y-65457492D01*
X143002126Y-65457492D02*
X142921314Y-65592179D01*
X142921314Y-65592179D02*
X142840501Y-65672991D01*
X142840501Y-65672991D02*
X142705814Y-65753803D01*
X142705814Y-65753803D02*
X142625002Y-65780741D01*
X142625002Y-65780741D02*
X142517253Y-65780741D01*
X142517253Y-65780741D02*
X142409503Y-65726866D01*
X142409503Y-65726866D02*
X142355628Y-65672991D01*
X142355628Y-65672991D02*
X142301753Y-65565241D01*
X142301753Y-65565241D02*
X142301753Y-65511367D01*
X142301753Y-65511367D02*
X142490315Y-65322805D01*
X142490315Y-65322805D02*
X142598065Y-65430554D01*
X142005442Y-65322805D02*
X142571127Y-64757119D01*
X142571127Y-64757119D02*
X141682193Y-64999556D01*
X141682193Y-64999556D02*
X142247879Y-64433871D01*
X141412819Y-64730182D02*
X141978505Y-64164497D01*
X141978505Y-64164497D02*
X141843818Y-64029810D01*
X141843818Y-64029810D02*
X141736068Y-63975935D01*
X141736068Y-63975935D02*
X141628319Y-63975935D01*
X141628319Y-63975935D02*
X141547506Y-64002872D01*
X141547506Y-64002872D02*
X141412819Y-64083685D01*
X141412819Y-64083685D02*
X141332007Y-64164497D01*
X141332007Y-64164497D02*
X141251195Y-64299184D01*
X141251195Y-64299184D02*
X141224258Y-64379996D01*
X141224258Y-64379996D02*
X141224258Y-64487746D01*
X141224258Y-64487746D02*
X141278132Y-64595495D01*
X141278132Y-64595495D02*
X141412819Y-64730182D01*
X117202001Y-60215868D02*
X117282814Y-60242805D01*
X117282814Y-60242805D02*
X117363626Y-60323618D01*
X117363626Y-60323618D02*
X117417501Y-60431367D01*
X117417501Y-60431367D02*
X117417501Y-60539117D01*
X117417501Y-60539117D02*
X117390563Y-60619929D01*
X117390563Y-60619929D02*
X117309751Y-60754616D01*
X117309751Y-60754616D02*
X117228939Y-60835428D01*
X117228939Y-60835428D02*
X117094252Y-60916241D01*
X117094252Y-60916241D02*
X117013439Y-60943178D01*
X117013439Y-60943178D02*
X116905690Y-60943178D01*
X116905690Y-60943178D02*
X116797940Y-60889303D01*
X116797940Y-60889303D02*
X116744065Y-60835428D01*
X116744065Y-60835428D02*
X116690191Y-60727679D01*
X116690191Y-60727679D02*
X116690191Y-60673804D01*
X116690191Y-60673804D02*
X116878752Y-60485242D01*
X116878752Y-60485242D02*
X116986502Y-60592992D01*
X116393879Y-60485242D02*
X116959565Y-59919557D01*
X116959565Y-59919557D02*
X116744065Y-59704057D01*
X116744065Y-59704057D02*
X116663253Y-59677120D01*
X116663253Y-59677120D02*
X116609378Y-59677120D01*
X116609378Y-59677120D02*
X116528566Y-59704057D01*
X116528566Y-59704057D02*
X116447754Y-59784870D01*
X116447754Y-59784870D02*
X116420817Y-59865682D01*
X116420817Y-59865682D02*
X116420817Y-59919557D01*
X116420817Y-59919557D02*
X116447754Y-60000369D01*
X116447754Y-60000369D02*
X116663253Y-60215868D01*
X115531882Y-59623245D02*
X115855131Y-59946494D01*
X115693507Y-59784870D02*
X116259192Y-59219184D01*
X116259192Y-59219184D02*
X116232255Y-59353871D01*
X116232255Y-59353871D02*
X116232255Y-59461621D01*
X116232255Y-59461621D02*
X116259192Y-59542433D01*
X115262508Y-59353871D02*
X115154759Y-59246121D01*
X115154759Y-59246121D02*
X115127821Y-59165309D01*
X115127821Y-59165309D02*
X115127821Y-59111434D01*
X115127821Y-59111434D02*
X115154759Y-58976747D01*
X115154759Y-58976747D02*
X115235571Y-58842060D01*
X115235571Y-58842060D02*
X115451070Y-58626561D01*
X115451070Y-58626561D02*
X115531882Y-58599624D01*
X115531882Y-58599624D02*
X115585757Y-58599624D01*
X115585757Y-58599624D02*
X115666569Y-58626561D01*
X115666569Y-58626561D02*
X115774319Y-58734311D01*
X115774319Y-58734311D02*
X115801256Y-58815123D01*
X115801256Y-58815123D02*
X115801256Y-58868998D01*
X115801256Y-58868998D02*
X115774319Y-58949810D01*
X115774319Y-58949810D02*
X115639632Y-59084497D01*
X115639632Y-59084497D02*
X115558820Y-59111434D01*
X115558820Y-59111434D02*
X115504945Y-59111434D01*
X115504945Y-59111434D02*
X115424133Y-59084497D01*
X115424133Y-59084497D02*
X115316383Y-58976747D01*
X115316383Y-58976747D02*
X115289446Y-58895935D01*
X115289446Y-58895935D02*
X115289446Y-58842060D01*
X115289446Y-58842060D02*
X115316383Y-58761248D01*
X142886627Y-29466494D02*
X142967439Y-29493431D01*
X142967439Y-29493431D02*
X143048251Y-29574243D01*
X143048251Y-29574243D02*
X143102126Y-29681993D01*
X143102126Y-29681993D02*
X143102126Y-29789742D01*
X143102126Y-29789742D02*
X143075189Y-29870555D01*
X143075189Y-29870555D02*
X142994376Y-30005242D01*
X142994376Y-30005242D02*
X142913564Y-30086054D01*
X142913564Y-30086054D02*
X142778877Y-30166866D01*
X142778877Y-30166866D02*
X142698065Y-30193803D01*
X142698065Y-30193803D02*
X142590315Y-30193803D01*
X142590315Y-30193803D02*
X142482566Y-30139929D01*
X142482566Y-30139929D02*
X142428691Y-30086054D01*
X142428691Y-30086054D02*
X142374816Y-29978304D01*
X142374816Y-29978304D02*
X142374816Y-29924429D01*
X142374816Y-29924429D02*
X142563378Y-29735868D01*
X142563378Y-29735868D02*
X142671128Y-29843617D01*
X142078505Y-29735868D02*
X142644190Y-29170182D01*
X142644190Y-29170182D02*
X142428691Y-28954683D01*
X142428691Y-28954683D02*
X142347879Y-28927746D01*
X142347879Y-28927746D02*
X142294004Y-28927746D01*
X142294004Y-28927746D02*
X142213192Y-28954683D01*
X142213192Y-28954683D02*
X142132380Y-29035495D01*
X142132380Y-29035495D02*
X142105442Y-29116307D01*
X142105442Y-29116307D02*
X142105442Y-29170182D01*
X142105442Y-29170182D02*
X142132380Y-29250994D01*
X142132380Y-29250994D02*
X142347879Y-29466494D01*
X142051567Y-28685309D02*
X142051567Y-28631434D01*
X142051567Y-28631434D02*
X142024630Y-28550622D01*
X142024630Y-28550622D02*
X141889943Y-28415935D01*
X141889943Y-28415935D02*
X141809131Y-28388998D01*
X141809131Y-28388998D02*
X141755256Y-28388998D01*
X141755256Y-28388998D02*
X141674444Y-28415935D01*
X141674444Y-28415935D02*
X141620569Y-28469810D01*
X141620569Y-28469810D02*
X141566694Y-28577559D01*
X141566694Y-28577559D02*
X141566694Y-29224057D01*
X141566694Y-29224057D02*
X141216508Y-28873871D01*
X117202001Y-44975868D02*
X117282814Y-45002805D01*
X117282814Y-45002805D02*
X117363626Y-45083618D01*
X117363626Y-45083618D02*
X117417501Y-45191367D01*
X117417501Y-45191367D02*
X117417501Y-45299117D01*
X117417501Y-45299117D02*
X117390563Y-45379929D01*
X117390563Y-45379929D02*
X117309751Y-45514616D01*
X117309751Y-45514616D02*
X117228939Y-45595428D01*
X117228939Y-45595428D02*
X117094252Y-45676241D01*
X117094252Y-45676241D02*
X117013439Y-45703178D01*
X117013439Y-45703178D02*
X116905690Y-45703178D01*
X116905690Y-45703178D02*
X116797940Y-45649303D01*
X116797940Y-45649303D02*
X116744065Y-45595428D01*
X116744065Y-45595428D02*
X116690191Y-45487679D01*
X116690191Y-45487679D02*
X116690191Y-45433804D01*
X116690191Y-45433804D02*
X116878752Y-45245242D01*
X116878752Y-45245242D02*
X116986502Y-45352992D01*
X116393879Y-45245242D02*
X116959565Y-44679557D01*
X116959565Y-44679557D02*
X116744065Y-44464057D01*
X116744065Y-44464057D02*
X116663253Y-44437120D01*
X116663253Y-44437120D02*
X116609378Y-44437120D01*
X116609378Y-44437120D02*
X116528566Y-44464057D01*
X116528566Y-44464057D02*
X116447754Y-44544870D01*
X116447754Y-44544870D02*
X116420817Y-44625682D01*
X116420817Y-44625682D02*
X116420817Y-44679557D01*
X116420817Y-44679557D02*
X116447754Y-44760369D01*
X116447754Y-44760369D02*
X116663253Y-44975868D01*
X116366942Y-44194683D02*
X116366942Y-44140809D01*
X116366942Y-44140809D02*
X116340004Y-44059996D01*
X116340004Y-44059996D02*
X116205317Y-43925309D01*
X116205317Y-43925309D02*
X116124505Y-43898372D01*
X116124505Y-43898372D02*
X116070630Y-43898372D01*
X116070630Y-43898372D02*
X115989818Y-43925309D01*
X115989818Y-43925309D02*
X115935943Y-43979184D01*
X115935943Y-43979184D02*
X115882069Y-44086934D01*
X115882069Y-44086934D02*
X115882069Y-44733431D01*
X115882069Y-44733431D02*
X115531882Y-44383245D01*
X115612694Y-43332686D02*
X115720444Y-43440436D01*
X115720444Y-43440436D02*
X115747381Y-43521248D01*
X115747381Y-43521248D02*
X115747381Y-43575123D01*
X115747381Y-43575123D02*
X115720444Y-43709810D01*
X115720444Y-43709810D02*
X115639632Y-43844497D01*
X115639632Y-43844497D02*
X115424133Y-44059996D01*
X115424133Y-44059996D02*
X115343320Y-44086934D01*
X115343320Y-44086934D02*
X115289446Y-44086934D01*
X115289446Y-44086934D02*
X115208633Y-44059996D01*
X115208633Y-44059996D02*
X115100884Y-43952247D01*
X115100884Y-43952247D02*
X115073946Y-43871434D01*
X115073946Y-43871434D02*
X115073946Y-43817560D01*
X115073946Y-43817560D02*
X115100884Y-43736747D01*
X115100884Y-43736747D02*
X115235571Y-43602060D01*
X115235571Y-43602060D02*
X115316383Y-43575123D01*
X115316383Y-43575123D02*
X115370258Y-43575123D01*
X115370258Y-43575123D02*
X115451070Y-43602060D01*
X115451070Y-43602060D02*
X115558820Y-43709810D01*
X115558820Y-43709810D02*
X115585757Y-43790622D01*
X115585757Y-43790622D02*
X115585757Y-43844497D01*
X115585757Y-43844497D02*
X115558820Y-43925309D01*
X142786627Y-34546494D02*
X142867439Y-34573431D01*
X142867439Y-34573431D02*
X142948251Y-34654243D01*
X142948251Y-34654243D02*
X143002126Y-34761993D01*
X143002126Y-34761993D02*
X143002126Y-34869742D01*
X143002126Y-34869742D02*
X142975189Y-34950555D01*
X142975189Y-34950555D02*
X142894376Y-35085242D01*
X142894376Y-35085242D02*
X142813564Y-35166054D01*
X142813564Y-35166054D02*
X142678877Y-35246866D01*
X142678877Y-35246866D02*
X142598065Y-35273803D01*
X142598065Y-35273803D02*
X142490315Y-35273803D01*
X142490315Y-35273803D02*
X142382566Y-35219929D01*
X142382566Y-35219929D02*
X142328691Y-35166054D01*
X142328691Y-35166054D02*
X142274816Y-35058304D01*
X142274816Y-35058304D02*
X142274816Y-35004429D01*
X142274816Y-35004429D02*
X142463378Y-34815868D01*
X142463378Y-34815868D02*
X142571128Y-34923617D01*
X141978505Y-34815868D02*
X142544190Y-34250182D01*
X142544190Y-34250182D02*
X142328691Y-34034683D01*
X142328691Y-34034683D02*
X142247879Y-34007746D01*
X142247879Y-34007746D02*
X142194004Y-34007746D01*
X142194004Y-34007746D02*
X142113192Y-34034683D01*
X142113192Y-34034683D02*
X142032380Y-34115495D01*
X142032380Y-34115495D02*
X142005442Y-34196307D01*
X142005442Y-34196307D02*
X142005442Y-34250182D01*
X142005442Y-34250182D02*
X142032380Y-34330994D01*
X142032380Y-34330994D02*
X142247879Y-34546494D01*
X141547506Y-33630622D02*
X141170383Y-34007746D01*
X141897693Y-33549810D02*
X141628319Y-34088558D01*
X141628319Y-34088558D02*
X141278132Y-33738372D01*
X117213564Y-65053431D02*
X117294376Y-65080368D01*
X117294376Y-65080368D02*
X117375188Y-65161180D01*
X117375188Y-65161180D02*
X117429063Y-65268930D01*
X117429063Y-65268930D02*
X117429063Y-65376680D01*
X117429063Y-65376680D02*
X117402126Y-65457492D01*
X117402126Y-65457492D02*
X117321314Y-65592179D01*
X117321314Y-65592179D02*
X117240501Y-65672991D01*
X117240501Y-65672991D02*
X117105814Y-65753803D01*
X117105814Y-65753803D02*
X117025002Y-65780741D01*
X117025002Y-65780741D02*
X116917253Y-65780741D01*
X116917253Y-65780741D02*
X116809503Y-65726866D01*
X116809503Y-65726866D02*
X116755628Y-65672991D01*
X116755628Y-65672991D02*
X116701753Y-65565241D01*
X116701753Y-65565241D02*
X116701753Y-65511367D01*
X116701753Y-65511367D02*
X116890315Y-65322805D01*
X116890315Y-65322805D02*
X116998065Y-65430554D01*
X116405442Y-65322805D02*
X116971127Y-64757119D01*
X116971127Y-64757119D02*
X116082193Y-64999556D01*
X116082193Y-64999556D02*
X116647879Y-64433871D01*
X115812819Y-64730182D02*
X116378505Y-64164497D01*
X116378505Y-64164497D02*
X116243818Y-64029810D01*
X116243818Y-64029810D02*
X116136068Y-63975935D01*
X116136068Y-63975935D02*
X116028319Y-63975935D01*
X116028319Y-63975935D02*
X115947506Y-64002872D01*
X115947506Y-64002872D02*
X115812819Y-64083685D01*
X115812819Y-64083685D02*
X115732007Y-64164497D01*
X115732007Y-64164497D02*
X115651195Y-64299184D01*
X115651195Y-64299184D02*
X115624258Y-64379996D01*
X115624258Y-64379996D02*
X115624258Y-64487746D01*
X115624258Y-64487746D02*
X115678132Y-64595495D01*
X115678132Y-64595495D02*
X115812819Y-64730182D01*
X83538094Y-99956819D02*
X82966666Y-99956819D01*
X83252380Y-100956819D02*
X83252380Y-99956819D01*
X82633332Y-100956819D02*
X82633332Y-99956819D01*
X82633332Y-99956819D02*
X82252380Y-99956819D01*
X82252380Y-99956819D02*
X82157142Y-100004438D01*
X82157142Y-100004438D02*
X82109523Y-100052057D01*
X82109523Y-100052057D02*
X82061904Y-100147295D01*
X82061904Y-100147295D02*
X82061904Y-100290152D01*
X82061904Y-100290152D02*
X82109523Y-100385390D01*
X82109523Y-100385390D02*
X82157142Y-100433009D01*
X82157142Y-100433009D02*
X82252380Y-100480628D01*
X82252380Y-100480628D02*
X82633332Y-100480628D01*
X81109523Y-100956819D02*
X81680951Y-100956819D01*
X81395237Y-100956819D02*
X81395237Y-99956819D01*
X81395237Y-99956819D02*
X81490475Y-100099676D01*
X81490475Y-100099676D02*
X81585713Y-100194914D01*
X81585713Y-100194914D02*
X81680951Y-100242533D01*
X80157142Y-100956819D02*
X80728570Y-100956819D01*
X80442856Y-100956819D02*
X80442856Y-99956819D01*
X80442856Y-99956819D02*
X80538094Y-100099676D01*
X80538094Y-100099676D02*
X80633332Y-100194914D01*
X80633332Y-100194914D02*
X80728570Y-100242533D01*
X30211904Y-68504819D02*
X29640476Y-68504819D01*
X29926190Y-69504819D02*
X29926190Y-68504819D01*
X29307142Y-69504819D02*
X29307142Y-68504819D01*
X29307142Y-68504819D02*
X28926190Y-68504819D01*
X28926190Y-68504819D02*
X28830952Y-68552438D01*
X28830952Y-68552438D02*
X28783333Y-68600057D01*
X28783333Y-68600057D02*
X28735714Y-68695295D01*
X28735714Y-68695295D02*
X28735714Y-68838152D01*
X28735714Y-68838152D02*
X28783333Y-68933390D01*
X28783333Y-68933390D02*
X28830952Y-68981009D01*
X28830952Y-68981009D02*
X28926190Y-69028628D01*
X28926190Y-69028628D02*
X29307142Y-69028628D01*
X28402380Y-68504819D02*
X27735714Y-68504819D01*
X27735714Y-68504819D02*
X28164285Y-69504819D01*
X30011904Y-88604819D02*
X29440476Y-88604819D01*
X29726190Y-89604819D02*
X29726190Y-88604819D01*
X29107142Y-89604819D02*
X29107142Y-88604819D01*
X29107142Y-88604819D02*
X28726190Y-88604819D01*
X28726190Y-88604819D02*
X28630952Y-88652438D01*
X28630952Y-88652438D02*
X28583333Y-88700057D01*
X28583333Y-88700057D02*
X28535714Y-88795295D01*
X28535714Y-88795295D02*
X28535714Y-88938152D01*
X28535714Y-88938152D02*
X28583333Y-89033390D01*
X28583333Y-89033390D02*
X28630952Y-89081009D01*
X28630952Y-89081009D02*
X28726190Y-89128628D01*
X28726190Y-89128628D02*
X29107142Y-89128628D01*
X27583333Y-89604819D02*
X28154761Y-89604819D01*
X27869047Y-89604819D02*
X27869047Y-88604819D01*
X27869047Y-88604819D02*
X27964285Y-88747676D01*
X27964285Y-88747676D02*
X28059523Y-88842914D01*
X28059523Y-88842914D02*
X28154761Y-88890533D01*
D13*
%TO.C,TP10*%
X62500000Y-102050000D02*
G75*
G02*
X61100000Y-102050000I-700000J0D01*
G01*
X61100000Y-102050000D02*
G75*
G02*
X62500000Y-102050000I700000J0D01*
G01*
%TO.C,TP12*%
X102500000Y-102150000D02*
G75*
G02*
X101100000Y-102150000I-700000J0D01*
G01*
X101100000Y-102150000D02*
G75*
G02*
X102500000Y-102150000I700000J0D01*
G01*
%TO.C,TP5*%
X29550000Y-30500000D02*
G75*
G02*
X28150000Y-30500000I-700000J0D01*
G01*
X28150000Y-30500000D02*
G75*
G02*
X29550000Y-30500000I700000J0D01*
G01*
%TO.C,TP9*%
X42600000Y-102050000D02*
G75*
G02*
X41200000Y-102050000I-700000J0D01*
G01*
X41200000Y-102050000D02*
G75*
G02*
X42600000Y-102050000I700000J0D01*
G01*
%TO.C,TP6*%
X29550000Y-50500000D02*
G75*
G02*
X28150000Y-50500000I-700000J0D01*
G01*
X28150000Y-50500000D02*
G75*
G02*
X29550000Y-50500000I700000J0D01*
G01*
%TO.C,U2*%
X118800000Y-20355000D02*
X139800000Y-20355000D01*
X118800000Y-20655000D02*
X118800000Y-20355000D01*
X118800000Y-23155000D02*
X118800000Y-22755000D01*
X118800000Y-25755000D02*
X118800000Y-25355000D01*
X118800000Y-28255000D02*
X118800000Y-27855000D01*
X118800000Y-30855000D02*
X118800000Y-30455000D01*
X118800000Y-33355000D02*
X118800000Y-32955000D01*
X118800000Y-35855000D02*
X118800000Y-35455000D01*
X118800000Y-38455000D02*
X118800000Y-38055000D01*
X118800000Y-40955000D02*
X118800000Y-40555000D01*
X118800000Y-43555000D02*
X118800000Y-43155000D01*
X118800000Y-46055000D02*
X118800000Y-45655000D01*
X118800000Y-48555000D02*
X118800000Y-48155000D01*
X118800000Y-51155000D02*
X118800000Y-50755000D01*
X118800000Y-53655000D02*
X118800000Y-53255000D01*
X118800000Y-56255000D02*
X118800000Y-55855000D01*
X118800000Y-58755000D02*
X118800000Y-58355000D01*
X118800000Y-61355000D02*
X118800000Y-60955000D01*
X118800000Y-63855000D02*
X118800000Y-63455000D01*
X118800000Y-66355000D02*
X118800000Y-65955000D01*
X118800000Y-68955000D02*
X118800000Y-68555000D01*
X125600000Y-71355000D02*
X118800000Y-71355000D01*
X127800000Y-71355000D02*
X128200000Y-71355000D01*
X130400000Y-71355000D02*
X130800000Y-71355000D01*
X136793000Y-20355000D02*
X136793000Y-23022000D01*
X136793000Y-23022000D02*
X139800000Y-23022000D01*
X139800000Y-20655000D02*
X139800000Y-20355000D01*
X139800000Y-23155000D02*
X139800000Y-22755000D01*
X139800000Y-25755000D02*
X139800000Y-25355000D01*
X139800000Y-28255000D02*
X139800000Y-27855000D01*
X139800000Y-30855000D02*
X139800000Y-30455000D01*
X139800000Y-33355000D02*
X139800000Y-32955000D01*
X139800000Y-35855000D02*
X139800000Y-35455000D01*
X139800000Y-38455000D02*
X139800000Y-38055000D01*
X139800000Y-40955000D02*
X139800000Y-40555000D01*
X139800000Y-43555000D02*
X139800000Y-43155000D01*
X139800000Y-46055000D02*
X139800000Y-45655000D01*
X139800000Y-48555000D02*
X139800000Y-48155000D01*
X139800000Y-51155000D02*
X139800000Y-50755000D01*
X139800000Y-53655000D02*
X139800000Y-53255000D01*
X139800000Y-56255000D02*
X139800000Y-55855000D01*
X139800000Y-58755000D02*
X139800000Y-58355000D01*
X139800000Y-61355000D02*
X139800000Y-60955000D01*
X139800000Y-63855000D02*
X139800000Y-63455000D01*
X139800000Y-66355000D02*
X139800000Y-65955000D01*
X139800000Y-68955000D02*
X139800000Y-68555000D01*
X139800000Y-71355000D02*
X133000000Y-71355000D01*
%TO.C,TP11*%
X82500000Y-101950000D02*
G75*
G02*
X81100000Y-101950000I-700000J0D01*
G01*
X81100000Y-101950000D02*
G75*
G02*
X82500000Y-101950000I700000J0D01*
G01*
%TO.C,TP7*%
X29650000Y-70500000D02*
G75*
G02*
X28250000Y-70500000I-700000J0D01*
G01*
X28250000Y-70500000D02*
G75*
G02*
X29650000Y-70500000I700000J0D01*
G01*
%TO.C,TP1*%
X29450000Y-90600000D02*
G75*
G02*
X28050000Y-90600000I-700000J0D01*
G01*
X28050000Y-90600000D02*
G75*
G02*
X29450000Y-90600000I700000J0D01*
G01*
%TD*%
D14*
%TO.C,TP8*%
X28950000Y-110500000D03*
%TD*%
%LPC*%
D15*
%TO.C,SW22*%
X51970000Y-113100000D03*
D16*
X57050000Y-113100000D03*
D15*
X62130000Y-113100000D03*
D17*
X59590000Y-108020000D03*
X53240000Y-110560000D03*
%TD*%
D15*
%TO.C,SW17*%
X51970000Y-93100000D03*
D16*
X57050000Y-93100000D03*
D15*
X62130000Y-93100000D03*
D17*
X59590000Y-88020000D03*
X53240000Y-90560000D03*
%TD*%
D15*
%TO.C,SW18*%
X71970000Y-93100000D03*
D16*
X77050000Y-93100000D03*
D15*
X82130000Y-93100000D03*
D17*
X79590000Y-88020000D03*
X73240000Y-90560000D03*
%TD*%
D18*
%TO.C,H1*%
X23500000Y-124500000D03*
%TD*%
D19*
%TO.C,SW28*%
X147075000Y-85500000D03*
D20*
X147075000Y-90500000D03*
X147075000Y-88000000D03*
D21*
X154575000Y-82400000D03*
X154575000Y-93600000D03*
D20*
X161575000Y-90500000D03*
X161575000Y-85500000D03*
%TD*%
D15*
%TO.C,SW24*%
X91970000Y-113100000D03*
D16*
X97050000Y-113100000D03*
D15*
X102130000Y-113100000D03*
D17*
X99590000Y-108020000D03*
X93240000Y-110560000D03*
%TD*%
D19*
%TO.C,SW26*%
X144525000Y-114700000D03*
D20*
X144525000Y-109700000D03*
X144525000Y-112200000D03*
D21*
X137025000Y-117800000D03*
X137025000Y-106600000D03*
D20*
X130025000Y-109700000D03*
X130025000Y-114700000D03*
%TD*%
D15*
%TO.C,SW6*%
X31970000Y-53100000D03*
D16*
X37050000Y-53100000D03*
D15*
X42130000Y-53100000D03*
D17*
X39590000Y-48020000D03*
X33240000Y-50560000D03*
%TD*%
D15*
%TO.C,SW19*%
X91970000Y-93100000D03*
D16*
X97050000Y-93100000D03*
D15*
X102130000Y-93100000D03*
D17*
X99590000Y-88020000D03*
X93240000Y-90560000D03*
%TD*%
D15*
%TO.C,SW4*%
X91970000Y-33100000D03*
D16*
X97050000Y-33100000D03*
D15*
X102130000Y-33100000D03*
D17*
X99590000Y-28020000D03*
X93240000Y-30560000D03*
%TD*%
D15*
%TO.C,SW14*%
X91970000Y-73100000D03*
D16*
X97050000Y-73100000D03*
D15*
X102130000Y-73100000D03*
D17*
X99590000Y-68020000D03*
X93240000Y-70560000D03*
%TD*%
D18*
%TO.C,H2*%
X23500000Y-22500000D03*
%TD*%
D15*
%TO.C,SW9*%
X91970000Y-53100000D03*
D16*
X97050000Y-53100000D03*
D15*
X102130000Y-53100000D03*
D17*
X99590000Y-48020000D03*
X93240000Y-50560000D03*
%TD*%
D15*
%TO.C,SW16*%
X31970000Y-93100000D03*
D16*
X37050000Y-93100000D03*
D15*
X42130000Y-93100000D03*
D17*
X39590000Y-88020000D03*
X33240000Y-90560000D03*
%TD*%
D15*
%TO.C,SW23*%
X71970000Y-113100000D03*
D16*
X77050000Y-113100000D03*
D15*
X82130000Y-113100000D03*
D17*
X79590000Y-108020000D03*
X73240000Y-110560000D03*
%TD*%
D15*
%TO.C,SW1*%
X31970000Y-33100000D03*
D16*
X37050000Y-33100000D03*
D15*
X42130000Y-33100000D03*
D17*
X39590000Y-28020000D03*
X33240000Y-30560000D03*
%TD*%
D15*
%TO.C,SW13*%
X71970000Y-73100000D03*
D16*
X77050000Y-73100000D03*
D15*
X82130000Y-73100000D03*
D17*
X79590000Y-68020000D03*
X73240000Y-70560000D03*
%TD*%
D22*
%TO.C,J1*%
X109800000Y-53160000D03*
D15*
X109800000Y-50620000D03*
X109800000Y-48080000D03*
X109800000Y-45540000D03*
X109800000Y-43000000D03*
X109800000Y-40460000D03*
X109800000Y-37920000D03*
X109800000Y-35380000D03*
%TD*%
%TO.C,SW11*%
X31970000Y-73100000D03*
D16*
X37050000Y-73100000D03*
D15*
X42130000Y-73100000D03*
D17*
X39590000Y-68020000D03*
X33240000Y-70560000D03*
%TD*%
D15*
%TO.C,SW21*%
X31970000Y-113100000D03*
D16*
X37050000Y-113100000D03*
D15*
X42130000Y-113100000D03*
D17*
X39590000Y-108020000D03*
X33240000Y-110560000D03*
%TD*%
D19*
%TO.C,SW27*%
X116375000Y-85500000D03*
D20*
X116375000Y-90500000D03*
X116375000Y-88000000D03*
D21*
X123875000Y-82400000D03*
X123875000Y-93600000D03*
D20*
X130875000Y-90500000D03*
X130875000Y-85500000D03*
%TD*%
D18*
%TO.C,H4*%
X175500000Y-124500000D03*
%TD*%
D15*
%TO.C,SW2*%
X51970000Y-33100000D03*
D16*
X57050000Y-33100000D03*
D15*
X62130000Y-33100000D03*
D17*
X59590000Y-28020000D03*
X53240000Y-30560000D03*
%TD*%
D15*
%TO.C,SW7*%
X51970000Y-53100000D03*
D16*
X57050000Y-53100000D03*
D15*
X62130000Y-53100000D03*
D17*
X59590000Y-48020000D03*
X53240000Y-50560000D03*
%TD*%
D15*
%TO.C,SW8*%
X71970000Y-53100000D03*
D16*
X77050000Y-53100000D03*
D15*
X82130000Y-53100000D03*
D17*
X79590000Y-48020000D03*
X73240000Y-50560000D03*
%TD*%
D15*
%TO.C,SW12*%
X51970000Y-73100000D03*
D16*
X57050000Y-73100000D03*
D15*
X62130000Y-73100000D03*
D17*
X59590000Y-68020000D03*
X53240000Y-70560000D03*
%TD*%
D15*
%TO.C,SW3*%
X71970000Y-33100000D03*
D16*
X77050000Y-33100000D03*
D15*
X82130000Y-33100000D03*
D17*
X79590000Y-28020000D03*
X73240000Y-30560000D03*
%TD*%
D18*
%TO.C,H3*%
X175500000Y-22500000D03*
%TD*%
D14*
%TO.C,TP10*%
X61800000Y-102050000D03*
%TD*%
%TO.C,TP12*%
X101800000Y-102150000D03*
%TD*%
%TO.C,TP5*%
X28850000Y-30500000D03*
%TD*%
%TO.C,TP9*%
X41900000Y-102050000D03*
%TD*%
%TO.C,TP6*%
X28850000Y-50500000D03*
%TD*%
D23*
%TO.C,U2*%
X132025000Y-21855000D03*
D24*
X131725000Y-24885000D03*
X126875000Y-24885000D03*
D23*
X126575000Y-21855000D03*
D25*
X138190000Y-21725000D03*
D26*
X139090000Y-21725000D03*
D25*
X138190000Y-24265000D03*
D26*
X139090000Y-24265000D03*
D27*
X138190000Y-26805000D03*
D26*
X139090000Y-26805000D03*
D25*
X138190000Y-29345000D03*
D26*
X139090000Y-29345000D03*
D25*
X138190000Y-31885000D03*
D26*
X139090000Y-31885000D03*
D25*
X138190000Y-34425000D03*
D26*
X139090000Y-34425000D03*
D25*
X138190000Y-36965000D03*
D26*
X139090000Y-36965000D03*
D27*
X138190000Y-39505000D03*
D26*
X139090000Y-39505000D03*
D25*
X138190000Y-42045000D03*
D26*
X139090000Y-42045000D03*
D25*
X138190000Y-44585000D03*
D26*
X139090000Y-44585000D03*
D25*
X138190000Y-47125000D03*
D26*
X139090000Y-47125000D03*
D25*
X138190000Y-49665000D03*
D26*
X139090000Y-49665000D03*
D27*
X138190000Y-52205000D03*
D26*
X139090000Y-52205000D03*
D25*
X138190000Y-54745000D03*
D26*
X139090000Y-54745000D03*
D25*
X138190000Y-57285000D03*
D26*
X139090000Y-57285000D03*
D25*
X138190000Y-59825000D03*
D26*
X139090000Y-59825000D03*
D25*
X138190000Y-62365000D03*
D26*
X139090000Y-62365000D03*
D27*
X138190000Y-64905000D03*
D26*
X139090000Y-64905000D03*
D25*
X138190000Y-67445000D03*
D26*
X139090000Y-67445000D03*
D25*
X138190000Y-69985000D03*
D26*
X139090000Y-69985000D03*
D25*
X120410000Y-69985000D03*
D26*
X119510000Y-69985000D03*
D25*
X120410000Y-67445000D03*
D26*
X119510000Y-67445000D03*
D27*
X120410000Y-64905000D03*
D26*
X119510000Y-64905000D03*
D25*
X120410000Y-62365000D03*
D26*
X119510000Y-62365000D03*
D25*
X120410000Y-59825000D03*
D26*
X119510000Y-59825000D03*
D25*
X120410000Y-57285000D03*
D26*
X119510000Y-57285000D03*
D25*
X120410000Y-54745000D03*
D26*
X119510000Y-54745000D03*
D27*
X120410000Y-52205000D03*
D26*
X119510000Y-52205000D03*
D25*
X120410000Y-49665000D03*
D26*
X119510000Y-49665000D03*
D25*
X120410000Y-47125000D03*
D26*
X119510000Y-47125000D03*
D25*
X120410000Y-44585000D03*
D26*
X119510000Y-44585000D03*
D25*
X120410000Y-42045000D03*
D26*
X119510000Y-42045000D03*
D27*
X120410000Y-39505000D03*
D26*
X119510000Y-39505000D03*
D25*
X120410000Y-36965000D03*
D26*
X119510000Y-36965000D03*
D25*
X120410000Y-34425000D03*
D26*
X119510000Y-34425000D03*
D25*
X120410000Y-31885000D03*
D26*
X119510000Y-31885000D03*
D25*
X120410000Y-29345000D03*
D26*
X119510000Y-29345000D03*
D27*
X120410000Y-26805000D03*
D26*
X119510000Y-26805000D03*
D25*
X120410000Y-24265000D03*
D26*
X119510000Y-24265000D03*
D25*
X120410000Y-21725000D03*
D26*
X119510000Y-21725000D03*
D25*
X131840000Y-69755000D03*
D28*
X131840000Y-70655000D03*
D27*
X129300000Y-69755000D03*
D28*
X129300000Y-70655000D03*
D25*
X126760000Y-69755000D03*
D28*
X126760000Y-70655000D03*
%TD*%
D14*
%TO.C,TP11*%
X81800000Y-101950000D03*
%TD*%
%TO.C,TP7*%
X28950000Y-70500000D03*
%TD*%
%TO.C,TP1*%
X28750000Y-90600000D03*
%TD*%
%LPD*%
M02*
