M48
; DRILL file {KiCad 8.0.4} date 2024-09-23T00:26:05+0800
; FORMAT={-:-/ absolute / metric / decimal}
; #@! TF.CreationDate,2024-09-23T00:26:05+08:00
; #@! TF.GenerationSoftware,Kicad,Pcbnew,8.0.4
; #@! TF.FileFunction,NonPlated,1,2,NPTH
FMAT,2
METRIC
; #@! TA.AperFunction,NonPlated,NPTH,ComponentDrill
T1C1.500
; #@! TA.AperFunction,NonPlated,NPTH,ComponentDrill
T2C1.700
; #@! TA.AperFunction,NonPlated,NPTH,ComponentDrill
T3C1.800
; #@! TA.AperFunction,NonPlated,NPTH,ComponentDrill
T4C4.000
%
G90
G05
T1
X126.875Y-24.885
X131.725Y-24.885
T2
X31.97Y-33.1
X31.97Y-53.1
X31.97Y-73.1
X31.97Y-93.1
X31.97Y-113.1
X42.13Y-33.1
X42.13Y-53.1
X42.13Y-73.1
X42.13Y-93.1
X42.13Y-113.1
X51.97Y-33.1
X51.97Y-53.1
X51.97Y-73.1
X51.97Y-93.1
X51.97Y-113.1
X62.13Y-33.1
X62.13Y-53.1
X62.13Y-73.1
X62.13Y-93.1
X62.13Y-113.1
X71.97Y-33.1
X71.97Y-53.1
X71.97Y-73.1
X71.97Y-93.1
X71.97Y-113.1
X82.13Y-33.1
X82.13Y-53.1
X82.13Y-73.1
X82.13Y-93.1
X82.13Y-113.1
X91.97Y-33.1
X91.97Y-53.1
X91.97Y-73.1
X91.97Y-93.1
X91.97Y-113.1
X102.13Y-33.1
X102.13Y-53.1
X102.13Y-73.1
X102.13Y-93.1
X102.13Y-113.1
T3
X126.575Y-21.855
X132.025Y-21.855
T4
X37.05Y-33.1
X37.05Y-53.1
X37.05Y-73.1
X37.05Y-93.1
X37.05Y-113.1
X57.05Y-33.1
X57.05Y-53.1
X57.05Y-73.1
X57.05Y-93.1
X57.05Y-113.1
X77.05Y-33.1
X77.05Y-53.1
X77.05Y-73.1
X77.05Y-93.1
X77.05Y-113.1
X97.05Y-33.1
X97.05Y-53.1
X97.05Y-73.1
X97.05Y-93.1
X97.05Y-113.1
M30
