M48
; DRILL file {KiCad 8.0.4} date 2024-09-23T00:26:05+0800
; FORMAT={-:-/ absolute / metric / decimal}
; #@! TF.CreationDate,2024-09-23T00:26:05+08:00
; #@! TF.GenerationSoftware,Kicad,Pcbnew,8.0.4
; #@! TF.FileFunction,Plated,1,2,PTH
FMAT,2
METRIC
; #@! TA.AperFunction,Plated,PTH,ViaDrill
T1C0.300
; #@! TA.AperFunction,Plated,PTH,ComponentDrill
T2C1.000
; #@! TA.AperFunction,Plated,PTH,ComponentDrill
T3C1.020
; #@! TA.AperFunction,Plated,PTH,ComponentDrill
T4C1.500
; #@! TA.AperFunction,Plated,PTH,ComponentDrill
T5C3.200
%
G90
G05
T1
X43.6Y-102.05
X45.75Y-108.9
X47.95Y-38.9
X63.6Y-102.05
X65.75Y-108.7
X68.7Y-41.75
X83.6Y-101.95
X85.75Y-108.8
X87.6Y-56.0
X102.1Y-30.0
X103.3Y-61.9
X103.6Y-102.2
X104.1Y-31.1
X104.9Y-98.4
X105.4Y-27.5
X105.75Y-108.9
X109.5Y-93.8
X110.3Y-92.1
X110.6Y-83.8
X110.8Y-85.4
X116.115Y-31.885
X126.2Y-115.6
X127.6Y-77.4
X128.75Y-28.005
X129.1Y-80.9
X132.5Y-53.6
X133.4Y-122.4
X139.3Y-82.1
X140.275Y-93.8
X140.3Y-92.1
X140.575Y-83.8
X150.5Y-106.4
X150.5Y-116.5
X150.7Y-108.1
X150.9Y-114.7
X151.4Y-104.2
X156.7Y-54.5
X159.8Y-74.8
T2
X109.8Y-35.38
X109.8Y-37.92
X109.8Y-40.46
X109.8Y-43.0
X109.8Y-45.54
X109.8Y-48.08
X109.8Y-50.62
X109.8Y-53.16
X116.375Y-85.5
X116.375Y-88.0
X116.375Y-90.5
X130.025Y-109.7
X130.025Y-114.7
X130.875Y-85.5
X130.875Y-90.5
X144.525Y-109.7
X144.525Y-112.2
X144.525Y-114.7
X147.075Y-85.5
X147.075Y-88.0
X147.075Y-90.5
X161.575Y-85.5
X161.575Y-90.5
T3
X120.41Y-21.725
X120.41Y-24.265
X120.41Y-26.805
X120.41Y-29.345
X120.41Y-31.885
X120.41Y-34.425
X120.41Y-36.965
X120.41Y-39.505
X120.41Y-42.045
X120.41Y-44.585
X120.41Y-47.125
X120.41Y-49.665
X120.41Y-52.205
X120.41Y-54.745
X120.41Y-57.285
X120.41Y-59.825
X120.41Y-62.365
X120.41Y-64.905
X120.41Y-67.445
X120.41Y-69.985
X126.76Y-69.755
X129.3Y-69.755
X131.84Y-69.755
X138.19Y-21.725
X138.19Y-24.265
X138.19Y-26.805
X138.19Y-29.345
X138.19Y-31.885
X138.19Y-34.425
X138.19Y-36.965
X138.19Y-39.505
X138.19Y-42.045
X138.19Y-44.585
X138.19Y-47.125
X138.19Y-49.665
X138.19Y-52.205
X138.19Y-54.745
X138.19Y-57.285
X138.19Y-59.825
X138.19Y-62.365
X138.19Y-64.905
X138.19Y-67.445
X138.19Y-69.985
T4
X33.24Y-30.56
X33.24Y-50.56
X33.24Y-70.56
X33.24Y-90.56
X33.24Y-110.56
X39.59Y-28.02
X39.59Y-48.02
X39.59Y-68.02
X39.59Y-88.02
X39.59Y-108.02
X53.24Y-30.56
X53.24Y-50.56
X53.24Y-70.56
X53.24Y-90.56
X53.24Y-110.56
X59.59Y-28.02
X59.59Y-48.02
X59.59Y-68.02
X59.59Y-88.02
X59.59Y-108.02
X73.24Y-30.56
X73.24Y-50.56
X73.24Y-70.56
X73.24Y-90.56
X73.24Y-110.56
X79.59Y-28.02
X79.59Y-48.02
X79.59Y-68.02
X79.59Y-88.02
X79.59Y-108.02
X93.24Y-30.56
X93.24Y-50.56
X93.24Y-70.56
X93.24Y-90.56
X93.24Y-110.56
X99.59Y-28.02
X99.59Y-48.02
X99.59Y-68.02
X99.59Y-88.02
X99.59Y-108.02
T5
X23.5Y-22.5
X23.5Y-124.5
X175.5Y-22.5
X175.5Y-124.5
T4
X123.225Y-82.4G85X124.525Y-82.4
G05
X123.225Y-93.6G85X124.525Y-93.6
G05
X137.675Y-106.6G85X136.375Y-106.6
G05
X137.675Y-117.8G85X136.375Y-117.8
G05
X153.925Y-82.4G85X155.225Y-82.4
G05
X153.925Y-93.6G85X155.225Y-93.6
G05
M30
