%TF.GenerationSoftware,KiCad,Pcbnew,8.0.4*%
%TF.CreationDate,2024-09-23T00:25:40+08:00*%
%TF.ProjectId,MacroKeypad,4d616372-6f4b-4657-9970-61642e6b6963,rev?*%
%TF.SameCoordinates,Original*%
%TF.FileFunction,Paste,Top*%
%TF.FilePolarity,Positive*%
%FSLAX46Y46*%
G04 Gerber Fmt 4.6, Leading zero omitted, Abs format (unit mm)*
G04 Created by KiCad (PCBNEW 8.0.4) date 2024-09-23 00:25:40*
%MOMM*%
%LPD*%
G01*
G04 APERTURE LIST*
G04 Aperture macros list*
%AMRoundRect*
0 Rectangle with rounded corners*
0 $1 Rounding radius*
0 $2 $3 $4 $5 $6 $7 $8 $9 X,Y pos of 4 corners*
0 Add a 4 corners polygon primitive as box body*
4,1,4,$2,$3,$4,$5,$6,$7,$8,$9,$2,$3,0*
0 Add four circle primitives for the rounded corners*
1,1,$1+$1,$2,$3*
1,1,$1+$1,$4,$5*
1,1,$1+$1,$6,$7*
1,1,$1+$1,$8,$9*
0 Add four rect primitives between the rounded corners*
20,1,$1+$1,$2,$3,$4,$5,0*
20,1,$1+$1,$4,$5,$6,$7,0*
20,1,$1+$1,$6,$7,$8,$9,0*
20,1,$1+$1,$8,$9,$2,$3,0*%
G04 Aperture macros list end*
%ADD10RoundRect,0.237500X0.300000X0.237500X-0.300000X0.237500X-0.300000X-0.237500X0.300000X-0.237500X0*%
%ADD11RoundRect,0.237500X-0.250000X-0.237500X0.250000X-0.237500X0.250000X0.237500X-0.250000X0.237500X0*%
%ADD12RoundRect,0.237500X0.250000X0.237500X-0.250000X0.237500X-0.250000X-0.237500X0.250000X-0.237500X0*%
%ADD13RoundRect,0.237500X-0.237500X0.300000X-0.237500X-0.300000X0.237500X-0.300000X0.237500X0.300000X0*%
%ADD14RoundRect,0.237500X-0.237500X0.250000X-0.237500X-0.250000X0.237500X-0.250000X0.237500X0.250000X0*%
%ADD15RoundRect,0.225000X0.225000X0.375000X-0.225000X0.375000X-0.225000X-0.375000X0.225000X-0.375000X0*%
%ADD16RoundRect,0.237500X-0.300000X-0.237500X0.300000X-0.237500X0.300000X0.237500X-0.300000X0.237500X0*%
%ADD17RoundRect,0.237500X0.237500X-0.250000X0.237500X0.250000X-0.237500X0.250000X-0.237500X-0.250000X0*%
G04 APERTURE END LIST*
D10*
%TO.C,C12*%
X143775000Y-93800000D03*
X142050000Y-93800000D03*
%TD*%
D11*
%TO.C,R7*%
X147300000Y-108100000D03*
X149125000Y-108100000D03*
%TD*%
D12*
%TO.C,R1*%
X95062500Y-24300000D03*
X93237500Y-24300000D03*
%TD*%
D13*
%TO.C,C6*%
X85750000Y-105900000D03*
X85750000Y-107625000D03*
%TD*%
D11*
%TO.C,R19*%
X112075000Y-82200000D03*
X113900000Y-82200000D03*
%TD*%
%TO.C,R21*%
X142100000Y-85500000D03*
X143925000Y-85500000D03*
%TD*%
D14*
%TO.C,R23*%
X133400000Y-83687500D03*
X133400000Y-85512500D03*
%TD*%
D11*
%TO.C,R9*%
X130000000Y-120700000D03*
X131825000Y-120700000D03*
%TD*%
D13*
%TO.C,C4*%
X45750000Y-106000000D03*
X45750000Y-107725000D03*
%TD*%
D15*
%TO.C,D3*%
X82850000Y-24600000D03*
X79550000Y-24600000D03*
%TD*%
%TO.C,D2*%
X62950000Y-24500000D03*
X59650000Y-24500000D03*
%TD*%
D14*
%TO.C,R24*%
X164400000Y-83387500D03*
X164400000Y-85212500D03*
%TD*%
D12*
%TO.C,R11*%
X113925000Y-83800000D03*
X112100000Y-83800000D03*
%TD*%
D15*
%TO.C,D7*%
X62950000Y-44700000D03*
X59650000Y-44700000D03*
%TD*%
D12*
%TO.C,R13*%
X143800000Y-92100000D03*
X141975000Y-92100000D03*
%TD*%
D15*
%TO.C,D13*%
X82950000Y-64600000D03*
X79650000Y-64600000D03*
%TD*%
D11*
%TO.C,R6*%
X113887500Y-36900000D03*
X115712500Y-36900000D03*
%TD*%
D12*
%TO.C,R3*%
X95062500Y-64300000D03*
X93237500Y-64300000D03*
%TD*%
%TO.C,R5*%
X95062500Y-104300000D03*
X93237500Y-104300000D03*
%TD*%
D16*
%TO.C,C3*%
X147300000Y-116512500D03*
X149025000Y-116512500D03*
%TD*%
D15*
%TO.C,D22*%
X62900000Y-104400000D03*
X59600000Y-104400000D03*
%TD*%
D13*
%TO.C,C5*%
X65750000Y-105600000D03*
X65750000Y-107325000D03*
%TD*%
D10*
%TO.C,C10*%
X113900000Y-85400000D03*
X112175000Y-85400000D03*
%TD*%
D12*
%TO.C,R2*%
X95062500Y-44300000D03*
X93237500Y-44300000D03*
%TD*%
D15*
%TO.C,D21*%
X43000000Y-104600000D03*
X39700000Y-104600000D03*
%TD*%
%TO.C,D14*%
X102900000Y-64600000D03*
X99600000Y-64600000D03*
%TD*%
%TO.C,D8*%
X82950000Y-44700000D03*
X79650000Y-44700000D03*
%TD*%
%TO.C,D18*%
X82850000Y-84500000D03*
X79550000Y-84500000D03*
%TD*%
%TO.C,D12*%
X62850000Y-64600000D03*
X59550000Y-64600000D03*
%TD*%
%TO.C,D6*%
X42950000Y-44600000D03*
X39650000Y-44600000D03*
%TD*%
D13*
%TO.C,C7*%
X105750000Y-105775000D03*
X105750000Y-107500000D03*
%TD*%
D12*
%TO.C,R14*%
X143900000Y-82100000D03*
X142075000Y-82100000D03*
%TD*%
%TO.C,R10*%
X113525000Y-93800000D03*
X111700000Y-93800000D03*
%TD*%
D15*
%TO.C,D19*%
X102900000Y-84500000D03*
X99600000Y-84500000D03*
%TD*%
%TO.C,D16*%
X42900000Y-84600000D03*
X39600000Y-84600000D03*
%TD*%
D17*
%TO.C,R22*%
X127500000Y-116525000D03*
X127500000Y-114700000D03*
%TD*%
D12*
%TO.C,R16*%
X149100000Y-114800000D03*
X147275000Y-114800000D03*
%TD*%
D16*
%TO.C,C1*%
X147300000Y-106400000D03*
X149025000Y-106400000D03*
%TD*%
D15*
%TO.C,D9*%
X102800000Y-44400000D03*
X99500000Y-44400000D03*
%TD*%
D10*
%TO.C,C9*%
X113500000Y-92100000D03*
X111775000Y-92100000D03*
%TD*%
%TO.C,C11*%
X130800000Y-77400000D03*
X129075000Y-77400000D03*
%TD*%
D15*
%TO.C,D1*%
X42850000Y-24400000D03*
X39550000Y-24400000D03*
%TD*%
D10*
%TO.C,C13*%
X143875000Y-83800000D03*
X142150000Y-83800000D03*
%TD*%
D15*
%TO.C,D4*%
X102900000Y-24500000D03*
X99600000Y-24500000D03*
%TD*%
%TO.C,D11*%
X42950000Y-64600000D03*
X39650000Y-64600000D03*
%TD*%
D12*
%TO.C,R15*%
X161600000Y-78500000D03*
X159775000Y-78500000D03*
%TD*%
%TO.C,R4*%
X95062500Y-84300000D03*
X93237500Y-84300000D03*
%TD*%
%TO.C,R17*%
X149125000Y-109700000D03*
X147300000Y-109700000D03*
%TD*%
D10*
%TO.C,C14*%
X161525000Y-76600000D03*
X159800000Y-76600000D03*
%TD*%
D11*
%TO.C,R20*%
X141975000Y-90500000D03*
X143800000Y-90500000D03*
%TD*%
%TO.C,R18*%
X111687500Y-90500000D03*
X113512500Y-90500000D03*
%TD*%
%TO.C,R8*%
X147275000Y-118212500D03*
X149100000Y-118212500D03*
%TD*%
D15*
%TO.C,D23*%
X82900000Y-104500000D03*
X79600000Y-104500000D03*
%TD*%
%TO.C,D24*%
X102850000Y-104500000D03*
X99550000Y-104500000D03*
%TD*%
D16*
%TO.C,C2*%
X130037500Y-122400000D03*
X131762500Y-122400000D03*
%TD*%
D12*
%TO.C,R12*%
X130900000Y-79100000D03*
X129075000Y-79100000D03*
%TD*%
D15*
%TO.C,D17*%
X62850000Y-84600000D03*
X59550000Y-84600000D03*
%TD*%
M02*
