%TF.GenerationSoftware,KiCad,Pcbnew,8.0.4*%
%TF.CreationDate,2024-09-23T00:25:40+08:00*%
%TF.ProjectId,MacroKeypad,4d616372-6f4b-4657-9970-61642e6b6963,rev?*%
%TF.SameCoordinates,Original*%
%TF.FileFunction,Soldermask,Bot*%
%TF.FilePolarity,Negative*%
%FSLAX46Y46*%
G04 Gerber Fmt 4.6, Leading zero omitted, Abs format (unit mm)*
G04 Created by KiCad (PCBNEW 8.0.4) date 2024-09-23 00:25:40*
%MOMM*%
%LPD*%
G01*
G04 APERTURE LIST*
G04 Aperture macros list*
%AMRoundRect*
0 Rectangle with rounded corners*
0 $1 Rounding radius*
0 $2 $3 $4 $5 $6 $7 $8 $9 X,Y pos of 4 corners*
0 Add a 4 corners polygon primitive as box body*
4,1,4,$2,$3,$4,$5,$6,$7,$8,$9,$2,$3,0*
0 Add four circle primitives for the rounded corners*
1,1,$1+$1,$2,$3*
1,1,$1+$1,$4,$5*
1,1,$1+$1,$6,$7*
1,1,$1+$1,$8,$9*
0 Add four rect primitives between the rounded corners*
20,1,$1+$1,$2,$3,$4,$5,0*
20,1,$1+$1,$4,$5,$6,$7,0*
20,1,$1+$1,$6,$7,$8,$9,0*
20,1,$1+$1,$8,$9,$2,$3,0*%
G04 Aperture macros list end*
%ADD10C,1.700000*%
%ADD11C,4.000000*%
%ADD12C,2.200000*%
%ADD13C,5.700000*%
%ADD14R,2.000000X2.000000*%
%ADD15C,2.000000*%
%ADD16R,3.200000X2.000000*%
%ADD17RoundRect,0.250000X0.600000X-0.600000X0.600000X0.600000X-0.600000X0.600000X-0.600000X-0.600000X0*%
%ADD18C,1.000000*%
%ADD19O,1.800000X1.800000*%
%ADD20O,1.500000X1.500000*%
%ADD21O,1.700000X1.700000*%
%ADD22R,3.500000X1.700000*%
%ADD23R,1.700000X1.700000*%
%ADD24R,1.700000X3.500000*%
G04 APERTURE END LIST*
D10*
%TO.C,SW22*%
X51970000Y-113100000D03*
D11*
X57050000Y-113100000D03*
D10*
X62130000Y-113100000D03*
D12*
X59590000Y-108020000D03*
X53240000Y-110560000D03*
%TD*%
D10*
%TO.C,SW17*%
X51970000Y-93100000D03*
D11*
X57050000Y-93100000D03*
D10*
X62130000Y-93100000D03*
D12*
X59590000Y-88020000D03*
X53240000Y-90560000D03*
%TD*%
D10*
%TO.C,SW18*%
X71970000Y-93100000D03*
D11*
X77050000Y-93100000D03*
D10*
X82130000Y-93100000D03*
D12*
X79590000Y-88020000D03*
X73240000Y-90560000D03*
%TD*%
D13*
%TO.C,H1*%
X23500000Y-124500000D03*
%TD*%
D14*
%TO.C,SW28*%
X147075000Y-85500000D03*
D15*
X147075000Y-90500000D03*
X147075000Y-88000000D03*
D16*
X154575000Y-82400000D03*
X154575000Y-93600000D03*
D15*
X161575000Y-90500000D03*
X161575000Y-85500000D03*
%TD*%
D10*
%TO.C,SW24*%
X91970000Y-113100000D03*
D11*
X97050000Y-113100000D03*
D10*
X102130000Y-113100000D03*
D12*
X99590000Y-108020000D03*
X93240000Y-110560000D03*
%TD*%
D14*
%TO.C,SW26*%
X144525000Y-114700000D03*
D15*
X144525000Y-109700000D03*
X144525000Y-112200000D03*
D16*
X137025000Y-117800000D03*
X137025000Y-106600000D03*
D15*
X130025000Y-109700000D03*
X130025000Y-114700000D03*
%TD*%
D10*
%TO.C,SW6*%
X31970000Y-53100000D03*
D11*
X37050000Y-53100000D03*
D10*
X42130000Y-53100000D03*
D12*
X39590000Y-48020000D03*
X33240000Y-50560000D03*
%TD*%
D10*
%TO.C,SW19*%
X91970000Y-93100000D03*
D11*
X97050000Y-93100000D03*
D10*
X102130000Y-93100000D03*
D12*
X99590000Y-88020000D03*
X93240000Y-90560000D03*
%TD*%
D10*
%TO.C,SW4*%
X91970000Y-33100000D03*
D11*
X97050000Y-33100000D03*
D10*
X102130000Y-33100000D03*
D12*
X99590000Y-28020000D03*
X93240000Y-30560000D03*
%TD*%
D10*
%TO.C,SW14*%
X91970000Y-73100000D03*
D11*
X97050000Y-73100000D03*
D10*
X102130000Y-73100000D03*
D12*
X99590000Y-68020000D03*
X93240000Y-70560000D03*
%TD*%
D13*
%TO.C,H2*%
X23500000Y-22500000D03*
%TD*%
D10*
%TO.C,SW9*%
X91970000Y-53100000D03*
D11*
X97050000Y-53100000D03*
D10*
X102130000Y-53100000D03*
D12*
X99590000Y-48020000D03*
X93240000Y-50560000D03*
%TD*%
D10*
%TO.C,SW16*%
X31970000Y-93100000D03*
D11*
X37050000Y-93100000D03*
D10*
X42130000Y-93100000D03*
D12*
X39590000Y-88020000D03*
X33240000Y-90560000D03*
%TD*%
D10*
%TO.C,SW23*%
X71970000Y-113100000D03*
D11*
X77050000Y-113100000D03*
D10*
X82130000Y-113100000D03*
D12*
X79590000Y-108020000D03*
X73240000Y-110560000D03*
%TD*%
D10*
%TO.C,SW1*%
X31970000Y-33100000D03*
D11*
X37050000Y-33100000D03*
D10*
X42130000Y-33100000D03*
D12*
X39590000Y-28020000D03*
X33240000Y-30560000D03*
%TD*%
D10*
%TO.C,SW13*%
X71970000Y-73100000D03*
D11*
X77050000Y-73100000D03*
D10*
X82130000Y-73100000D03*
D12*
X79590000Y-68020000D03*
X73240000Y-70560000D03*
%TD*%
D17*
%TO.C,J1*%
X109800000Y-53160000D03*
D10*
X109800000Y-50620000D03*
X109800000Y-48080000D03*
X109800000Y-45540000D03*
X109800000Y-43000000D03*
X109800000Y-40460000D03*
X109800000Y-37920000D03*
X109800000Y-35380000D03*
%TD*%
%TO.C,SW11*%
X31970000Y-73100000D03*
D11*
X37050000Y-73100000D03*
D10*
X42130000Y-73100000D03*
D12*
X39590000Y-68020000D03*
X33240000Y-70560000D03*
%TD*%
D10*
%TO.C,SW21*%
X31970000Y-113100000D03*
D11*
X37050000Y-113100000D03*
D10*
X42130000Y-113100000D03*
D12*
X39590000Y-108020000D03*
X33240000Y-110560000D03*
%TD*%
D14*
%TO.C,SW27*%
X116375000Y-85500000D03*
D15*
X116375000Y-90500000D03*
X116375000Y-88000000D03*
D16*
X123875000Y-82400000D03*
X123875000Y-93600000D03*
D15*
X130875000Y-90500000D03*
X130875000Y-85500000D03*
%TD*%
D13*
%TO.C,H4*%
X175500000Y-124500000D03*
%TD*%
D10*
%TO.C,SW2*%
X51970000Y-33100000D03*
D11*
X57050000Y-33100000D03*
D10*
X62130000Y-33100000D03*
D12*
X59590000Y-28020000D03*
X53240000Y-30560000D03*
%TD*%
D10*
%TO.C,SW7*%
X51970000Y-53100000D03*
D11*
X57050000Y-53100000D03*
D10*
X62130000Y-53100000D03*
D12*
X59590000Y-48020000D03*
X53240000Y-50560000D03*
%TD*%
D10*
%TO.C,SW8*%
X71970000Y-53100000D03*
D11*
X77050000Y-53100000D03*
D10*
X82130000Y-53100000D03*
D12*
X79590000Y-48020000D03*
X73240000Y-50560000D03*
%TD*%
D10*
%TO.C,SW12*%
X51970000Y-73100000D03*
D11*
X57050000Y-73100000D03*
D10*
X62130000Y-73100000D03*
D12*
X59590000Y-68020000D03*
X53240000Y-70560000D03*
%TD*%
D10*
%TO.C,SW3*%
X71970000Y-33100000D03*
D11*
X77050000Y-33100000D03*
D10*
X82130000Y-33100000D03*
D12*
X79590000Y-28020000D03*
X73240000Y-30560000D03*
%TD*%
D13*
%TO.C,H3*%
X175500000Y-22500000D03*
%TD*%
D18*
%TO.C,TP10*%
X61800000Y-102050000D03*
%TD*%
%TO.C,TP12*%
X101800000Y-102150000D03*
%TD*%
%TO.C,TP5*%
X28850000Y-30500000D03*
%TD*%
%TO.C,TP9*%
X41900000Y-102050000D03*
%TD*%
%TO.C,TP6*%
X28850000Y-50500000D03*
%TD*%
D19*
%TO.C,U2*%
X132025000Y-21855000D03*
D20*
X131725000Y-24885000D03*
X126875000Y-24885000D03*
D19*
X126575000Y-21855000D03*
D21*
X138190000Y-21725000D03*
D22*
X139090000Y-21725000D03*
D21*
X138190000Y-24265000D03*
D22*
X139090000Y-24265000D03*
D23*
X138190000Y-26805000D03*
D22*
X139090000Y-26805000D03*
D21*
X138190000Y-29345000D03*
D22*
X139090000Y-29345000D03*
D21*
X138190000Y-31885000D03*
D22*
X139090000Y-31885000D03*
D21*
X138190000Y-34425000D03*
D22*
X139090000Y-34425000D03*
D21*
X138190000Y-36965000D03*
D22*
X139090000Y-36965000D03*
D23*
X138190000Y-39505000D03*
D22*
X139090000Y-39505000D03*
D21*
X138190000Y-42045000D03*
D22*
X139090000Y-42045000D03*
D21*
X138190000Y-44585000D03*
D22*
X139090000Y-44585000D03*
D21*
X138190000Y-47125000D03*
D22*
X139090000Y-47125000D03*
D21*
X138190000Y-49665000D03*
D22*
X139090000Y-49665000D03*
D23*
X138190000Y-52205000D03*
D22*
X139090000Y-52205000D03*
D21*
X138190000Y-54745000D03*
D22*
X139090000Y-54745000D03*
D21*
X138190000Y-57285000D03*
D22*
X139090000Y-57285000D03*
D21*
X138190000Y-59825000D03*
D22*
X139090000Y-59825000D03*
D21*
X138190000Y-62365000D03*
D22*
X139090000Y-62365000D03*
D23*
X138190000Y-64905000D03*
D22*
X139090000Y-64905000D03*
D21*
X138190000Y-67445000D03*
D22*
X139090000Y-67445000D03*
D21*
X138190000Y-69985000D03*
D22*
X139090000Y-69985000D03*
D21*
X120410000Y-69985000D03*
D22*
X119510000Y-69985000D03*
D21*
X120410000Y-67445000D03*
D22*
X119510000Y-67445000D03*
D23*
X120410000Y-64905000D03*
D22*
X119510000Y-64905000D03*
D21*
X120410000Y-62365000D03*
D22*
X119510000Y-62365000D03*
D21*
X120410000Y-59825000D03*
D22*
X119510000Y-59825000D03*
D21*
X120410000Y-57285000D03*
D22*
X119510000Y-57285000D03*
D21*
X120410000Y-54745000D03*
D22*
X119510000Y-54745000D03*
D23*
X120410000Y-52205000D03*
D22*
X119510000Y-52205000D03*
D21*
X120410000Y-49665000D03*
D22*
X119510000Y-49665000D03*
D21*
X120410000Y-47125000D03*
D22*
X119510000Y-47125000D03*
D21*
X120410000Y-44585000D03*
D22*
X119510000Y-44585000D03*
D21*
X120410000Y-42045000D03*
D22*
X119510000Y-42045000D03*
D23*
X120410000Y-39505000D03*
D22*
X119510000Y-39505000D03*
D21*
X120410000Y-36965000D03*
D22*
X119510000Y-36965000D03*
D21*
X120410000Y-34425000D03*
D22*
X119510000Y-34425000D03*
D21*
X120410000Y-31885000D03*
D22*
X119510000Y-31885000D03*
D21*
X120410000Y-29345000D03*
D22*
X119510000Y-29345000D03*
D23*
X120410000Y-26805000D03*
D22*
X119510000Y-26805000D03*
D21*
X120410000Y-24265000D03*
D22*
X119510000Y-24265000D03*
D21*
X120410000Y-21725000D03*
D22*
X119510000Y-21725000D03*
D21*
X131840000Y-69755000D03*
D24*
X131840000Y-70655000D03*
D23*
X129300000Y-69755000D03*
D24*
X129300000Y-70655000D03*
D21*
X126760000Y-69755000D03*
D24*
X126760000Y-70655000D03*
%TD*%
D18*
%TO.C,TP11*%
X81800000Y-101950000D03*
%TD*%
%TO.C,TP7*%
X28950000Y-70500000D03*
%TD*%
%TO.C,TP1*%
X28750000Y-90600000D03*
%TD*%
M02*
